<?xml version="1.0" encoding="utf-8"?>
<!-- Generator: Adobe Illustrator 16.0.0, SVG Export Plug-In . SVG Version: 6.00 Build 0)  -->
<!DOCTYPE svg PUBLIC "-//W3C//DTD SVG 1.1//EN" "http://www.w3.org/Graphics/SVG/1.1/DTD/svg11.dtd">
<svg version="1.1" id="Layer_1" xmlns="http://www.w3.org/2000/svg" xmlns:xlink="http://www.w3.org/1999/xlink" x="0px" y="0px"
	 width="273.5px" height="253px" viewBox="0 0 273.5 253" enable-background="new 0 0 273.5 253" xml:space="preserve">
<g id="Layer_2" display="none">
	<rect display="inline" width="600" height="600"/>
</g>
<g id="Layer_3">
	<path d="M145.073,18.552c-0.052,0.938-0.118,1.932-0.188,2.988c-0.137,2.078-0.293,4.434-0.375,6.855
		c-0.007,0.208-0.012,0.416-0.016,0.625c3.523-0.475,6.857-0.715,9.939-0.715c10.822,0,17.898,3.012,19.924,8.481
		c0.586,1.583,0.716,3.285,0.408,5.075c15.092,11.59,24.825,29.815,24.825,50.315c0,35.018-28.387,63.404-63.404,63.404
		s-63.404-28.387-63.404-63.404c0-8.661,1.739-16.916,4.883-24.437c0.434-3.172,2.277-6.625,5.392-10.173
		c2.689-4.12,5.842-7.91,9.388-11.291c-3.017-2.717-6.66-5.427-8.547-6.681c-13.506,13.431-21.868,32.03-21.868,52.582
		c0,40.956,33.2,74.157,74.156,74.157c40.956,0,74.157-33.201,74.157-74.157C210.346,54.228,181.839,22.942,145.073,18.552z"/>
	<path fill="#FFFFFF" d="M147.15,14.475c-0.026-1.028-0.105-1.953-0.271-2.776l-0.009-0.042c-0.094-0.559-0.229-1.072-0.411-1.564
		c-1.255-3.39-5.017-7.431-15.809-7.431c-7.053,0-15.699,1.764-24.348,4.967c-8.602,3.187-16.284,7.457-21.63,12.025
		c-8.262,7.059-8.493,12.597-7.231,16.003c0.37,0.996,0.913,1.908,1.623,2.729c-13.783,14.612-21.346,33.61-21.346,53.79
		c0,43.27,35.201,78.471,78.469,78.471c43.269,0,78.47-35.203,78.47-78.471C214.658,52.992,185.747,19.867,147.15,14.475z"/>
	<path d="M172.168,37.597c-2.396-6.467-14.366-8.419-29.938-5.877c-0.069-1.034-0.097-2.167-0.057-3.402
		c0.234-6.932,1.042-12.951,0.483-15.744c-0.005-0.018-0.011-0.034-0.017-0.052c-0.045-0.317-0.113-0.63-0.226-0.932
		c-2.292-6.186-17.789-6.148-34.614,0.084c-16.826,6.232-28.608,16.299-26.316,22.485c0.323,0.872,0.916,1.615,1.729,2.24
		c0.244,0.211,0.503,0.396,0.774,0.524c0.009,0.004,0.022,0.012,0.031,0.017c0.068,0.039,0.14,0.077,0.21,0.115
		c1.889,1.094,10.17,7.116,13.613,11.446c-12.632,8-19.837,16.871-17.523,23.117c3.454,9.326,26.815,9.271,52.178-0.125
		C157.861,62.099,175.622,46.923,172.168,37.597z M92.969,34.554c-5.412,0-8.031-1.104-8.243-1.198l-0.06-1.18
		c0.104,0.044,10.684,4.462,34.109-4.76c15.905-6.262,19.887-10.926,20.844-13.148c0.479-1.112,0.25-1.712,0.247-1.718l0.874,0.372
		c0.035,0.08,0.326,0.813-0.211,2.12c-1.166,2.835-5.792,7.49-21.22,13.564C107.229,33.362,98.592,34.554,92.969,34.554z
		 M128.778,62.852c-11.579,4.289-22.243,4.315-23.82,0.058c-0.353-0.952-2.425-4.584-2.86-5.762
		c-0.054-0.143-0.094-0.29-0.125-0.439c2.692,3.461,12.877,3.15,23.873-0.923c11.21-4.153,19.234-10.722,18.693-15.106
		c0.129,0.199,0.242,0.406,0.324,0.628c0.408,1.102,1.646,5.046,2.025,6.07C148.464,51.636,140.355,58.563,128.778,62.852z"/>
</g>
<path d="M172.168,37.597c-2.396-6.467-14.366-8.419-29.938-5.877c-0.069-1.034-0.097-2.167-0.057-3.402
	c0.234-6.932,1.042-12.951,0.483-15.744c-0.005-0.018-0.011-0.034-0.017-0.052c-0.045-0.317-0.113-0.63-0.226-0.932
	c-2.292-6.186-17.789-6.148-34.614,0.084c-16.826,6.232-28.608,16.299-26.316,22.485c0.323,0.872,0.916,1.615,1.729,2.24
	c0.244,0.211,0.503,0.396,0.774,0.524c0.009,0.004,0.022,0.012,0.031,0.017c0.068,0.039,0.14,0.077,0.21,0.115
	c1.889,1.094,10.17,7.116,13.613,11.446c-12.632,8-19.837,16.871-17.523,23.117c3.454,9.326,26.815,9.271,52.178-0.125
	C157.861,62.099,175.622,46.923,172.168,37.597z M92.969,34.554c-5.412,0-8.031-1.104-8.243-1.198l-0.06-1.18
	c0.104,0.044,10.684,4.462,34.109-4.76c15.905-6.262,19.887-10.926,20.844-13.148c0.479-1.112,0.25-1.712,0.247-1.718l0.874,0.372
	c0.035,0.08,0.326,0.813-0.211,2.12c-1.166,2.835-5.792,7.49-21.22,13.564C107.229,33.362,98.592,34.554,92.969,34.554z
	 M128.778,62.852c-11.579,4.289-22.243,4.315-23.82,0.058c-0.353-0.952-2.425-4.584-2.86-5.762c-0.054-0.143-0.094-0.29-0.125-0.439
	c2.692,3.461,12.877,3.15,23.873-0.923c11.21-4.153,19.234-10.722,18.693-15.106c0.129,0.199,0.242,0.406,0.324,0.628
	c0.408,1.102,1.646,5.046,2.025,6.07C148.464,51.636,140.355,58.563,128.778,62.852z"/>
<g enable-background="new    ">
	<path fill="#FFFFFF" d="M19.12,207.329c1.104,2.257,2.16,4.465,3.312,6.577h0.096c1.296-2.257,2.496-4.753,3.696-7.201l4.512-9.169
		c2.16-4.368,3.552-7.008,3.648-9.217c1.632,0.145,2.64,0.145,3.6,0.145c1.2,0,2.784-0.048,4.272-0.145
		c0.288,0.192,0.288,1.009,0.048,1.2l-1.008,0.097c-3.024,0.288-3.408,1.2-3.36,4.56c0.096,5.089,0.144,13.97,0.528,20.882
		c0.144,2.4,0.096,3.696,2.352,3.889l1.536,0.145c0.288,0.288,0.24,1.008-0.096,1.199c-1.968-0.096-3.936-0.144-5.665-0.144
		c-1.68,0-3.84,0.048-5.808,0.144c-0.336-0.239-0.384-0.911-0.096-1.199l1.392-0.145c2.352-0.24,2.352-1.008,2.352-4.08
		l-0.144-20.018h-0.096c-0.336,0.527-2.16,4.368-3.121,6.24l-4.272,8.4c-2.16,4.225-4.321,8.737-5.185,10.945
		c-0.096,0.144-0.288,0.192-0.48,0.192c-0.096,0-0.336-0.049-0.432-0.192c-0.816-2.544-3.12-7.249-4.225-9.601l-4.32-9.265
		c-1.008-2.209-2.016-4.705-3.072-6.913H8.991c-0.192,2.977-0.336,5.761-0.48,8.545c-0.144,2.928-0.336,7.2-0.336,11.281
		c0,3.552,0.288,4.32,2.16,4.464l1.824,0.145c0.336,0.288,0.288,1.056-0.048,1.199c-1.632-0.096-3.504-0.144-5.329-0.144
		c-1.536,0-3.264,0.048-4.896,0.144c-0.288-0.239-0.384-0.96-0.096-1.199l1.056-0.145c2.016-0.288,2.688-0.576,2.976-3.937
		c0.288-3.168,0.528-5.809,0.816-10.561c0.24-3.984,0.432-8.064,0.528-10.705c0.096-3.024-0.288-3.744-3.216-4.128l-0.768-0.097
		c-0.24-0.288-0.192-1.008,0.192-1.2c1.44,0.097,2.592,0.145,3.792,0.145c1.104,0,2.4,0,3.984-0.145
		c-0.192,1.872,1.008,4.849,2.496,7.921L19.12,207.329z"/>
	<path fill="#FFFFFF" d="M63.759,209.01c-0.336-1.057-0.528-1.2-1.968-1.2h-7.249c-1.2,0-1.488,0.144-1.824,1.152l-1.68,5.04
		c-0.72,2.16-1.056,3.456-1.056,3.984c0,0.576,0.24,0.864,1.392,0.96l1.584,0.145c0.336,0.239,0.336,1.008-0.096,1.199
		c-1.248-0.096-2.736-0.096-4.992-0.144c-1.584,0-3.313,0.096-4.608,0.144c-0.288-0.191-0.384-0.96-0.096-1.199l1.584-0.145
		c1.152-0.096,2.208-0.624,2.88-2.353c0.864-2.208,2.208-5.328,4.225-10.704l4.896-12.962c0.672-1.728,0.96-2.64,0.816-3.408
		c1.152-0.336,1.968-1.2,2.496-1.824c0.288,0,0.624,0.097,0.72,0.433c0.624,2.112,1.392,4.32,2.112,6.433l6.576,19.298
		c1.392,4.128,2.017,4.848,4.081,5.088l1.296,0.145c0.336,0.239,0.24,1.008,0,1.199c-1.968-0.096-3.648-0.144-5.808-0.144
		c-2.304,0-4.128,0.096-5.521,0.144c-0.384-0.191-0.432-0.96-0.096-1.199l1.392-0.145c1.008-0.096,1.68-0.384,1.68-0.864
		c0-0.527-0.24-1.392-0.624-2.544L63.759,209.01z M54.254,204.737c-0.384,1.104-0.336,1.152,1.008,1.152h5.904
		c1.392,0,1.488-0.192,1.056-1.488l-2.592-7.825c-0.384-1.151-0.816-2.448-1.104-3.024h-0.096c-0.144,0.24-0.624,1.393-1.152,2.833
		L54.254,204.737z"/>
	<path fill="#FFFFFF" d="M80.27,194.704c0-3.36-0.24-4.368-2.256-4.656l-1.056-0.144c-0.384-0.24-0.432-1.009,0.048-1.2
		c4.08-0.24,7.969-0.385,12.049-0.385c4.032,0,7.441,0.288,10.561,1.44c6.48,2.353,9.745,7.825,9.745,14.161
		c0,6.097-2.928,11.329-8.4,14.306c-3.121,1.68-7.057,2.304-10.753,2.304c-3.072,0-6.145-0.384-7.825-0.384
		c-2.016,0-3.745,0.048-6,0.144c-0.288-0.144-0.384-0.911-0.096-1.199l1.104-0.145c2.784-0.384,2.88-0.96,2.88-6V194.704z
		 M84.206,211.842c0,2.544,0.144,4.08,0.96,5.232c1.056,1.488,2.88,1.968,5.904,1.968c9.313,0,13.489-6.096,13.489-15.024
		c0-5.281-2.544-14.21-15.121-14.21c-2.833,0-4.369,0.384-4.752,0.672c-0.384,0.288-0.48,1.488-0.48,3.648V211.842z"/>
	<path fill="#FFFFFF" d="M124.046,204.642c-2.304,0-2.4,0.096-2.4,1.536v6.769c0,5.04,0.24,5.712,2.928,6l1.392,0.145
		c0.288,0.191,0.192,1.056-0.096,1.199c-2.592-0.096-4.224-0.144-6.097-0.144c-2.064,0-3.696,0.096-5.568,0.144
		c-0.288-0.144-0.384-0.911-0.096-1.199l0.816-0.145c2.688-0.479,2.784-0.96,2.784-6v-17.282c0-5.04-0.336-5.856-2.832-6.048
		l-1.249-0.097c-0.288-0.191-0.192-1.056,0.096-1.2c2.352,0.049,3.984,0.145,6.048,0.145c1.873,0,3.504-0.048,5.569-0.145
		c0.288,0.145,0.384,1.009,0.096,1.2l-0.912,0.097c-2.784,0.288-2.88,1.008-2.88,6.048v5.521c0,1.488,0.096,1.536,2.4,1.536h13.729
		c2.305,0,2.4-0.048,2.4-1.536v-5.521c0-5.04-0.096-5.76-2.929-6.048l-0.912-0.097c-0.288-0.191-0.192-1.056,0.096-1.2
		c2.208,0.097,3.84,0.145,5.809,0.145c1.871,0,3.504-0.048,5.664-0.145c0.287,0.145,0.384,1.009,0.096,1.2l-1.008,0.097
		c-2.784,0.288-2.881,1.008-2.881,6.048v17.282c0,5.04,0.097,5.664,2.881,6l1.152,0.145c0.287,0.191,0.191,1.056-0.097,1.199
		c-2.304-0.096-3.937-0.144-5.808-0.144c-1.969,0-3.697,0.048-5.809,0.144c-0.288-0.144-0.384-0.911-0.096-1.199l0.912-0.145
		c2.929-0.479,2.929-0.96,2.929-6v-6.769c0-1.44-0.096-1.536-2.4-1.536H124.046z"/>
	<path fill="#FFFFFF" d="M169.791,209.01c-0.336-1.057-0.528-1.2-1.969-1.2h-7.248c-1.201,0-1.488,0.144-1.824,1.152l-1.681,5.04
		c-0.72,2.16-1.056,3.456-1.056,3.984c0,0.576,0.24,0.864,1.393,0.96l1.584,0.145c0.336,0.239,0.336,1.008-0.097,1.199
		c-1.248-0.096-2.736-0.096-4.992-0.144c-1.585,0-3.313,0.096-4.608,0.144c-0.288-0.191-0.385-0.96-0.096-1.199l1.584-0.145
		c1.152-0.096,2.208-0.624,2.88-2.353c0.864-2.208,2.208-5.328,4.225-10.704l4.896-12.962c0.672-1.728,0.96-2.64,0.815-3.408
		c1.152-0.336,1.969-1.2,2.496-1.824c0.289,0,0.625,0.097,0.721,0.433c0.624,2.112,1.393,4.32,2.112,6.433l6.576,19.298
		c1.392,4.128,2.017,4.848,4.081,5.088l1.295,0.145c0.337,0.239,0.24,1.008,0,1.199c-1.967-0.096-3.647-0.144-5.808-0.144
		c-2.304,0-4.128,0.096-5.521,0.144c-0.385-0.191-0.432-0.96-0.096-1.199l1.392-0.145c1.009-0.096,1.681-0.384,1.681-0.864
		c0-0.527-0.24-1.392-0.625-2.544L169.791,209.01z M160.285,204.737c-0.383,1.104-0.336,1.152,1.009,1.152h5.904
		c1.392,0,1.488-0.192,1.056-1.488l-2.592-7.825c-0.384-1.151-0.816-2.448-1.104-3.024h-0.097c-0.144,0.24-0.624,1.393-1.151,2.833
		L160.285,204.737z"/>
	<path fill="#FFFFFF" d="M194.463,212.946c0,5.04,0.096,5.76,2.88,6l1.536,0.145c0.288,0.191,0.191,1.056-0.096,1.199
		c-2.736-0.096-4.369-0.144-6.289-0.144s-3.6,0.048-6.672,0.144c-0.289-0.144-0.385-0.96,0-1.199l1.728-0.145
		c2.736-0.24,2.976-0.96,2.976-6v-21.458c0-1.488,0-1.536-1.439-1.536h-2.641c-2.064,0-4.704,0.096-5.904,1.2
		c-1.152,1.056-1.632,2.111-2.16,3.312c-0.384,0.288-1.057,0.049-1.248-0.336c0.768-2.16,1.488-5.232,1.824-7.152
		c0.145-0.096,0.768-0.144,0.912,0c0.288,1.536,1.872,1.488,4.08,1.488h19.441c2.593,0,3.025-0.096,3.745-1.345
		c0.239-0.096,0.768-0.048,0.864,0.145c-0.528,1.968-0.864,5.856-0.721,7.297c-0.191,0.384-1.008,0.384-1.248,0.096
		c-0.145-1.2-0.48-2.977-1.2-3.504c-1.104-0.816-2.929-1.2-5.568-1.2h-3.408c-1.44,0-1.392,0.048-1.392,1.632V212.946z"/>
	<path fill="#FFFFFF" d="M214.621,195.664c0-4.992-0.097-5.712-2.929-6.048l-0.769-0.097c-0.287-0.191-0.191-1.056,0.097-1.2
		c2.063,0.097,3.696,0.145,5.664,0.145h9.024c3.072,0,5.905,0,6.48-0.145c0.289,0.816,0.576,4.272,0.769,6.385
		c-0.192,0.288-0.96,0.384-1.2,0.097c-0.72-2.257-1.152-3.937-3.648-4.561c-1.008-0.24-2.544-0.288-4.656-0.288h-3.456
		c-1.44,0-1.44,0.096-1.44,1.92v9.601c0,1.345,0.145,1.345,1.584,1.345h2.785c2.016,0,3.504-0.097,4.08-0.288
		c0.576-0.192,0.912-0.48,1.152-1.681l0.384-1.968c0.239-0.288,1.056-0.288,1.248,0.048c0,1.152-0.192,3.024-0.192,4.849
		c0,1.728,0.192,3.552,0.192,4.608c-0.192,0.336-1.009,0.336-1.248,0.048l-0.433-1.872c-0.191-0.864-0.527-1.584-1.488-1.824
		c-0.672-0.192-1.824-0.24-3.695-0.24h-2.785c-1.439,0-1.584,0.048-1.584,1.296v6.769c0,2.545,0.145,4.177,0.912,4.993
		c0.576,0.575,1.584,1.104,5.809,1.104c3.696,0,5.089-0.191,6.145-0.72c0.864-0.48,2.16-2.16,3.408-4.656
		c0.336-0.24,1.008-0.097,1.2,0.336c-0.336,1.68-1.536,5.376-2.16,6.672c-4.32-0.096-8.593-0.144-12.864-0.144h-4.321
		c-2.063,0-3.696,0.048-6.528,0.144c-0.288-0.144-0.385-0.911-0.096-1.199l1.584-0.145c2.736-0.24,2.977-0.96,2.977-6V195.664z"/>
	<path fill="#FFFFFF" d="M242.652,195.712c0-4.56-0.145-5.376-2.112-5.616l-1.536-0.191c-0.336-0.24-0.336-1.009,0.049-1.2
		c2.688-0.24,6-0.385,10.704-0.385c2.977,0,5.809,0.24,8.017,1.44c2.305,1.2,3.984,3.36,3.984,6.721c0,4.561-3.6,7.057-6,8.017
		c-0.24,0.288,0,0.769,0.24,1.152c3.84,6.192,6.384,10.032,9.648,12.769c0.816,0.721,2.016,1.248,3.313,1.345
		c0.24,0.096,0.287,0.479,0.048,0.672c-0.433,0.144-1.2,0.24-2.112,0.24c-4.08,0-6.529-1.2-9.938-6.049
		c-1.248-1.776-3.216-5.089-4.704-7.249c-0.72-1.056-1.487-1.536-3.408-1.536c-2.16,0-2.256,0.049-2.256,1.057v6.049
		c0,5.04,0.096,5.616,2.88,6l1.008,0.145c0.289,0.239,0.192,1.056-0.096,1.199c-2.16-0.096-3.792-0.144-5.713-0.144
		c-2.016,0-3.744,0.048-6,0.144c-0.288-0.144-0.384-0.863-0.096-1.199l1.199-0.145c2.785-0.336,2.881-0.96,2.881-6V195.712z
		 M246.589,202.577c0,0.864,0,1.392,0.144,1.584c0.145,0.144,0.864,0.24,3.313,0.24c1.729,0,3.553-0.192,4.944-1.248
		c1.296-1.009,2.4-2.688,2.4-5.953c0-3.792-2.353-7.393-7.681-7.393c-2.977,0-3.12,0.192-3.12,1.536V202.577z"/>
</g>
<g enable-background="new    ">
	<path fill="#FFFFFF" d="M99.782,243.018c0.264,0.168,0.36,0.456,0.36,0.769c0,0.239-0.072,0.456-0.192,0.6l-5.593,0.528
		c-0.264-0.216-0.36-0.528-0.36-0.769c0-0.239,0.072-0.456,0.192-0.6L99.782,243.018z"/>
	<path fill="#FFFFFF" d="M113.486,239.586c0.216,0.527,0.384,1.296,0.384,1.943c-0.096,0.168-0.456,0.217-0.576,0.072
		c-0.408-1.056-1.128-1.752-2.112-1.752c-0.936,0-1.536,0.6-1.536,1.464c0,0.984,1.008,1.513,1.848,1.992
		c1.272,0.72,2.448,1.536,2.448,3.24c0,1.824-1.68,2.736-3.457,2.736c-1.128,0-1.968-0.24-2.568-0.72
		c-0.192-0.456-0.336-1.633-0.288-2.425c0.12-0.144,0.432-0.168,0.552-0.023c0.408,1.32,1.176,2.472,2.544,2.472
		c0.864,0,1.608-0.504,1.608-1.536c0-1.104-0.96-1.704-1.848-2.208c-1.392-0.792-2.376-1.632-2.376-2.952
		c0-1.752,1.44-2.736,3.264-2.736C112.382,239.153,113.27,239.394,113.486,239.586z"/>
	<path fill="#FFFFFF" d="M118.981,240.497c-0.408,0-0.432,0.072-0.432,0.576v4.488c0,1.393,0.168,2.665,1.752,2.665
		c0.24,0,0.456-0.048,0.648-0.12c0.216-0.072,0.528-0.336,0.6-0.336c0.192,0,0.288,0.264,0.24,0.408
		c-0.432,0.504-1.296,1.104-2.52,1.104c-2.064,0-2.496-1.152-2.496-2.592v-5.497c0-0.647-0.024-0.696-0.504-0.696h-0.672
		c-0.144-0.096-0.168-0.359-0.072-0.504c0.696-0.216,1.296-0.527,1.536-0.744c0.312-0.287,0.768-0.936,1.008-1.416
		c0.12-0.048,0.408-0.048,0.504,0.12v1.08c0,0.433,0.024,0.456,0.432,0.456h2.665c0.288,0.216,0.24,0.864,0.024,1.008H118.981z"/>
	<path fill="#FFFFFF" d="M125.846,245.418c0,1.656,0.408,2.761,2.232,2.761c0.648,0,1.417-0.265,1.944-0.721
		c0.312-0.288,0.48-0.647,0.48-1.392v-3.937c0-1.561-0.168-1.608-0.888-1.896l-0.312-0.12c-0.168-0.096-0.168-0.432,0.024-0.527
		c0.96-0.024,2.28-0.192,2.808-0.433c0.12,0.024,0.192,0.072,0.216,0.168c-0.048,0.456-0.072,1.2-0.072,2.088v4.033
		c0,1.896,0.072,2.616,0.744,2.616c0.288,0,0.6-0.049,0.936-0.12c0.144,0.12,0.168,0.6-0.024,0.695
		c-0.937,0.192-2.329,0.433-3.145,0.889c-0.12,0-0.24-0.072-0.288-0.168v-0.984c0-0.216-0.072-0.336-0.216-0.336
		c-0.72,0.456-1.896,1.248-3.313,1.248c-2.112,0-2.904-1.056-2.904-3v-4.009c0-1.512,0-1.728-0.72-2.04l-0.288-0.12
		c-0.144-0.12-0.12-0.456,0.048-0.527c1.104-0.024,2.04-0.24,2.568-0.433c0.144,0.024,0.216,0.072,0.24,0.168
		c-0.048,0.408-0.072,0.912-0.072,2.088V245.418z"/>
	<path fill="#FFFFFF" d="M144.494,245.442c0,1.896,0.023,2.784,0.695,2.784c0.265,0,0.672-0.12,1.032-0.24
		c0.169,0.048,0.192,0.647-0.024,0.768c-1.008,0.145-2.496,0.505-3.168,0.769c-0.144,0-0.264-0.072-0.264-0.192v-0.408
		c0-0.359,0-0.647-0.048-0.743h-0.097c-1.056,0.72-1.871,1.104-3.023,1.104c-2.665,0-4.441-2.088-4.441-4.608
		c0-3.36,2.544-5.521,5.808-5.521c0.816,0,1.345,0.12,1.609,0.216c0.119,0,0.144-0.144,0.144-0.336v-3.624
		c0-1.416-0.024-1.561-0.744-1.992l-0.24-0.145c-0.12-0.071-0.12-0.407,0-0.479c0.601-0.192,1.729-0.552,2.593-1.008
		c0.096,0,0.191,0.048,0.24,0.144c-0.024,0.72-0.072,1.92-0.072,2.977V245.442z M142.718,241.842c0-0.48-0.097-0.696-0.265-0.937
		c-0.359-0.504-1.08-1.008-2.016-1.008c-2.184,0-3.313,1.896-3.313,3.984c0,2.185,1.225,4.248,3.576,4.248
		c0.648,0,1.465-0.288,1.849-0.672c0.144-0.144,0.168-0.504,0.168-0.888V241.842z"/>
	<path fill="#FFFFFF" d="M148.885,242.058c0-0.936,0-1.056-0.648-1.488l-0.215-0.144c-0.097-0.097-0.097-0.36,0.023-0.433
		c0.552-0.191,1.92-0.815,2.473-1.176c0.119,0,0.215,0.048,0.239,0.145c-0.048,0.84-0.096,1.991-0.096,2.976v4.32
		c0,1.729,0.048,1.969,0.912,2.089l0.504,0.071c0.168,0.12,0.12,0.528-0.048,0.601c-0.721-0.048-1.416-0.072-2.256-0.072
		c-0.865,0-1.584,0.024-2.257,0.072c-0.168-0.072-0.216-0.48-0.048-0.601l0.504-0.071c0.889-0.12,0.912-0.36,0.912-2.089V242.058z
		 M150.877,235.217c0,0.864-0.6,1.248-1.271,1.248c-0.744,0-1.225-0.552-1.225-1.2c0-0.792,0.576-1.296,1.296-1.296
		S150.877,234.545,150.877,235.217z"/>
	<path fill="#FFFFFF" d="M163.525,244.122c0,3-2.064,5.16-5.064,5.16c-2.76,0-4.921-1.944-4.921-4.944
		c0-3.024,2.28-5.185,5.112-5.185C161.341,239.153,163.525,241.17,163.525,244.122z M158.365,239.873
		c-1.584,0-2.761,1.513-2.761,4.152c0,2.185,0.983,4.537,3.097,4.537c2.111,0,2.76-2.208,2.76-4.057
		C161.461,242.466,160.645,239.873,158.365,239.873z"/>
	<path fill="#FFFFFF" d="M176.917,243.018c0.264,0.168,0.36,0.456,0.36,0.769c0,0.239-0.072,0.456-0.192,0.6l-5.593,0.528
		c-0.264-0.216-0.359-0.528-0.359-0.769c0-0.239,0.071-0.456,0.191-0.6L176.917,243.018z"/>
</g>
<path d="M162.658,76.682l1.869,1.246l-0.935-2.804l-1.792-1.401l1.48-0.546l-0.701-1.714l-1.247-1.245l1.168-0.545l-1.013-1.843
	l1.168-1.039L160.633,65l-1.479-0.39l2.025-0.72L160.166,62h1.947L159,61.105v-1.324l-2.023-0.859l-1.443-2.1l-12.442,6.229
	l-3.182,4.777l-1.593,3.608l1.345-0.455l1.181,1.876l1.328-1.063l0.624,0.756L144,71.463v1.402l1-1.402V73.8l1.938-1.558l1.006,1.09
	l0.502-1.532l0.57,1.049c0.231-2.719,1.52-4.815,3.334-5.07c2.34-0.332,4.685,2.514,5.228,6.356
	c0.542,3.841-0.913,7.224-3.252,7.555c-0.763,0.108-1.522-0.127-2.224-0.618l0.353,1.604l1.325,2.882l2.025,1.402l1.168-1.324
	l1.479,1.635l0.502-1.325L160,87.274V85h1.178l-0.545-1.473l1.092,0.198l-0.857-2.275l1.791,0.419l-1.402-1.932l1.402-0.514
	L161.412,78h0.232l-0.545-1.633l1.014,1.066L162.658,76.682z"/>
<path d="M148.795,96.931c-1.168-1.402-3.738-7.71-3.738-12.384c0-4.672,0.7-8.645,0.7-8.645L142.7,60.716l-19.139,10.747
	c0,0,3.381,2.218,5.779,5.744c1.002-0.804,2.399-1.304,3.947-1.304c3.049,0,5.521,1.936,5.521,4.322
	c0,2.388-2.473,4.322-5.521,4.322c-0.498,0-0.979-0.056-1.438-0.152c0.54,4.293-0.343,4.826-0.343,4.826s9.833,5.374,4.682,15.187
	s-5.15,9.813-5.15,9.813l-12.149-2.156c0,0,16.322,5.661,18.792,6.362c2.469,0.701,3.871-0.234,7.143-5.841
	s4.906-8.879,5.374-10.514C150.664,100.436,149.963,98.333,148.795,96.931z"/>
<path d="M145.992,73.975l1.092-0.876l1.068,0.876l0.584-0.876l0.351,0.438l0.524-1.49c0,0,0.604-2.629,1.822-3.329
	c1.217-0.702,2.209,0,2.209,0s-2.162-0.292-2.57,1.402c-0.409,1.694-0.799,4.03,0.359,2.979c1.158-1.051,3.729-2.336,3.611,1.168
	s-1.051,5.666-2.453,5.374s-1.578-1.285-0.584-2.278c0.993-0.993,1.752-2.454,0.176-2.629c-1.578-0.175-2.629-0.292-2.746,0.409
	c-0.117,0.702-0.271,4.148,1.996,8.528c2.269,4.381,4.955,4.79,4.955,4.79s4.264-1.343,9.813,0c5.549,1.344,7.179,2.297,8.002,3.715
	c1.116,1.927,1.901,2.962,3.504,5.241c1.507,2.145,1.694,3.368,1.577,4.42c-0.117,1.051,0.072,1.343,0.072,1.343l19.979,10.656
	c0,0-3.71,13.633-14.421,23.948s-16.103,13.278-23.658,16.265c-7.556,2.987-5.698,2.014-5.698,2.014l-9.393-23.326
	c0,0,5.111-1.051,4.177-3.797c-0.935-2.745-3.651-9.346-4.353-10.688s-2.277-1.226-2.277-1.226s3.154-5.433,5.432-9.521
	c2.278-4.089,4.576-7.71,2.289-10.631c-2.289-2.921-4.041-6.367-4.742-10.865C145.992,81.51,147.398,77.876,145.992,73.975z"/>
<path d="M121.926,78.585l2.128-0.576L127,81.16v8.528l0.968,2.488c0,0-3.955-1.936-4.89-2.505c-0.935-0.568-0.985-1.97-0.518-3.021
	C123.027,85.599,121.926,78.585,121.926,78.585z"/>
<path d="M130.348,115.942c-1.634-0.573-1.763,0.757-2.23,2.425c-0.467,1.667-1.824,7.731-2.278,10.338
	c-0.44,2.535,0.748,3.088,2.357,3.543c1.691,0.479,2.329,0.453,2.329,0.453l-11.637,23.949c0,0-12.37-4.186-16.917-7.162
	c-4.548-2.978-6.45-4.391-6.45-4.391s5.376,2.416,12.853,1.364s9.579-7.594,9.579-7.594s-3.192-3.537-4.717-9.091
	c-1.647-6.002-0.588-14.19-0.588-14.19s0.166,7.978,2.385,12.3c2.22,4.322,3.037,5.141,3.855,5.959
	c0.817,0.817,1.755,0.104,2.297-2.181c0.507-2.136,3.701-17.651,3.701-17.651L130.348,115.942z"/>
<path d="M126.203,114.906c-0.051-0.014-5.08-1.459-6.933-2.12c-2.15-0.765-2.002-1.869-1.667-2.933
	c0.093-0.297,0.295-0.583,0.55-0.946c0.709-1.008,1.896-2.695,2.338-6.844c0.533-4.984-5.192-10.484-7.348-12.555
	c-0.291-0.279-0.51-0.491-0.633-0.623c-1.13-1.218,0.819-4.922,1.045-5.34l0.166-0.308l0.285,0.204
	c0.019,0.014,1.854,1.307,3.551,0.811c1.377-0.402,2.109-3.079,2.274-4.077l0.608,0.101c-0.026,0.162-0.677,3.975-2.71,4.568
	c-1.565,0.458-3.143-0.326-3.786-0.711c-0.741,1.459-1.567,3.702-0.981,4.333c0.118,0.127,0.33,0.331,0.609,0.599
	c2.214,2.128,8.098,7.781,7.533,13.064c-0.46,4.308-1.704,6.077-2.446,7.133c-0.225,0.32-0.402,0.572-0.467,0.777
	c-0.292,0.929-0.361,1.582,1.286,2.168c1.835,0.654,6.845,2.093,6.896,2.108L126.203,114.906z"/>
<path d="M89.315,140.016c-0.032-0.375-0.793-9.178-0.244-11.535c0.534-2.29,3.718-4.631,4.197-4.973l1.488-2.506l17.642-9.972
	c0.003-0.623,0.188-2.591,2.087-5.267c2.41-3.395,6.114-3.95,6.27-3.972l0.087,0.61c-0.036,0.004-3.603,0.547-5.854,3.718
	c-2.137,3.01-1.972,5.038-1.97,5.058l0.019,0.199l-0.174,0.099l-17.66,9.982l-1.527,2.517c-0.035,0.025-3.492,2.453-4.003,4.646
	c-0.528,2.263,0.25,11.251,0.257,11.341L89.315,140.016z"/>
<polygon points="94.542,129.159 93.201,123.797 93.798,123.647 94.949,128.253 112.318,119.243 112.603,119.79 "/>
<path d="M172.168,37.597c-2.396-6.467-14.366-8.419-29.938-5.877c-0.069-1.034-0.097-2.167-0.057-3.402
	c0.234-6.932,1.042-12.951,0.483-15.744c-0.005-0.018-0.011-0.034-0.017-0.052c-0.045-0.317-0.113-0.63-0.226-0.932
	c-2.292-6.186-17.789-6.148-34.614,0.084c-16.826,6.232-28.608,16.299-26.316,22.485c0.323,0.872,0.916,1.615,1.729,2.24
	c0.244,0.211,0.503,0.396,0.774,0.524c0.009,0.004,0.022,0.012,0.031,0.017c0.068,0.039,0.14,0.077,0.21,0.115
	c1.889,1.094,10.17,7.116,13.613,11.446c-12.632,8-19.837,16.871-17.523,23.117c3.454,9.326,26.815,9.271,52.178-0.125
	C157.861,62.099,175.622,46.923,172.168,37.597z M92.969,34.554c-5.412,0-8.031-1.104-8.243-1.198l-0.06-1.18
	c0.104,0.044,10.684,4.462,34.109-4.76c15.905-6.262,19.887-10.926,20.844-13.148c0.479-1.112,0.25-1.712,0.247-1.718l0.874,0.372
	c0.035,0.08,0.326,0.813-0.211,2.12c-1.166,2.835-5.792,7.49-21.22,13.564C107.229,33.362,98.592,34.554,92.969,34.554z
	 M128.778,62.852c-11.579,4.289-22.243,4.315-23.82,0.058c-0.353-0.952-2.425-4.584-2.86-5.762c-0.054-0.143-0.094-0.29-0.125-0.439
	c2.692,3.461,12.877,3.15,23.873-0.923c11.21-4.153,19.234-10.722,18.693-15.106c0.129,0.199,0.242,0.406,0.324,0.628
	c0.408,1.102,1.646,5.046,2.025,6.07C148.464,51.636,140.355,58.563,128.778,62.852z"/>
<path d="M145.073,18.552c-0.052,0.938-0.118,1.932-0.188,2.988c-0.137,2.078-0.293,4.434-0.375,6.855
	c-0.007,0.208-0.012,0.416-0.016,0.625c3.523-0.475,6.857-0.715,9.939-0.715c10.822,0,17.898,3.012,19.924,8.481
	c0.586,1.583,0.716,3.285,0.408,5.075c15.092,11.59,24.825,29.815,24.825,50.315c0,35.018-28.387,63.404-63.404,63.404
	s-63.404-28.387-63.404-63.404c0-8.661,1.739-16.916,4.883-24.437c0.434-3.172,2.277-6.625,5.392-10.173
	c2.689-4.12,5.842-7.91,9.388-11.291c-3.017-2.717-6.66-5.427-8.547-6.681c-13.506,13.431-21.868,32.03-21.868,52.582
	c0,40.956,33.2,74.157,74.156,74.157c40.956,0,74.157-33.201,74.157-74.157C210.346,54.228,181.839,22.942,145.073,18.552z"/>
</svg>
