<?xml version="1.0" encoding="utf-8"?>
<!-- Generator: Adobe Illustrator 16.0.0, SVG Export Plug-In . SVG Version: 6.00 Build 0)  -->
<!DOCTYPE svg PUBLIC "-//W3C//DTD SVG 1.1//EN" "http://www.w3.org/Graphics/SVG/1.1/DTD/svg11.dtd">
<svg version="1.1" xmlns="http://www.w3.org/2000/svg" xmlns:xlink="http://www.w3.org/1999/xlink" x="0px" y="0px" width="273.5px"
	 height="253px" viewBox="0 0 273.5 253" enable-background="new 0 0 273.5 253" xml:space="preserve">
<g id="Layer_2" display="none">
	<rect display="inline" width="600" height="600"/>
</g>
<g id="Layer_3">
	<path d="M145.073,18.552c-0.052,0.937-0.118,1.932-0.188,2.988c-0.137,2.078-0.293,4.434-0.375,6.855
		c-0.007,0.208-0.012,0.416-0.016,0.625c3.523-0.475,6.857-0.715,9.939-0.715c10.823,0,17.899,3.012,19.924,8.481
		c0.586,1.583,0.716,3.285,0.408,5.075c15.093,11.59,24.826,29.815,24.826,50.315c0,35.018-28.387,63.404-63.404,63.404
		s-63.404-28.386-63.404-63.404c0-8.661,1.739-16.916,4.883-24.437c0.434-3.172,2.277-6.625,5.392-10.173
		c2.689-4.12,5.842-7.91,9.388-11.291c-3.017-2.717-6.66-5.427-8.547-6.681c-13.506,13.431-21.868,32.03-21.868,52.582
		c0,40.956,33.2,74.157,74.156,74.157c40.956,0,74.157-33.201,74.157-74.157C210.345,54.228,181.839,22.942,145.073,18.552z"/>
	<path fill="#FFFFFF" d="M147.15,14.475c-0.026-1.028-0.105-1.953-0.27-2.776l-0.009-0.042c-0.094-0.559-0.229-1.072-0.411-1.564
		c-1.255-3.39-5.017-7.431-15.809-7.431c-7.053,0-15.699,1.764-24.348,4.967c-8.602,3.187-16.284,7.457-21.63,12.025
		c-8.262,7.059-8.493,12.597-7.231,16.003c0.37,0.996,0.913,1.908,1.623,2.729c-13.783,14.612-21.346,33.61-21.346,53.79
		c0,43.269,35.201,78.47,78.469,78.47c43.269,0,78.47-35.202,78.47-78.47C214.658,52.992,185.747,19.867,147.15,14.475z"/>
	<path d="M172.168,37.597c-2.396-6.467-14.366-8.419-29.938-5.877c-0.069-1.034-0.096-2.167-0.056-3.402
		c0.234-6.932,1.042-12.951,0.483-15.744c-0.004-0.018-0.011-0.034-0.016-0.052c-0.046-0.317-0.114-0.63-0.226-0.932
		c-2.292-6.186-17.789-6.148-34.614,0.084c-16.826,6.232-28.608,16.299-26.316,22.485c0.323,0.872,0.916,1.615,1.729,2.24
		c0.244,0.211,0.503,0.396,0.774,0.524c0.009,0.004,0.022,0.012,0.031,0.017c0.068,0.039,0.14,0.077,0.21,0.115
		c1.889,1.094,10.17,7.116,13.613,11.446c-12.632,8-19.837,16.871-17.523,23.117c3.454,9.326,26.815,9.271,52.178-0.125
		C157.861,62.099,175.622,46.923,172.168,37.597z M92.969,34.554c-5.412,0-8.031-1.104-8.243-1.198l-0.06-1.18
		c0.104,0.044,10.684,4.462,34.109-4.76c15.905-6.262,19.887-10.926,20.844-13.148c0.479-1.112,0.25-1.712,0.247-1.718l0.874,0.372
		c0.035,0.08,0.327,0.813-0.21,2.12c-1.166,2.835-5.792,7.49-21.221,13.564C107.229,33.362,98.592,34.554,92.969,34.554z
		 M128.778,62.852c-11.579,4.289-22.243,4.315-23.82,0.058c-0.353-0.952-2.425-4.584-2.86-5.762
		c-0.054-0.143-0.094-0.29-0.125-0.439c2.692,3.461,12.877,3.15,23.873-0.923c11.21-4.153,19.234-10.722,18.693-15.106
		c0.129,0.199,0.242,0.406,0.324,0.628c0.408,1.102,1.646,5.046,2.025,6.07C148.464,51.636,140.356,58.563,128.778,62.852z"/>
</g>
<g id="Layer_1">
	<path d="M172.168,37.597c-2.396-6.467-14.366-8.419-29.938-5.877c-0.069-1.034-0.096-2.167-0.056-3.402
		c0.234-6.932,1.042-12.951,0.483-15.744c-0.004-0.018-0.011-0.034-0.016-0.052c-0.046-0.317-0.114-0.63-0.226-0.932
		c-2.292-6.186-17.789-6.148-34.614,0.084c-16.826,6.232-28.608,16.299-26.316,22.485c0.323,0.872,0.916,1.615,1.729,2.24
		c0.244,0.211,0.503,0.396,0.774,0.524c0.009,0.004,0.022,0.012,0.031,0.017c0.068,0.039,0.14,0.077,0.21,0.115
		c1.889,1.094,10.17,7.116,13.613,11.446c-12.632,8-19.837,16.871-17.523,23.117c3.454,9.326,26.815,9.271,52.178-0.125
		C157.861,62.099,175.622,46.923,172.168,37.597z M92.969,34.554c-5.412,0-8.031-1.104-8.243-1.198l-0.06-1.18
		c0.104,0.044,10.684,4.462,34.109-4.76c15.905-6.262,19.887-10.926,20.844-13.148c0.479-1.112,0.25-1.712,0.247-1.718l0.874,0.372
		c0.035,0.08,0.327,0.813-0.21,2.12c-1.166,2.835-5.792,7.49-21.221,13.564C107.229,33.362,98.592,34.554,92.969,34.554z
		 M128.778,62.852c-11.579,4.289-22.243,4.315-23.82,0.058c-0.353-0.952-2.425-4.584-2.86-5.762
		c-0.054-0.143-0.094-0.29-0.125-0.439c2.692,3.461,12.877,3.15,23.873-0.923c11.21-4.153,19.234-10.722,18.693-15.106
		c0.129,0.199,0.242,0.406,0.324,0.628c0.408,1.102,1.646,5.046,2.025,6.07C148.464,51.636,140.356,58.563,128.778,62.852z"/>
	<text transform="matrix(1 0 0 1 0.4463 220.1465)"><tspan x="0" y="0" fill="#FFFFFF" font-family="'AGaramondPro-Regular'" font-size="48">MADHATER</tspan><tspan x="92.783" y="28.8" fill="#FFFFFF" font-family="'AGaramondPro-Regular'" font-size="24">- studio -</tspan></text>
	<path d="M162.658,76.682l1.87,1.246l-0.935-2.804l-1.792-1.401l1.48-0.546l-0.701-1.714l-1.247-1.245l1.168-0.545l-1.012-1.843
		l1.167-1.039L160.633,65l-1.479-0.39l2.025-0.72L160.166,62h1.947L159,61.105v-1.324l-2.023-0.859l-1.444-2.1l-12.442,6.23
		l-3.182,4.777l-1.592,3.608l1.344-0.455l1.181,1.876l1.328-1.063l0.624,0.756L144,71.463v1.402l1-1.402V73.8l1.938-1.558
		l1.005,1.09l0.503-1.532l0.57,1.049c0.231-2.719,1.519-4.815,3.334-5.07c2.34-0.332,4.684,2.514,5.227,6.356
		c0.542,3.841-0.913,7.224-3.252,7.555c-0.763,0.108-1.523-0.127-2.223-0.618l0.352,1.605l1.325,2.882l2.025,1.402l1.168-1.324
		l1.479,1.635l0.502-1.325L160,87.274V85h1.178l-0.545-1.473l1.091,0.198l-0.857-2.275l1.791,0.419l-1.402-1.932l1.402-0.514
		L161.412,78h0.233l-0.545-1.633l1.013,1.066L162.658,76.682z"/>
	<path d="M148.795,96.931c-1.168-1.402-3.739-7.71-3.739-12.384c0-4.672,0.701-8.645,0.701-8.645L142.7,60.716l-19.139,10.747
		c0,0,3.381,2.218,5.779,5.744c1.002-0.804,2.399-1.304,3.947-1.304c3.049,0,5.521,1.936,5.521,4.322
		c0,2.388-2.472,4.322-5.521,4.322c-0.498,0-0.979-0.056-1.438-0.152c0.54,4.293-0.343,4.826-0.343,4.826s9.833,5.374,4.682,15.187
		s-5.15,9.813-5.15,9.813l-12.149-2.156c0,0,16.322,5.661,18.792,6.362c2.47,0.701,3.872-0.234,7.143-5.841
		c3.271-5.607,4.906-8.879,5.374-10.514C150.664,100.436,149.963,98.333,148.795,96.931z"/>
	<path d="M145.992,73.975l1.092-0.876l1.069,0.876l0.583-0.876l0.351,0.438l0.525-1.49c0,0,0.604-2.629,1.821-3.329
		c1.217-0.702,2.209,0,2.209,0s-2.161-0.292-2.57,1.402c-0.409,1.694-0.798,4.03,0.36,2.979c1.158-1.051,3.728-2.336,3.611,1.168
		s-1.051,5.666-2.453,5.374c-1.402-0.292-1.578-1.285-0.584-2.278c0.993-0.993,1.752-2.454,0.175-2.629
		c-1.577-0.175-2.628-0.292-2.745,0.409c-0.117,0.702-0.272,4.148,1.996,8.528c2.268,4.381,4.955,4.79,4.955,4.79
		s4.264-1.343,9.813,0c5.549,1.344,7.179,2.297,8.002,3.715c1.117,1.927,1.902,2.962,3.504,5.241
		c1.507,2.145,1.694,3.368,1.577,4.42c-0.117,1.051,0.073,1.343,0.073,1.343l19.978,10.656c0,0-3.71,13.633-14.421,23.948
		s-16.103,13.278-23.658,16.265c-7.556,2.987-5.699,2.014-5.699,2.014l-9.392-23.326c0,0,5.111-1.052,4.177-3.797
		c-0.934-2.745-3.651-9.346-4.352-10.689c-0.702-1.343-2.278-1.226-2.278-1.226s3.154-5.433,5.432-9.521
		c2.278-4.089,4.576-7.71,2.288-10.631c-2.288-2.921-4.04-6.367-4.742-10.865C145.992,81.51,147.398,77.876,145.992,73.975z"/>
	<path d="M121.926,78.585l2.128-0.576L127,81.16v8.528l0.968,2.488c0,0-3.955-1.936-4.89-2.505c-0.935-0.568-0.985-1.97-0.518-3.021
		C123.027,85.599,121.926,78.585,121.926,78.585z"/>
	<path d="M130.348,115.942c-1.634-0.573-1.763,0.757-2.23,2.425c-0.467,1.667-1.824,7.731-2.278,10.338
		c-0.44,2.535,0.748,3.088,2.357,3.543c1.691,0.478,2.329,0.453,2.329,0.453l-11.637,23.95c0,0-12.37-4.186-16.917-7.163
		c-4.548-2.977-6.45-4.39-6.45-4.39s5.376,2.415,12.853,1.364c7.477-1.052,9.579-7.594,9.579-7.594s-3.192-3.537-4.717-9.09
		c-1.647-6.003-0.588-14.191-0.588-14.191s0.166,7.978,2.385,12.3c2.22,4.322,3.037,5.14,3.855,5.958
		c0.817,0.818,1.755,0.105,2.297-2.18c0.507-2.136,3.701-17.651,3.701-17.651L130.348,115.942z"/>
	<path d="M126.203,114.906c-0.051-0.014-5.08-1.459-6.933-2.12c-2.15-0.765-2.002-1.869-1.667-2.933
		c0.093-0.297,0.295-0.583,0.55-0.946c0.709-1.008,1.896-2.695,2.338-6.844c0.533-4.984-5.192-10.484-7.348-12.555
		c-0.291-0.279-0.51-0.491-0.633-0.623c-1.13-1.218,0.819-4.922,1.045-5.34l0.166-0.308l0.285,0.204
		c0.019,0.014,1.854,1.307,3.551,0.811c1.377-0.402,2.109-3.079,2.274-4.077l0.608,0.101c-0.026,0.162-0.677,3.975-2.71,4.568
		c-1.565,0.458-3.143-0.326-3.786-0.711c-0.741,1.459-1.567,3.702-0.981,4.333c0.118,0.127,0.33,0.331,0.609,0.599
		c2.214,2.128,8.098,7.781,7.533,13.064c-0.46,4.308-1.704,6.077-2.446,7.133c-0.225,0.32-0.402,0.572-0.467,0.777
		c-0.292,0.929-0.361,1.582,1.286,2.168c1.835,0.654,6.845,2.093,6.896,2.108L126.203,114.906z"/>
	<path d="M89.315,140.015c-0.032-0.374-0.793-9.177-0.244-11.535c0.534-2.289,3.718-4.631,4.197-4.972l1.488-2.506l17.642-9.972
		c0.003-0.623,0.188-2.591,2.087-5.267c2.41-3.395,6.114-3.95,6.27-3.972l0.087,0.61c-0.036,0.004-3.603,0.547-5.854,3.718
		c-2.137,3.01-1.972,5.038-1.97,5.058l0.019,0.199l-0.174,0.099l-17.66,9.982l-1.527,2.517c-0.035,0.025-3.492,2.453-4.003,4.646
		c-0.528,2.263,0.25,11.251,0.257,11.341L89.315,140.015z"/>
	<polygon points="94.542,129.159 93.201,123.797 93.798,123.647 94.949,128.253 112.318,119.243 112.603,119.79 	"/>
	<path d="M172.168,37.597c-2.396-6.467-14.366-8.419-29.938-5.877c-0.069-1.034-0.096-2.167-0.056-3.402
		c0.234-6.932,1.042-12.951,0.483-15.744c-0.004-0.018-0.011-0.034-0.016-0.052c-0.046-0.317-0.114-0.63-0.226-0.932
		c-2.292-6.186-17.789-6.148-34.614,0.084c-16.826,6.232-28.608,16.299-26.316,22.485c0.323,0.872,0.916,1.615,1.729,2.24
		c0.244,0.211,0.503,0.396,0.774,0.524c0.009,0.004,0.022,0.012,0.031,0.017c0.068,0.039,0.14,0.077,0.21,0.115
		c1.889,1.094,10.17,7.116,13.613,11.446c-12.632,8-19.837,16.871-17.523,23.117c3.454,9.326,26.815,9.271,52.178-0.125
		C157.861,62.099,175.622,46.923,172.168,37.597z M92.969,34.554c-5.412,0-8.031-1.104-8.243-1.198l-0.06-1.18
		c0.104,0.044,10.684,4.462,34.109-4.76c15.905-6.262,19.887-10.926,20.844-13.148c0.479-1.112,0.25-1.712,0.247-1.718l0.874,0.372
		c0.035,0.08,0.327,0.813-0.21,2.12c-1.166,2.835-5.792,7.49-21.221,13.564C107.229,33.362,98.592,34.554,92.969,34.554z
		 M128.778,62.852c-11.579,4.289-22.243,4.315-23.82,0.058c-0.353-0.952-2.425-4.584-2.86-5.762
		c-0.054-0.143-0.094-0.29-0.125-0.439c2.692,3.461,12.877,3.15,23.873-0.923c11.21-4.153,19.234-10.722,18.693-15.106
		c0.129,0.199,0.242,0.406,0.324,0.628c0.408,1.102,1.646,5.046,2.025,6.07C148.464,51.636,140.356,58.563,128.778,62.852z"/>
	<path d="M145.073,18.552c-0.052,0.937-0.118,1.932-0.188,2.988c-0.137,2.078-0.293,4.434-0.375,6.855
		c-0.007,0.208-0.012,0.416-0.016,0.625c3.523-0.475,6.857-0.715,9.939-0.715c10.823,0,17.899,3.012,19.924,8.481
		c0.586,1.583,0.716,3.285,0.408,5.075c15.093,11.59,24.826,29.815,24.826,50.315c0,35.018-28.387,63.404-63.404,63.404
		s-63.404-28.386-63.404-63.404c0-8.661,1.739-16.916,4.883-24.437c0.434-3.172,2.277-6.625,5.392-10.173
		c2.689-4.12,5.842-7.91,9.388-11.291c-3.017-2.717-6.66-5.427-8.547-6.681c-13.506,13.431-21.868,32.03-21.868,52.582
		c0,40.956,33.2,74.157,74.156,74.157c40.956,0,74.157-33.201,74.157-74.157C210.345,54.228,181.839,22.942,145.073,18.552z"/>
</g>
</svg>
