<?xml version="1.0" encoding="utf-8"?>
<!-- Generator: Adobe Illustrator 16.0.0, SVG Export Plug-In . SVG Version: 6.00 Build 0)  -->
<!DOCTYPE svg PUBLIC "-//W3C//DTD SVG 1.1//EN" "http://www.w3.org/Graphics/SVG/1.1/DTD/svg11.dtd">
<svg version="1.1" xmlns="http://www.w3.org/2000/svg" xmlns:xlink="http://www.w3.org/1999/xlink" x="0px" y="0px" width="300px"
	 height="250px" viewBox="0 0 300 250" enable-background="new 0 0 300 250" xml:space="preserve">
<g id="Layer_2" display="none">
	<rect display="inline" width="300" height="250"/>
</g>
<g id="Layer_1">
	<path d="M184.666,35.68c-2.374-6.411-14.242-8.348-29.68-5.828c-0.069-1.025-0.095-2.147-0.055-3.373
		c0.231-6.872,1.033-12.838,0.479-15.607c-0.004-0.018-0.011-0.034-0.016-0.052c-0.046-0.315-0.113-0.625-0.224-0.924
		c-2.271-6.132-17.635-6.096-34.315,0.083c-16.681,6.179-28.363,16.159-26.09,22.292c0.32,0.864,0.908,1.601,1.713,2.22
		c0.241,0.21,0.5,0.392,0.767,0.52c0.009,0.004,0.023,0.012,0.033,0.018c0.066,0.039,0.138,0.076,0.208,0.114
		c1.873,1.083,10.083,7.054,13.497,11.347c-12.523,7.932-19.668,16.726-17.374,22.918c3.425,9.245,26.585,9.19,51.729-0.124
		C170.483,59.97,188.09,44.925,184.666,35.68z M106.149,32.663c-5.366,0-7.962-1.094-8.171-1.188l-0.06-1.169
		c0.103,0.043,10.591,4.424,33.814-4.72c15.768-6.208,19.716-10.831,20.666-13.035c0.475-1.102,0.246-1.697,0.245-1.703l0.866,0.368
		c0.034,0.079,0.324,0.806-0.208,2.103c-1.155,2.811-5.742,7.425-21.038,13.447C120.287,31.48,111.724,32.663,106.149,32.663z
		 M141.65,60.717c-11.479,4.252-22.052,4.278-23.615,0.057c-0.35-0.944-2.403-4.545-2.834-5.713
		c-0.053-0.141-0.094-0.286-0.125-0.435c2.669,3.431,12.767,3.123,23.668-0.915c11.113-4.117,19.068-10.629,18.531-14.976
		c0.128,0.197,0.239,0.403,0.321,0.623c0.404,1.092,1.632,5.002,2.008,6.018C161.167,49.598,153.128,56.465,141.65,60.717z"/>
	<path fill="#FFFFFF" d="M148.996,165.75c-41.885,0-75.96-34.076-75.96-75.962c0-19.45,7.337-37.942,20.662-52.069l1.136-1.204
		l-1.083-1.252c-0.56-0.647-0.988-1.369-1.276-2.144c-1.048-2.829-0.746-7.524,6.641-13.836c5.14-4.391,12.559-8.508,20.891-11.596
		c8.375-3.102,16.721-4.81,23.5-4.81c9.646,0,12.913,3.355,13.956,6.17c0.14,0.383,0.245,0.782,0.318,1.219l0.024,0.115
		c0.129,0.645,0.203,1.438,0.228,2.422l0.042,1.553l1.538,0.215c18.084,2.527,34.664,11.526,46.682,25.341
		c12.036,13.834,18.666,31.548,18.666,49.875C224.958,131.674,190.881,165.75,148.996,165.75z"/>
	<path d="M157.804,16.798c-0.051,0.928-0.118,1.916-0.187,2.962c-0.136,2.061-0.29,4.396-0.371,6.796
		c-0.007,0.207-0.012,0.414-0.015,0.62c3.492-0.472,6.798-0.708,9.853-0.708c10.729,0,17.745,2.985,19.753,8.408
		c0.581,1.568,0.709,3.257,0.404,5.031c14.963,11.491,24.612,29.559,24.612,49.881c0,34.717-28.143,62.858-62.858,62.858
		c-34.715,0-62.857-28.142-62.857-62.858c0-8.585,1.724-16.769,4.841-24.226c0.43-3.144,2.256-6.568,5.346-10.085
		c2.665-4.085,5.791-7.842,9.306-11.194c-2.99-2.694-6.603-5.381-8.473-6.624c-13.389,13.316-21.68,31.753-21.68,52.128
		c0,40.603,32.914,73.52,73.517,73.52c40.603,0,73.518-32.917,73.518-73.52C222.514,52.167,194.254,21.151,157.804,16.798z"/>
	<g>
		<path fill="#FFFFFF" d="M20.573,202.541c1.228,2.512,2.404,4.97,3.687,7.321h0.106c1.442-2.512,2.778-5.29,4.114-8.016
			l5.023-10.204c2.403-4.861,3.953-7.799,4.059-10.258c1.817,0.161,2.939,0.161,4.007,0.161c1.335,0,3.099-0.053,4.755-0.161
			c0.321,0.214,0.321,1.123,0.054,1.335l-1.122,0.108c-3.366,0.321-3.793,1.335-3.74,5.074c0.106,5.664,0.161,15.548,0.588,23.241
			c0.16,2.671,0.107,4.114,2.617,4.328l1.71,0.161c0.32,0.321,0.268,1.123-0.107,1.335c-2.189-0.106-4.381-0.16-6.303-0.16
			c-1.871,0-4.275,0.053-6.465,0.16c-0.374-0.267-0.428-1.014-0.108-1.335l1.551-0.161c2.618-0.268,2.618-1.122,2.618-4.541
			l-0.161-22.279h-0.106c-0.374,0.587-2.405,4.861-3.473,6.945l-4.755,9.35c-2.405,4.702-4.809,9.724-5.771,12.182
			c-0.106,0.159-0.32,0.214-0.534,0.214c-0.106,0-0.374-0.055-0.48-0.214c-0.908-2.832-3.473-8.068-4.702-10.686l-4.809-10.311
			c-1.122-2.458-2.243-5.236-3.419-7.694H9.3c-0.214,3.313-0.374,6.411-0.534,9.51c-0.161,3.259-0.374,8.013-0.374,12.556
			c0,3.954,0.32,4.809,2.404,4.968l2.03,0.161c0.374,0.321,0.321,1.175-0.053,1.335c-1.816-0.106-3.899-0.16-5.93-0.16
			c-1.709,0-3.633,0.053-5.449,0.16c-0.321-0.267-0.429-1.068-0.107-1.335l1.175-0.161c2.244-0.32,2.993-0.641,3.312-4.381
			c0.321-3.525,0.588-6.465,0.909-11.753c0.268-4.435,0.481-8.976,0.588-11.915c0.106-3.367-0.32-4.167-3.58-4.594l-0.854-0.108
			c-0.268-0.321-0.214-1.121,0.214-1.335c1.603,0.108,2.885,0.161,4.22,0.161c1.229,0,2.671,0,4.435-0.161
			c-0.214,2.083,1.122,5.396,2.778,8.815L20.573,202.541z"/>
		<path fill="#FFFFFF" d="M70.255,204.412c-0.374-1.176-0.588-1.336-2.191-1.336h-8.067c-1.336,0-1.657,0.16-2.03,1.282l-1.871,5.61
			c-0.801,2.404-1.175,3.846-1.175,4.434c0,0.642,0.267,0.962,1.549,1.069l1.763,0.161c0.375,0.267,0.375,1.123-0.107,1.335
			c-1.389-0.106-3.045-0.106-5.556-0.16c-1.763,0-3.687,0.106-5.129,0.16c-0.321-0.212-0.428-1.068-0.106-1.335l1.763-0.161
			c1.281-0.106,2.458-0.694,3.205-2.619c0.962-2.457,2.458-5.93,4.702-11.913l5.449-14.427c0.748-1.922,1.068-2.938,0.908-3.793
			c1.282-0.374,2.191-1.335,2.779-2.03c0.32,0,0.694,0.108,0.8,0.481c0.694,2.351,1.549,4.809,2.351,7.159l7.319,21.478
			c1.549,4.594,2.244,5.395,4.541,5.663l1.443,0.161c0.374,0.267,0.266,1.123,0,1.335c-2.191-0.106-4.061-0.16-6.464-0.16
			c-2.565,0-4.595,0.106-6.145,0.16c-0.427-0.212-0.481-1.068-0.106-1.335l1.549-0.161c1.121-0.106,1.87-0.427,1.87-0.962
			c0-0.587-0.268-1.549-0.696-2.831L70.255,204.412z M59.676,199.656c-0.427,1.228-0.374,1.283,1.123,1.283h6.571
			c1.55,0,1.657-0.214,1.176-1.657l-2.886-8.709c-0.427-1.282-0.909-2.725-1.228-3.366h-0.108c-0.16,0.268-0.694,1.55-1.281,3.153
			L59.676,199.656z"/>
		<path fill="#FFFFFF" d="M88.63,188.49c0-3.74-0.268-4.862-2.511-5.182l-1.175-0.16c-0.428-0.268-0.48-1.123,0.053-1.336
			c4.542-0.267,8.869-0.428,13.411-0.428c4.487,0,8.281,0.32,11.753,1.603c7.213,2.619,10.846,8.709,10.846,15.761
			c0,6.786-3.26,12.609-9.351,15.922c-3.473,1.87-7.854,2.564-11.967,2.564c-3.419,0-6.839-0.427-8.708-0.427
			c-2.245,0-4.167,0.053-6.679,0.16c-0.32-0.16-0.427-1.014-0.106-1.335l1.229-0.161c3.099-0.427,3.205-1.069,3.205-6.677V188.49z
			 M93.011,207.563c0,2.831,0.16,4.541,1.068,5.823c1.175,1.657,3.206,2.19,6.572,2.19c10.364,0,15.013-6.784,15.013-16.721
			c0-5.878-2.832-15.815-16.829-15.815c-3.153,0-4.862,0.427-5.291,0.748c-0.427,0.321-0.534,1.657-0.534,4.061V207.563z"/>
		<path fill="#FFFFFF" d="M137.352,199.55c-2.565,0-2.671,0.106-2.671,1.709v7.534c0,5.608,0.268,6.357,3.258,6.677l1.55,0.161
			c0.32,0.213,0.214,1.175-0.107,1.335c-2.886-0.106-4.702-0.16-6.785-0.16c-2.298,0-4.114,0.106-6.197,0.16
			c-0.321-0.16-0.429-1.014-0.108-1.335l0.909-0.161c2.992-0.534,3.099-1.069,3.099-6.677v-19.235c0-5.609-0.374-6.518-3.152-6.731
			l-1.389-0.108c-0.32-0.213-0.214-1.175,0.106-1.335c2.619,0.054,4.435,0.161,6.732,0.161c2.083,0,3.899-0.053,6.197-0.161
			c0.32,0.161,0.427,1.123,0.106,1.335l-1.015,0.108c-3.099,0.321-3.205,1.122-3.205,6.731v6.144c0,1.656,0.106,1.709,2.671,1.709
			h15.28c2.565,0,2.671-0.053,2.671-1.709v-6.144c0-5.609-0.106-6.41-3.258-6.731l-1.015-0.108
			c-0.321-0.213-0.214-1.175,0.107-1.335c2.457,0.108,4.273,0.161,6.464,0.161c2.083,0,3.9-0.053,6.304-0.161
			c0.321,0.161,0.429,1.123,0.108,1.335l-1.123,0.108c-3.099,0.321-3.205,1.122-3.205,6.731v19.235c0,5.608,0.106,6.303,3.205,6.677
			l1.283,0.161c0.321,0.213,0.214,1.175-0.106,1.335c-2.565-0.106-4.381-0.16-6.465-0.16c-2.191,0-4.114,0.053-6.464,0.16
			c-0.321-0.16-0.428-1.014-0.107-1.335l1.015-0.161c3.258-0.534,3.258-1.069,3.258-6.677v-7.534c0-1.603-0.106-1.709-2.671-1.709
			H137.352z"/>
		<path fill="#FFFFFF" d="M188.264,204.412c-0.374-1.176-0.588-1.336-2.191-1.336h-8.067c-1.336,0-1.657,0.16-2.03,1.282
			l-1.871,5.61c-0.801,2.404-1.175,3.846-1.175,4.434c0,0.642,0.267,0.962,1.549,1.069l1.763,0.161
			c0.375,0.267,0.375,1.123-0.107,1.335c-1.389-0.106-3.046-0.106-5.556-0.16c-1.763,0-3.688,0.106-5.129,0.16
			c-0.32-0.212-0.427-1.068-0.107-1.335l1.763-0.161c1.282-0.106,2.458-0.694,3.206-2.619c0.961-2.457,2.458-5.93,4.702-11.913
			l5.45-14.427c0.748-1.922,1.068-2.938,0.907-3.793c1.283-0.374,2.191-1.335,2.779-2.03c0.321,0,0.695,0.108,0.801,0.481
			c0.694,2.351,1.549,4.809,2.351,7.159l7.319,21.478c1.55,4.594,2.244,5.395,4.541,5.663l1.443,0.161
			c0.374,0.267,0.267,1.123,0,1.335c-2.191-0.106-4.06-0.16-6.464-0.16c-2.565,0-4.595,0.106-6.144,0.16
			c-0.427-0.212-0.482-1.068-0.106-1.335l1.549-0.161c1.121-0.106,1.87-0.427,1.87-0.962c0-0.587-0.267-1.549-0.695-2.831
			L188.264,204.412z M177.686,199.656c-0.428,1.228-0.375,1.283,1.122,1.283h6.571c1.55,0,1.657-0.214,1.176-1.657l-2.886-8.709
			c-0.427-1.282-0.908-2.725-1.228-3.366h-0.108c-0.159,0.268-0.694,1.55-1.282,3.153L177.686,199.656z"/>
		<path fill="#FFFFFF" d="M215.724,208.793c0,5.608,0.106,6.41,3.205,6.677l1.709,0.161c0.321,0.213,0.213,1.175-0.107,1.335
			c-3.045-0.106-4.862-0.16-7-0.16c-2.136,0-4.007,0.053-7.426,0.16c-0.321-0.16-0.428-1.068,0-1.335l1.924-0.161
			c3.045-0.268,3.312-1.069,3.312-6.677v-23.882c0-1.657,0-1.71-1.603-1.71H206.8c-2.297,0-5.236,0.107-6.572,1.336
			c-1.282,1.175-1.816,2.35-2.404,3.686c-0.427,0.32-1.175,0.054-1.388-0.375c0.855-2.404,1.656-5.823,2.03-7.96
			c0.161-0.106,0.855-0.16,1.015,0c0.321,1.71,2.083,1.656,4.541,1.656h21.639c2.885,0,3.365-0.107,4.167-1.497
			c0.268-0.107,0.854-0.053,0.962,0.161c-0.588,2.189-0.962,6.518-0.802,8.121c-0.213,0.428-1.123,0.428-1.39,0.107
			c-0.159-1.336-0.534-3.313-1.335-3.9c-1.228-0.909-3.258-1.336-6.197-1.336h-3.794c-1.603,0-1.548,0.053-1.548,1.816V208.793z"/>
		<path fill="#FFFFFF" d="M238.159,189.558c0-5.556-0.106-6.357-3.26-6.731l-0.854-0.108c-0.32-0.213-0.214-1.175,0.106-1.335
			c2.297,0.108,4.114,0.161,6.305,0.161H250.5c3.419,0,6.571,0,7.212-0.161c0.32,0.908,0.641,4.755,0.855,7.106
			c-0.214,0.32-1.068,0.427-1.336,0.107c-0.801-2.512-1.282-4.381-4.06-5.076c-1.122-0.268-2.832-0.321-5.182-0.321h-3.847
			c-1.603,0-1.603,0.107-1.603,2.137v10.686c0,1.497,0.159,1.497,1.763,1.497h3.099c2.244,0,3.899-0.108,4.54-0.32
			c0.642-0.214,1.016-0.536,1.283-1.871l0.428-2.19c0.267-0.32,1.176-0.32,1.389,0.053c0,1.282-0.213,3.366-0.213,5.396
			c0,1.922,0.213,3.953,0.213,5.129c-0.213,0.374-1.122,0.374-1.389,0.053l-0.48-2.083c-0.214-0.962-0.588-1.763-1.656-2.03
			c-0.748-0.214-2.031-0.268-4.114-0.268h-3.099c-1.604,0-1.763,0.053-1.763,1.443v7.533c0,2.833,0.159,4.649,1.015,5.557
			c0.641,0.641,1.763,1.229,6.465,1.229c4.114,0,5.662-0.213,6.838-0.801c0.962-0.535,2.405-2.404,3.794-5.182
			c0.374-0.268,1.122-0.107,1.335,0.374c-0.374,1.87-1.71,5.984-2.404,7.426c-4.809-0.106-9.563-0.16-14.319-0.16h-4.808
			c-2.297,0-4.114,0.053-7.267,0.16c-0.319-0.16-0.426-1.014-0.106-1.335l1.763-0.161c3.045-0.268,3.313-1.069,3.313-6.677V189.558z
			"/>
		<path fill="#FFFFFF" d="M269.356,189.611c0-5.075-0.16-5.983-2.351-6.25l-1.71-0.213c-0.374-0.268-0.374-1.123,0.054-1.336
			c2.991-0.267,6.679-0.428,11.914-0.428c3.313,0,6.465,0.267,8.922,1.603c2.565,1.336,4.435,3.74,4.435,7.48
			c0,5.076-4.007,7.854-6.678,8.922c-0.267,0.321,0,0.855,0.267,1.283c4.274,6.892,7.105,11.166,10.739,14.211
			c0.908,0.802,2.243,1.389,3.687,1.497c0.266,0.106,0.321,0.534,0.053,0.748c-0.481,0.159-1.335,0.267-2.351,0.267
			c-4.541,0-7.266-1.335-11.059-6.732c-1.391-1.977-3.581-5.664-5.237-8.068c-0.801-1.175-1.657-1.71-3.793-1.71
			c-2.404,0-2.511,0.055-2.511,1.176v6.733c0,5.608,0.107,6.25,3.206,6.677l1.121,0.161c0.32,0.267,0.214,1.175-0.106,1.335
			c-2.404-0.106-4.221-0.16-6.357-0.16c-2.244,0-4.167,0.053-6.679,0.16c-0.321-0.16-0.427-0.96-0.106-1.335l1.336-0.161
			c3.099-0.374,3.205-1.069,3.205-6.677V189.611z M273.737,197.252c0,0.962,0,1.549,0.16,1.763c0.161,0.159,0.962,0.267,3.687,0.267
			c1.924,0,3.955-0.214,5.502-1.389c1.442-1.123,2.672-2.992,2.672-6.626c0-4.22-2.618-8.228-8.548-8.228
			c-3.313,0-3.473,0.214-3.473,1.709V197.252z"/>
		<path fill="#FFFFFF" d="M108.477,242.261c0.294,0.188,0.402,0.507,0.402,0.856c0,0.266-0.081,0.507-0.214,0.666l-6.225,0.589
			c-0.293-0.241-0.4-0.589-0.4-0.856c0-0.266,0.08-0.507,0.213-0.667L108.477,242.261z"/>
		<path fill="#FFFFFF" d="M123.729,238.441c0.241,0.587,0.428,1.442,0.428,2.162c-0.108,0.188-0.508,0.242-0.642,0.082
			c-0.454-1.175-1.255-1.951-2.351-1.951c-1.042,0-1.709,0.667-1.709,1.63c0,1.096,1.122,1.684,2.057,2.217
			c1.416,0.802,2.725,1.71,2.725,3.606c0,2.031-1.87,3.045-3.847,3.045c-1.255,0-2.19-0.267-2.858-0.801
			c-0.213-0.508-0.374-1.816-0.321-2.699c0.134-0.158,0.482-0.186,0.615-0.025c0.454,1.47,1.309,2.751,2.831,2.751
			c0.962,0,1.791-0.562,1.791-1.709c0-1.229-1.068-1.896-2.058-2.458c-1.549-0.881-2.644-1.815-2.644-3.285
			c0-1.95,1.603-3.046,3.633-3.046C122.501,237.96,123.488,238.227,123.729,238.441z"/>
		<path fill="#FFFFFF" d="M129.846,239.456c-0.454,0-0.48,0.08-0.48,0.641v4.995c0,1.551,0.187,2.966,1.95,2.966
			c0.267,0,0.508-0.053,0.72-0.134c0.242-0.08,0.588-0.373,0.669-0.373c0.214,0,0.321,0.293,0.268,0.454
			c-0.481,0.561-1.443,1.228-2.805,1.228c-2.298,0-2.778-1.281-2.778-2.884v-6.118c0-0.72-0.027-0.774-0.561-0.774h-0.748
			c-0.161-0.106-0.187-0.4-0.08-0.562c0.775-0.24,1.442-0.586,1.71-0.828c0.346-0.32,0.854-1.041,1.121-1.576
			c0.134-0.053,0.454-0.053,0.561,0.135v1.201c0,0.482,0.027,0.508,0.481,0.508h2.965c0.321,0.24,0.268,0.962,0.026,1.122H129.846z"
			/>
		<path fill="#FFFFFF" d="M137.485,244.932c0,1.845,0.454,3.073,2.485,3.073c0.72,0,1.576-0.294,2.164-0.802
			c0.346-0.321,0.534-0.721,0.534-1.549v-4.381c0-1.737-0.188-1.79-0.989-2.111l-0.347-0.134c-0.187-0.106-0.187-0.479,0.027-0.587
			c1.068-0.027,2.538-0.215,3.125-0.481c0.133,0.027,0.213,0.08,0.241,0.188c-0.054,0.507-0.081,1.336-0.081,2.323v4.488
			c0,2.109,0.081,2.912,0.829,2.912c0.32,0,0.667-0.054,1.041-0.133c0.161,0.133,0.188,0.667-0.026,0.773
			c-1.042,0.214-2.591,0.481-3.5,0.988c-0.134,0-0.267-0.08-0.32-0.187v-1.095c0-0.24-0.081-0.375-0.24-0.375
			c-0.801,0.508-2.111,1.389-3.687,1.389c-2.351,0-3.232-1.175-3.232-3.339v-4.461c0-1.682,0-1.922-0.801-2.271l-0.321-0.134
			c-0.161-0.134-0.134-0.507,0.053-0.587c1.229-0.027,2.271-0.267,2.858-0.481c0.16,0.027,0.24,0.08,0.267,0.188
			c-0.054,0.453-0.08,1.015-0.08,2.323V244.932z"/>
		<path fill="#FFFFFF" d="M158.239,244.959c0,2.109,0.027,3.099,0.775,3.099c0.293,0,0.747-0.134,1.148-0.267
			c0.187,0.053,0.213,0.721-0.027,0.854c-1.121,0.162-2.778,0.563-3.526,0.855c-0.16,0-0.293-0.08-0.293-0.214v-0.455
			c0-0.399,0-0.72-0.055-0.826h-0.106c-1.174,0.802-2.083,1.228-3.366,1.228c-2.965,0-4.942-2.323-4.942-5.128
			c0-3.74,2.833-6.145,6.465-6.145c0.908,0,1.496,0.134,1.79,0.24c0.134,0,0.16-0.16,0.16-0.374v-4.033
			c0-1.576-0.026-1.736-0.828-2.217l-0.266-0.162c-0.134-0.079-0.134-0.453,0-0.533c0.667-0.214,1.922-0.614,2.885-1.122
			c0.106,0,0.214,0.053,0.267,0.159c-0.027,0.801-0.081,2.138-0.081,3.313V244.959z M156.262,240.953
			c0-0.536-0.106-0.776-0.293-1.043c-0.401-0.561-1.202-1.121-2.245-1.121c-2.431,0-3.686,2.109-3.686,4.434
			c0,2.432,1.361,4.729,3.98,4.729c0.72,0,1.629-0.321,2.056-0.748c0.161-0.16,0.187-0.561,0.187-0.988V240.953z"/>
		<path fill="#FFFFFF" d="M163.127,241.192c0-1.041,0-1.175-0.722-1.656l-0.24-0.159c-0.107-0.108-0.107-0.401,0.025-0.482
			c0.615-0.213,2.138-0.907,2.752-1.308c0.134,0,0.241,0.052,0.268,0.159c-0.053,0.936-0.107,2.217-0.107,3.313v4.808
			c0,1.925,0.054,2.191,1.015,2.326l0.562,0.079c0.187,0.134,0.132,0.587-0.055,0.669c-0.801-0.055-1.576-0.082-2.51-0.082
			c-0.962,0-1.763,0.027-2.511,0.082c-0.187-0.082-0.24-0.535-0.053-0.669l0.561-0.079c0.988-0.135,1.015-0.401,1.015-2.326V241.192
			z M165.344,233.579c0,0.961-0.668,1.389-1.416,1.389c-0.828,0-1.362-0.614-1.362-1.335c0-0.882,0.64-1.442,1.442-1.442
			C164.81,232.19,165.344,232.831,165.344,233.579z"/>
		<path fill="#FFFFFF" d="M179.421,243.49c0,3.339-2.298,5.742-5.637,5.742c-3.072,0-5.477-2.164-5.477-5.503
			c0-3.365,2.538-5.77,5.69-5.77C176.99,237.96,179.421,240.203,179.421,243.49z M173.677,238.762c-1.763,0-3.071,1.684-3.071,4.621
			c0,2.432,1.096,5.049,3.446,5.049c2.35,0,3.071-2.457,3.071-4.515C177.124,241.646,176.215,238.762,173.677,238.762z"/>
		<path fill="#FFFFFF" d="M194.326,242.261c0.294,0.188,0.401,0.507,0.401,0.856c0,0.266-0.081,0.507-0.214,0.666l-6.225,0.589
			c-0.293-0.241-0.399-0.589-0.399-0.856c0-0.266,0.079-0.507,0.212-0.667L194.326,242.261z"/>
	</g>
	<path d="M134.857,76.314l2.166-0.571L140,78.867v8.455l0.904,2.466c0,0-3.95-1.919-4.877-2.483
		c-0.926-0.563-0.99-1.952-0.526-2.995C135.963,83.268,134.857,76.314,134.857,76.314z"/>
	<path d="M157.804,16.798c-0.051,0.928-0.118,1.916-0.187,2.962c-0.136,2.061-0.29,4.396-0.371,6.796
		c-0.007,0.207-0.012,0.414-0.015,0.62c3.492-0.472,6.798-0.708,9.853-0.708c10.729,0,17.745,2.985,19.753,8.408
		c0.581,1.568,0.709,3.257,0.404,5.031c14.963,11.491,24.612,29.559,24.612,49.881c0,6.954-1.131,13.642-3.215,19.894l-16.844-8.983
		c0,0-0.188-0.29-0.072-1.332c0.115-1.042-0.069-2.256-1.563-4.381c-1.589-2.259-2.367-3.286-3.474-5.197
		c-0.817-1.406-2.433-2.351-7.934-3.683c-5.502-1.332-9.729,0-9.729,0s-2.664-0.405-4.913-4.749
		c-2.248-4.342-2.095-7.759-1.978-8.455c0.116-0.694,1.158-0.578,2.721-0.404c1.565,0.174,0.811,1.621-0.173,2.605
		c-0.984,0.984-0.81,1.968,0.58,2.258c1.39,0.29,2.316-1.853,2.432-5.327c0.115-3.474-2.432-2.2-3.581-1.159
		c-1.147,1.042-0.762-1.274-0.356-2.953c0.405-1.679,2.547-1.39,2.547-1.39s-0.985-0.696-2.191,0
		c-1.206,0.695-1.805,3.301-1.805,3.301l-0.521,1.477l-0.348-0.436l-0.579,0.869l-1.059-0.869l-1.082,0.869
		c1.395,3.868,0,7.47,0.693,11.93c0.696,4.458,2.433,7.874,4.701,10.77c2.269,2.896-0.01,6.486-2.268,10.54
		c-2.258,4.053-5.385,9.438-5.385,9.438s1.563-0.115,2.259,1.215c0.693,1.333,3.387,7.877,4.313,10.597
		c0.927,2.722-4.14,3.765-4.14,3.765l8.068,20.039c-5.692,1.694-11.719,2.608-17.961,2.608c-5.413,0-10.666-0.685-15.676-1.971
		l10.063-20.711c0,0-0.633,0.026-2.31-0.448c-1.597-0.452-2.773-1-2.337-3.513c0.45-2.585,1.795-8.597,2.258-10.25
		c0.405-1.442,0.555-2.63,1.662-2.532c3.538,1.205,6.821,2.307,7.82,2.59c2.448,0.695,3.838-0.232,7.081-5.791
		c3.243-5.56,4.865-8.803,5.329-10.424c0.462-1.622-0.233-3.706-1.39-5.095c-1.159-1.39-3.707-7.645-3.707-12.278
		s0.695-8.57,0.695-8.57l-0.422-2.099l1.749-1.529l0.918,1.082l0.461-1.52l0.544,1.04c0.229-2.694,1.496-4.773,3.296-5.026
		c2.32-0.329,4.639,2.492,5.176,6.301c0.539,3.808-0.906,7.162-3.226,7.491c-0.756,0.106-1.512-0.127-2.206-0.613l0.35,1.591
		l1.313,2.857l2.006,1.39l1.159-1.313l1.467,1.623l1.196-1.315L174,84.929V84h-0.229l-0.541-2h1.081l-0.85-2.552l1.776,0.27
		l-1.39-1.991l1.39-0.913L174.002,75h0.232l-0.541-1.252l1.004,1.242l0.541-0.71l1.853,1.309l-0.927-2.743l-1.775-1.369l1.467-0.534
		l-0.696-1.693l-1.235-1.232l1.158-0.539l-1.003-1.827l1.159-1.029l-2.008-1.777l-1.467-0.385l2.008-0.65L172.768,60h1.93
		L172,58.985v-1.313l-2.109-0.818c10.866-7.453,16.879-15.432,14.751-21.174c-2.375-6.411-14.229-8.348-29.667-5.828
		c-0.068-1.025-0.091-2.147-0.051-3.373c0.232-6.872,1.037-12.838,0.482-15.607c-0.004-0.018-0.009-0.034-0.014-0.052
		c-0.046-0.315-0.113-0.625-0.224-0.924c-2.271-6.132-17.634-6.096-34.315,0.083c-16.68,6.179-28.362,16.159-26.089,22.292
		c0.32,0.864,0.908,1.601,1.714,2.22c0.242,0.21,0.5,0.392,0.767,0.52c0.009,0.004,0.023,0.012,0.033,0.018
		c0.066,0.039,0.138,0.076,0.208,0.114c1.873,1.083,10.083,7.054,13.497,11.347c-12.523,7.932-19.668,16.726-17.374,22.918
		c3.141,8.478,22.879,9.129,45.522,1.999c0.994,0.929,2.113,2.126,3.076,3.541c0.993-0.797,2.377-1.293,3.913-1.293
		c3.022,0,5.473,1.919,5.473,4.285c0,2.367-2.451,4.286-5.473,4.286c-0.494,0-0.971-0.056-1.426-0.151
		c0.536,4.255-0.34,4.784-0.34,4.784s9.747,5.328,4.642,15.057c-5.106,9.728-5.106,9.728-5.106,9.728l-11.646-2.067
		c-1.438-0.563-1.369-1.195-1.091-2.079c0.064-0.204,0.24-0.455,0.463-0.771c0.736-1.047,1.97-2.801,2.425-7.072
		c0.559-5.238-5.273-10.842-7.468-12.952c-0.276-0.266-0.486-0.467-0.604-0.594c-0.582-0.626,0.239-2.849,0.972-4.297
		c0.638,0.383,2.202,1.16,3.753,0.706c2.015-0.588,2.661-4.367,2.687-4.528l-0.603-0.1c-0.164,0.988-0.888,3.644-2.254,4.041
		c-1.682,0.491-3.501-0.791-3.519-0.804l-0.283-0.203l-0.165,0.306c-0.224,0.414-2.156,4.087-1.036,5.294
		c0.123,0.13,0.339,0.341,0.628,0.617c2.104,2.021,7.637,7.34,7.299,12.222c-0.877,0.179-3.903,0.981-5.97,3.894
		c-1.883,2.652-2.065,4.604-2.068,5.221l-17.49,9.885l-1.476,2.485c-0.475,0.339-3.63,2.66-4.16,4.93
		c-0.253,1.088-0.227,3.562-0.121,5.932c-9.963-11.124-16.026-25.814-16.026-41.924c0-8.585,1.724-16.769,4.841-24.226
		c0.43-3.144,2.256-6.568,5.346-10.085c2.665-4.085,5.791-7.842,9.306-11.194c-2.99-2.694-6.603-5.381-8.473-6.624
		c-13.389,13.316-21.68,31.753-21.68,52.128c0,40.603,32.914,73.52,73.517,73.52c40.603,0,73.518-32.917,73.518-73.52
		C222.514,52.167,194.254,21.151,157.804,16.798z M157,71.471l-0.363-1.804L157,69.254V71.471z M106.149,32.663
		c-5.366,0-7.962-1.094-8.171-1.188l-0.06-1.169c0.103,0.043,10.591,4.424,33.814-4.72c15.768-6.208,19.716-10.831,20.666-13.035
		c0.475-1.102,0.246-1.697,0.245-1.703l0.866,0.368c0.034,0.079,0.324,0.806-0.208,2.103c-1.155,2.811-5.742,7.425-21.038,13.447
		C120.287,31.48,111.724,32.663,106.149,32.663z M141.65,60.717c-11.479,4.252-22.052,4.278-23.615,0.057
		c-0.35-0.944-2.403-4.545-2.834-5.713c-0.053-0.141-0.094-0.286-0.125-0.435c2.669,3.431,12.767,3.123,23.668-0.915
		c11.113-4.117,19.068-10.629,18.531-14.976c0.128,0.197,0.239,0.403,0.321,0.623c0.404,1.092,1.632,5.002,2.008,6.018
		C161.167,49.598,153.128,56.465,141.65,60.717z M121.422,143.608c-1.612,0.227-3.118,0.285-4.5,0.246
		c-5.244-3.117-9.996-6.975-14.108-11.43c-0.132-2.539-0.197-5.373,0.067-6.505c0.409-1.753,2.712-3.655,3.61-4.339l1.217,4.874
		l17.644-9.153c-0.086,2.841,0.023,6.609,0.89,9.769c1.512,5.505,4.677,9.011,4.677,9.011S128.835,142.565,121.422,143.608z
		 M131.846,131.1c-0.811-0.81-1.621-1.622-3.823-5.906c-2.2-4.286-2.365-12.195-2.365-12.195s-0.194,1.511-0.286,3.703l-0.041-0.079
		l-17.219,8.932l-1.12-4.479l1.37-2.258l17.508-9.896l0.173-0.098l-0.018-0.197c-0.003-0.02-0.166-2.032,1.953-5.016
		c1.79-2.522,4.418-3.365,5.406-3.603c-0.473,3.805-1.588,5.403-2.268,6.367c-0.253,0.359-0.453,0.645-0.546,0.938
		c-0.332,1.056-0.479,2.15,1.653,2.909c1.225,0.437,3.842,1.217,5.47,1.694c-0.532,2.576-3.12,15.124-3.571,17.022
		C133.586,131.203,132.656,131.91,131.846,131.1z"/>
</g>
</svg>
