<?xml version="1.0" encoding="utf-8"?>
<!-- Generator: Adobe Illustrator 16.0.0, SVG Export Plug-In . SVG Version: 6.00 Build 0)  -->
<!DOCTYPE svg PUBLIC "-//W3C//DTD SVG 1.1//EN" "http://www.w3.org/Graphics/SVG/1.1/DTD/svg11.dtd">
<svg version="1.1" xmlns="http://www.w3.org/2000/svg" xmlns:xlink="http://www.w3.org/1999/xlink" x="0px" y="0px" width="150px"
	 height="24px" viewBox="0 0 150 24" enable-background="new 0 0 150 24" xml:space="preserve">
<g id="Layer_2" display="none">
</g>
<g id="Layer_1">
	<g>
		<path fill="#FFFFFF" d="M16.771,12.449c0.554,1.131,1.082,2.237,1.661,3.294h0.047c0.649-1.131,1.251-2.381,1.853-3.607
			l2.261-4.594c1.083-2.188,1.779-3.512,1.827-4.618c0.818,0.072,1.324,0.072,1.804,0.072c0.602,0,1.396-0.023,2.142-0.072
			c0.144,0.096,0.144,0.505,0.023,0.602l-0.504,0.048c-1.516,0.144-1.708,0.601-1.684,2.285c0.047,2.549,0.072,6.999,0.264,10.462
			c0.073,1.203,0.048,1.853,1.179,1.949l0.769,0.073c0.144,0.144,0.121,0.504-0.047,0.6c-0.986-0.048-1.973-0.072-2.838-0.072
			c-0.842,0-1.924,0.024-2.911,0.072c-0.169-0.121-0.193-0.456-0.049-0.6l0.698-0.073c1.179-0.121,1.179-0.505,1.179-2.045
			L24.371,6.195h-0.047c-0.168,0.265-1.082,2.188-1.563,3.127l-2.141,4.208c-1.083,2.118-2.165,4.378-2.599,5.484
			c-0.047,0.071-0.144,0.096-0.24,0.096c-0.047,0-0.168-0.024-0.216-0.096c-0.409-1.274-1.563-3.632-2.117-4.811l-2.165-4.642
			c-0.504-1.106-1.01-2.356-1.539-3.462h-0.048c-0.096,1.491-0.168,2.886-0.241,4.281c-0.072,1.467-0.167,3.606-0.167,5.652
			c0,1.779,0.144,2.164,1.081,2.237l0.914,0.073c0.168,0.144,0.144,0.528-0.023,0.6c-0.818-0.048-1.757-0.072-2.67-0.072
			c-0.769,0-1.635,0.024-2.453,0.072c-0.145-0.121-0.193-0.481-0.048-0.6l0.53-0.073c1.009-0.145,1.346-0.289,1.49-1.973
			c0.144-1.587,0.265-2.911,0.409-5.291c0.121-1.996,0.217-4.041,0.265-5.364c0.048-1.515-0.144-1.876-1.612-2.068L8.786,3.526
			C8.665,3.381,8.689,3.02,8.882,2.924c0.721,0.049,1.298,0.072,1.899,0.072c0.553,0,1.203,0,1.997-0.072
			c-0.096,0.938,0.504,2.43,1.25,3.969L16.771,12.449z"/>
		<path fill="#FFFFFF" d="M39.137,13.292c-0.168-0.531-0.264-0.602-0.987-0.602h-3.631c-0.601,0-0.746,0.071-0.914,0.577
			l-0.842,2.525c-0.361,1.083-0.53,1.731-0.53,1.996c0,0.289,0.121,0.433,0.698,0.481l0.793,0.073
			c0.169,0.119,0.169,0.504-0.048,0.6c-0.625-0.048-1.371-0.048-2.501-0.072c-0.794,0-1.66,0.049-2.31,0.072
			c-0.144-0.096-0.192-0.481-0.047-0.6l0.794-0.073c0.577-0.048,1.106-0.312,1.443-1.179c0.433-1.107,1.106-2.67,2.117-5.363
			l2.453-6.494c0.337-0.866,0.481-1.323,0.409-1.708c0.577-0.17,0.986-0.602,1.251-0.915c0.144,0,0.312,0.049,0.36,0.218
			c0.313,1.058,0.697,2.165,1.059,3.223l3.294,9.668c0.698,2.068,1.011,2.429,2.044,2.55l0.65,0.073c0.168,0.119,0.12,0.504,0,0.6
			c-0.987-0.048-1.829-0.072-2.911-0.072c-1.154,0-2.068,0.049-2.766,0.072c-0.193-0.096-0.217-0.481-0.048-0.6l0.697-0.073
			c0.505-0.048,0.842-0.192,0.842-0.433c0-0.265-0.12-0.697-0.313-1.275L39.137,13.292z M34.375,11.15
			c-0.194,0.552-0.169,0.578,0.505,0.578h2.958c0.699,0,0.746-0.097,0.529-0.746l-1.299-3.921c-0.192-0.577-0.409-1.226-0.553-1.514
			h-0.048c-0.072,0.12-0.313,0.697-0.577,1.418L34.375,11.15z"/>
		<path fill="#FFFFFF" d="M47.409,6.124c0-1.684-0.121-2.188-1.129-2.333l-0.53-0.072c-0.192-0.121-0.216-0.506,0.024-0.603
			c2.044-0.119,3.994-0.191,6.037-0.191c2.021,0,3.728,0.143,5.292,0.722c3.248,1.178,4.883,3.92,4.883,7.095
			c0,3.054-1.467,5.676-4.21,7.167c-1.563,0.841-3.534,1.154-5.387,1.154c-1.539,0-3.079-0.192-3.92-0.192
			c-1.009,0-1.875,0.024-3.007,0.072c-0.143-0.072-0.191-0.456-0.046-0.6l0.553-0.073c1.394-0.192,1.442-0.481,1.442-3.006V6.124z
			 M49.382,14.71c0,1.274,0.072,2.044,0.48,2.62c0.53,0.747,1.443,0.987,2.958,0.987c4.666,0,6.759-3.054,6.759-7.528
			c0-2.646-1.275-7.121-7.577-7.121c-1.418,0-2.188,0.193-2.382,0.337c-0.191,0.145-0.239,0.746-0.239,1.829V14.71z"/>
		<path fill="#FFFFFF" d="M69.342,11.102c-1.154,0-1.203,0.048-1.203,0.77v3.392c0,2.525,0.12,2.862,1.467,3.006l0.698,0.073
			c0.144,0.095,0.097,0.528-0.047,0.6c-1.3-0.048-2.118-0.072-3.055-0.072c-1.035,0-1.853,0.049-2.79,0.072
			c-0.144-0.072-0.193-0.456-0.049-0.6l0.409-0.073c1.348-0.241,1.396-0.481,1.396-3.006v-8.66c0-2.524-0.169-2.935-1.419-3.029
			l-0.625-0.048c-0.144-0.097-0.096-0.529,0.048-0.602c1.179,0.025,1.997,0.072,3.031,0.072c0.937,0,1.755-0.023,2.79-0.072
			c0.143,0.072,0.192,0.505,0.048,0.602l-0.457,0.048C68.188,3.718,68.14,4.08,68.14,6.604v2.766c0,0.747,0.049,0.771,1.203,0.771
			h6.879c1.155,0,1.203-0.024,1.203-0.771V6.604c0-2.524-0.048-2.885-1.467-3.029L75.5,3.526c-0.144-0.097-0.097-0.529,0.049-0.602
			c1.106,0.049,1.923,0.072,2.91,0.072c0.938,0,1.756-0.023,2.838-0.072c0.144,0.072,0.193,0.505,0.047,0.602l-0.505,0.048
			c-1.395,0.144-1.442,0.505-1.442,3.029v8.66c0,2.525,0.047,2.838,1.442,3.006l0.578,0.073c0.144,0.095,0.096,0.528-0.048,0.6
			c-1.155-0.048-1.972-0.072-2.911-0.072c-0.986,0-1.852,0.024-2.91,0.072c-0.146-0.072-0.193-0.456-0.049-0.6l0.458-0.073
			c1.467-0.241,1.467-0.481,1.467-3.006v-3.392c0-0.722-0.048-0.77-1.203-0.77H69.342z"/>
		<path fill="#FFFFFF" d="M92.263,13.292c-0.168-0.531-0.265-0.602-0.986-0.602h-3.631c-0.602,0-0.745,0.071-0.914,0.577
			l-0.842,2.525c-0.361,1.083-0.529,1.731-0.529,1.996c0,0.289,0.12,0.433,0.698,0.481l0.793,0.073
			c0.168,0.119,0.168,0.504-0.048,0.6c-0.626-0.048-1.37-0.048-2.501-0.072c-0.793,0-1.659,0.049-2.309,0.072
			c-0.144-0.096-0.193-0.481-0.049-0.6l0.794-0.073c0.577-0.048,1.106-0.312,1.442-1.179c0.433-1.107,1.107-2.67,2.117-5.363
			l2.453-6.494c0.336-0.866,0.482-1.323,0.409-1.708c0.578-0.17,0.986-0.602,1.251-0.915c0.144,0,0.313,0.049,0.36,0.218
			c0.313,1.058,0.697,2.165,1.058,3.223l3.294,9.668c0.698,2.068,1.011,2.429,2.045,2.55l0.649,0.073c0.169,0.119,0.12,0.504,0,0.6
			c-0.986-0.048-1.828-0.072-2.91-0.072c-1.154,0-2.068,0.049-2.766,0.072c-0.192-0.096-0.217-0.481-0.048-0.6l0.697-0.073
			c0.505-0.048,0.842-0.192,0.842-0.433c0-0.265-0.121-0.697-0.313-1.275L92.263,13.292z M87.5,11.15
			c-0.192,0.552-0.168,0.578,0.505,0.578h2.958c0.699,0,0.745-0.097,0.53-0.746l-1.299-3.921c-0.192-0.577-0.409-1.226-0.553-1.514
			h-0.048c-0.072,0.12-0.313,0.697-0.577,1.418L87.5,11.15z"/>
		<path fill="#FFFFFF" d="M104.625,15.263c0,2.525,0.048,2.886,1.443,3.006l0.769,0.073c0.145,0.095,0.097,0.528-0.047,0.6
			c-1.371-0.048-2.189-0.072-3.151-0.072s-1.805,0.024-3.343,0.072c-0.145-0.072-0.191-0.481,0-0.6l0.867-0.073
			c1.371-0.121,1.491-0.481,1.491-3.006V4.512c0-0.746,0-0.77-0.722-0.77h-1.322c-1.034,0-2.357,0.048-2.958,0.602
			c-0.578,0.529-0.818,1.058-1.083,1.658c-0.192,0.145-0.528,0.026-0.625-0.167c0.386-1.083,0.747-2.623,0.915-3.584
			c0.072-0.048,0.385-0.073,0.457,0c0.144,0.769,0.938,0.746,2.043,0.746h9.742c1.298,0,1.515-0.047,1.875-0.674
			c0.121-0.048,0.385-0.024,0.434,0.073c-0.265,0.985-0.434,2.934-0.361,3.656c-0.096,0.191-0.505,0.191-0.626,0.048
			c-0.071-0.602-0.239-1.492-0.601-1.756c-0.553-0.409-1.466-0.602-2.788-0.602h-1.709c-0.721,0-0.697,0.024-0.697,0.818V15.263z"/>
		<path fill="#FFFFFF" d="M114.725,6.604c0-2.5-0.048-2.861-1.468-3.029l-0.385-0.048c-0.145-0.097-0.097-0.529,0.047-0.602
			c1.035,0.049,1.852,0.072,2.838,0.072h4.522c1.539,0,2.958,0,3.247-0.072c0.145,0.408,0.288,2.141,0.385,3.199
			c-0.097,0.144-0.481,0.191-0.601,0.048c-0.361-1.131-0.577-1.972-1.828-2.285c-0.505-0.121-1.275-0.145-2.333-0.145h-1.731
			c-0.722,0-0.722,0.048-0.722,0.96v4.812c0,0.673,0.073,0.673,0.793,0.673h1.396c1.01,0,1.755-0.048,2.043-0.144
			c0.29-0.096,0.457-0.241,0.577-0.842l0.193-0.987c0.12-0.145,0.529-0.145,0.625,0.024c0,0.578-0.096,1.515-0.096,2.43
			c0,0.866,0.096,1.78,0.096,2.308c-0.096,0.169-0.505,0.169-0.625,0.025l-0.216-0.938c-0.097-0.434-0.264-0.794-0.746-0.915
			c-0.336-0.097-0.913-0.121-1.852-0.121h-1.396c-0.72,0-0.793,0.024-0.793,0.649v3.392c0,1.275,0.073,2.093,0.458,2.501
			c0.288,0.289,0.793,0.554,2.909,0.554c1.854,0,2.55-0.096,3.079-0.36c0.434-0.241,1.083-1.083,1.708-2.333
			c0.168-0.12,0.505-0.048,0.602,0.168c-0.168,0.842-0.77,2.694-1.082,3.343c-2.165-0.048-4.307-0.072-6.446-0.072h-2.166
			c-1.033,0-1.851,0.024-3.271,0.072c-0.144-0.072-0.192-0.456-0.048-0.6l0.793-0.073c1.371-0.121,1.492-0.481,1.492-3.006V6.604z"
			/>
		<path fill="#FFFFFF" d="M128.77,6.627c0-2.283-0.072-2.692-1.059-2.813l-0.77-0.096c-0.169-0.121-0.169-0.506,0.024-0.603
			c1.347-0.119,3.007-0.191,5.364-0.191c1.491,0,2.91,0.119,4.017,0.722c1.155,0.601,1.997,1.684,1.997,3.368
			c0,2.285-1.804,3.535-3.007,4.015c-0.12,0.146,0,0.386,0.121,0.578c1.924,3.103,3.199,5.027,4.835,6.397
			c0.409,0.362,1.01,0.625,1.659,0.674c0.12,0.048,0.145,0.241,0.024,0.337c-0.217,0.071-0.602,0.12-1.06,0.12
			c-2.044,0-3.27-0.601-4.977-3.032c-0.627-0.889-1.612-2.548-2.358-3.63c-0.36-0.529-0.745-0.771-1.708-0.771
			c-1.082,0-1.13,0.025-1.13,0.531v3.03c0,2.525,0.048,2.814,1.442,3.006l0.506,0.073c0.145,0.119,0.095,0.528-0.049,0.6
			c-1.082-0.048-1.899-0.072-2.862-0.072c-1.009,0-1.876,0.024-3.007,0.072c-0.144-0.072-0.191-0.432-0.047-0.6l0.602-0.073
			c1.396-0.168,1.443-0.481,1.443-3.006V6.627z M130.741,10.068c0,0.433,0,0.698,0.072,0.794c0.072,0.071,0.433,0.12,1.66,0.12
			c0.866,0,1.781-0.096,2.477-0.625c0.649-0.506,1.202-1.347,1.202-2.983c0-1.9-1.178-3.705-3.848-3.705
			c-1.491,0-1.563,0.097-1.563,0.771V10.068z"/>
	</g>
</g>
</svg>
