<?xml version="1.0" encoding="utf-8"?>
<!-- Generator: Adobe Illustrator 16.0.0, SVG Export Plug-In . SVG Version: 6.00 Build 0)  -->
<!DOCTYPE svg PUBLIC "-//W3C//DTD SVG 1.1//EN" "http://www.w3.org/Graphics/SVG/1.1/DTD/svg11.dtd">
<svg version="1.1" id="Layer_1" xmlns="http://www.w3.org/2000/svg" xmlns:xlink="http://www.w3.org/1999/xlink" x="0px" y="0px"
	 width="271px" height="345.5px" viewBox="0 0 271 345.5" enable-background="new 0 0 271 345.5" xml:space="preserve">
<path d="M192.586,55.697c-3.888-10.496-23.316-13.666-48.592-9.54c-0.112-1.679-0.156-3.517-0.09-5.522
	c0.38-11.251,1.691-21.02,0.783-25.553c-0.006-0.028-0.018-0.056-0.025-0.084c-0.074-0.516-0.186-1.023-0.366-1.513
	c-3.719-10.04-28.872-9.979-56.182,0.136c-27.31,10.116-46.433,26.455-42.713,36.496c0.524,1.414,1.486,2.621,2.806,3.635
	c0.396,0.343,0.817,0.643,1.257,0.852c0.015,0.007,0.036,0.02,0.051,0.027c0.11,0.063,0.228,0.125,0.342,0.187
	c3.065,1.775,16.508,11.549,22.096,18.578c-20.503,12.985-32.198,27.383-28.442,37.521c5.606,15.137,43.523,15.047,84.689-0.202
	S198.192,70.834,192.586,55.697z M64.039,50.758c-8.783,0-13.035-1.792-13.379-1.944l-0.097-1.915
	c0.169,0.072,17.341,7.242,55.362-7.727c25.814-10.164,32.277-17.733,33.832-21.341c0.777-1.805,0.404-2.779,0.4-2.789l1.418,0.604
	c0.057,0.129,0.531,1.32-0.341,3.441c-1.892,4.602-9.401,12.156-34.442,22.016C87.186,48.822,73.166,50.758,64.039,50.758z
	 M122.161,96.688c-18.793,6.962-36.103,7.004-38.662,0.094c-0.572-1.545-3.936-7.441-4.643-9.352
	c-0.087-0.232-0.153-0.471-0.204-0.713c4.37,5.618,20.901,5.113,38.748-1.498c18.195-6.74,31.219-17.402,30.34-24.518
	c0.21,0.322,0.393,0.659,0.525,1.019c0.662,1.788,2.672,8.19,3.288,9.853C154.113,78.482,140.953,89.727,122.161,96.688z"/>
<path fill="#FFFFFF" d="M134.188,268.646c-68.573,0-124.361-55.789-124.361-124.363c0-31.844,12.014-62.119,33.829-85.248
	l1.859-1.97l-1.772-2.05c-0.916-1.059-1.619-2.24-2.09-3.511c-1.715-4.629-1.221-12.317,10.872-22.65
	c8.416-7.19,20.562-13.933,34.202-18.986c13.71-5.078,27.375-7.875,38.476-7.875c15.791,0,21.141,5.493,22.848,10.102
	c0.23,0.628,0.401,1.282,0.521,1.995l0.038,0.188c0.211,1.056,0.334,2.355,0.374,3.965l0.067,2.543l2.517,0.352
	c29.609,4.137,56.753,18.871,76.429,41.488c19.705,22.65,30.558,51.649,30.558,81.657
	C258.551,212.857,202.762,268.646,134.188,268.646z"/>
<path d="M148.608,24.785c-0.085,1.521-0.191,3.137-0.305,4.851c-0.223,3.372-0.476,7.196-0.608,11.126
	c-0.012,0.338-0.02,0.676-0.025,1.014c5.719-0.771,11.13-1.16,16.133-1.16c17.566,0,29.052,4.889,32.339,13.766
	c0.951,2.568,1.161,5.332,0.662,8.237c24.497,18.812,40.294,48.392,40.294,81.665c0,56.837-46.074,102.91-102.91,102.91
	c-56.835,0-102.909-46.073-102.909-102.91c0-14.058,2.822-27.455,7.926-39.662c0.704-5.148,3.695-10.753,8.752-16.512
	c4.364-6.688,9.481-12.838,15.237-18.326c-4.897-4.41-10.811-8.809-13.873-10.844c-21.922,21.8-35.494,51.986-35.494,85.344
	c0,66.475,53.887,120.363,120.361,120.363s120.363-53.889,120.363-120.363C254.551,82.689,208.283,31.91,148.608,24.785z"/>
<g>
	<path fill="#FFFFFF" d="M18.8,300.329c1.104,2.257,2.16,4.465,3.313,6.577h0.096c1.296-2.257,2.496-4.753,3.696-7.201l4.513-9.169
		c2.16-4.368,3.552-7.008,3.647-9.217c1.633,0.145,2.641,0.145,3.601,0.145c1.2,0,2.784-0.048,4.272-0.145
		c0.288,0.192,0.288,1.009,0.048,1.2l-1.008,0.097c-3.024,0.288-3.408,1.2-3.36,4.56c0.096,5.089,0.145,13.97,0.528,20.882
		c0.144,2.4,0.096,3.696,2.352,3.889l1.536,0.145c0.288,0.288,0.24,1.008-0.096,1.199c-1.968-0.096-3.937-0.144-5.664-0.144
		c-1.681,0-3.841,0.048-5.809,0.144c-0.336-0.239-0.385-0.911-0.097-1.199l1.393-0.145c2.353-0.24,2.353-1.008,2.353-4.08
		l-0.145-20.018h-0.096c-0.336,0.527-2.16,4.368-3.12,6.24l-4.272,8.4c-2.16,4.225-4.32,8.737-5.185,10.945
		c-0.096,0.144-0.288,0.192-0.48,0.192c-0.096,0-0.336-0.049-0.432-0.192c-0.816-2.544-3.12-7.249-4.225-9.601l-4.32-9.265
		c-1.008-2.209-2.016-4.705-3.072-6.913H8.671c-0.192,2.977-0.336,5.761-0.48,8.545c-0.144,2.928-0.336,7.2-0.336,11.281
		c0,3.552,0.288,4.32,2.16,4.464l1.824,0.145c0.336,0.288,0.288,1.056-0.048,1.199c-1.632-0.096-3.504-0.144-5.328-0.144
		c-1.536,0-3.265,0.048-4.896,0.144c-0.288-0.239-0.385-0.96-0.097-1.199l1.057-0.145c2.016-0.288,2.688-0.576,2.976-3.937
		c0.288-3.168,0.528-5.809,0.816-10.561c0.24-3.984,0.433-8.064,0.528-10.705c0.096-3.024-0.288-3.744-3.217-4.128l-0.768-0.097
		c-0.24-0.288-0.192-1.008,0.192-1.2c1.439,0.097,2.592,0.145,3.792,0.145c1.104,0,2.4,0,3.984-0.145
		c-0.192,1.872,1.008,4.849,2.496,7.921L18.8,300.329z"/>
	<path fill="#FFFFFF" d="M63.439,302.01c-0.336-1.057-0.528-1.2-1.969-1.2h-7.248c-1.2,0-1.488,0.144-1.824,1.152l-1.681,5.04
		c-0.72,2.16-1.056,3.456-1.056,3.984c0,0.576,0.24,0.864,1.392,0.96l1.584,0.145c0.337,0.239,0.337,1.008-0.096,1.199
		c-1.248-0.096-2.736-0.096-4.992-0.144c-1.584,0-3.313,0.096-4.608,0.144c-0.288-0.191-0.384-0.96-0.096-1.199l1.584-0.145
		c1.151-0.096,2.208-0.624,2.88-2.353c0.864-2.208,2.208-5.328,4.225-10.704l4.896-12.962c0.672-1.728,0.96-2.64,0.815-3.408
		c1.152-0.336,1.969-1.2,2.497-1.824c0.288,0,0.624,0.097,0.72,0.433c0.624,2.112,1.392,4.32,2.112,6.433l6.576,19.298
		c1.393,4.128,2.017,4.848,4.08,5.088l1.297,0.145c0.336,0.239,0.239,1.008,0,1.199c-1.969-0.096-3.648-0.144-5.809-0.144
		c-2.305,0-4.129,0.096-5.521,0.144c-0.384-0.191-0.433-0.96-0.096-1.199l1.392-0.145c1.008-0.096,1.681-0.384,1.681-0.864
		c0-0.527-0.24-1.392-0.625-2.544L63.439,302.01z M53.935,297.737c-0.385,1.104-0.336,1.152,1.008,1.152h5.904
		c1.393,0,1.488-0.192,1.057-1.488l-2.593-7.825c-0.384-1.151-0.816-2.448-1.104-3.024H58.11c-0.144,0.24-0.624,1.393-1.151,2.833
		L53.935,297.737z"/>
	<path fill="#FFFFFF" d="M79.949,287.704c0-3.36-0.24-4.368-2.256-4.656l-1.057-0.144c-0.384-0.24-0.432-1.009,0.048-1.2
		c4.081-0.24,7.969-0.385,12.05-0.385c4.032,0,7.44,0.288,10.561,1.44c6.48,2.353,9.745,7.825,9.745,14.161
		c0,6.097-2.929,11.329-8.401,14.306c-3.12,1.68-7.057,2.304-10.753,2.304c-3.072,0-6.145-0.384-7.824-0.384
		c-2.017,0-3.744,0.048-6.001,0.144c-0.288-0.144-0.384-0.911-0.096-1.199l1.104-0.145c2.784-0.384,2.88-0.96,2.88-6V287.704z
		 M83.886,304.842c0,2.544,0.144,4.08,0.96,5.232c1.056,1.488,2.88,1.968,5.904,1.968c9.313,0,13.489-6.096,13.489-15.024
		c0-5.281-2.544-14.21-15.121-14.21c-2.832,0-4.368,0.384-4.753,0.672c-0.384,0.288-0.479,1.488-0.479,3.648V304.842z"/>
	<path fill="#FFFFFF" d="M123.726,297.642c-2.305,0-2.4,0.096-2.4,1.536v6.769c0,5.04,0.24,5.712,2.928,6l1.393,0.145
		c0.288,0.191,0.192,1.056-0.096,1.199c-2.593-0.096-4.225-0.144-6.097-0.144c-2.064,0-3.696,0.096-5.568,0.144
		c-0.288-0.144-0.385-0.911-0.097-1.199l0.816-0.145c2.688-0.479,2.784-0.96,2.784-6v-17.282c0-5.04-0.336-5.856-2.832-6.048
		l-1.248-0.097c-0.288-0.191-0.192-1.056,0.096-1.2c2.353,0.049,3.984,0.145,6.049,0.145c1.872,0,3.504-0.048,5.568-0.145
		c0.288,0.145,0.384,1.009,0.096,1.2l-0.912,0.097c-2.784,0.288-2.88,1.008-2.88,6.048v5.521c0,1.488,0.096,1.536,2.4,1.536h13.729
		c2.305,0,2.4-0.048,2.4-1.536v-5.521c0-5.04-0.096-5.76-2.928-6.048l-0.912-0.097c-0.288-0.191-0.192-1.056,0.096-1.2
		c2.208,0.097,3.84,0.145,5.809,0.145c1.872,0,3.504-0.048,5.664-0.145c0.288,0.145,0.385,1.009,0.097,1.2l-1.009,0.097
		c-2.784,0.288-2.88,1.008-2.88,6.048v17.282c0,5.04,0.096,5.664,2.88,6l1.152,0.145c0.288,0.191,0.192,1.056-0.096,1.199
		c-2.305-0.096-3.937-0.144-5.809-0.144c-1.969,0-3.696,0.048-5.809,0.144c-0.288-0.144-0.384-0.911-0.096-1.199l0.912-0.145
		c2.928-0.479,2.928-0.96,2.928-6v-6.769c0-1.44-0.096-1.536-2.4-1.536H123.726z"/>
	<path fill="#FFFFFF" d="M169.471,302.01c-0.336-1.057-0.528-1.2-1.969-1.2h-7.248c-1.2,0-1.488,0.144-1.824,1.152l-1.681,5.04
		c-0.72,2.16-1.056,3.456-1.056,3.984c0,0.576,0.24,0.864,1.392,0.96l1.584,0.145c0.337,0.239,0.337,1.008-0.096,1.199
		c-1.248-0.096-2.736-0.096-4.992-0.144c-1.584,0-3.313,0.096-4.608,0.144c-0.288-0.191-0.384-0.96-0.096-1.199l1.584-0.145
		c1.151-0.096,2.208-0.624,2.88-2.353c0.864-2.208,2.208-5.328,4.225-10.704l4.896-12.962c0.672-1.728,0.96-2.64,0.815-3.408
		c1.152-0.336,1.969-1.2,2.497-1.824c0.288,0,0.624,0.097,0.72,0.433c0.624,2.112,1.392,4.32,2.112,6.433l6.576,19.298
		c1.393,4.128,2.017,4.848,4.08,5.088l1.297,0.145c0.336,0.239,0.239,1.008,0,1.199c-1.969-0.096-3.648-0.144-5.809-0.144
		c-2.305,0-4.129,0.096-5.521,0.144c-0.384-0.191-0.433-0.96-0.096-1.199l1.392-0.145c1.008-0.096,1.681-0.384,1.681-0.864
		c0-0.527-0.24-1.392-0.625-2.544L169.471,302.01z M159.966,297.737c-0.385,1.104-0.336,1.152,1.008,1.152h5.904
		c1.393,0,1.488-0.192,1.057-1.488l-2.593-7.825c-0.384-1.151-0.816-2.448-1.104-3.024h-0.097c-0.144,0.24-0.624,1.393-1.151,2.833
		L159.966,297.737z"/>
	<path fill="#FFFFFF" d="M194.143,305.946c0,5.04,0.096,5.76,2.88,6l1.536,0.145c0.288,0.191,0.191,1.056-0.096,1.199
		c-2.736-0.096-4.369-0.144-6.289-0.144s-3.601,0.048-6.673,0.144c-0.288-0.144-0.384-0.96,0-1.199l1.729-0.145
		c2.736-0.24,2.977-0.96,2.977-6v-21.458c0-1.488,0-1.536-1.44-1.536h-2.641c-2.063,0-4.704,0.096-5.904,1.2
		c-1.152,1.056-1.632,2.111-2.16,3.312c-0.384,0.288-1.056,0.049-1.248-0.336c0.769-2.16,1.488-5.232,1.824-7.152
		c0.145-0.096,0.769-0.144,0.912,0c0.288,1.536,1.872,1.488,4.08,1.488h19.442c2.592,0,3.023-0.096,3.744-1.345
		c0.24-0.096,0.768-0.048,0.864,0.145c-0.528,1.968-0.864,5.856-0.721,7.297c-0.191,0.384-1.008,0.384-1.248,0.096
		c-0.144-1.2-0.479-2.977-1.2-3.504c-1.104-0.816-2.928-1.2-5.568-1.2h-3.408c-1.44,0-1.392,0.048-1.392,1.632V305.946z"/>
	<path fill="#FFFFFF" d="M214.301,288.664c0-4.992-0.096-5.712-2.929-6.048l-0.768-0.097c-0.288-0.191-0.192-1.056,0.096-1.2
		c2.064,0.097,3.696,0.145,5.665,0.145h9.024c3.072,0,5.904,0,6.48-0.145c0.288,0.816,0.576,4.272,0.769,6.385
		c-0.192,0.288-0.96,0.384-1.2,0.097c-0.721-2.257-1.152-3.937-3.648-4.561c-1.008-0.24-2.544-0.288-4.656-0.288h-3.456
		c-1.44,0-1.44,0.096-1.44,1.92v9.601c0,1.345,0.144,1.345,1.584,1.345h2.784c2.017,0,3.504-0.097,4.08-0.288
		c0.576-0.192,0.912-0.48,1.152-1.681l0.384-1.968c0.24-0.288,1.057-0.288,1.248,0.048c0,1.152-0.191,3.024-0.191,4.849
		c0,1.728,0.191,3.552,0.191,4.608c-0.191,0.336-1.008,0.336-1.248,0.048l-0.432-1.872c-0.192-0.864-0.528-1.584-1.488-1.824
		c-0.672-0.192-1.824-0.24-3.696-0.24h-2.784c-1.44,0-1.584,0.048-1.584,1.296v6.769c0,2.545,0.144,4.177,0.912,4.993
		c0.576,0.575,1.584,1.104,5.809,1.104c3.696,0,5.088-0.191,6.145-0.72c0.864-0.48,2.16-2.16,3.408-4.656
		c0.336-0.24,1.008-0.097,1.2,0.336c-0.336,1.68-1.536,5.376-2.16,6.672c-4.32-0.096-8.593-0.144-12.865-0.144h-4.32
		c-2.064,0-3.696,0.048-6.529,0.144c-0.287-0.144-0.384-0.911-0.096-1.199l1.584-0.145c2.736-0.24,2.977-0.96,2.977-6V288.664z"/>
	<path fill="#FFFFFF" d="M242.332,288.712c0-4.56-0.144-5.376-2.112-5.616l-1.536-0.191c-0.336-0.24-0.336-1.009,0.048-1.2
		c2.688-0.24,6.001-0.385,10.705-0.385c2.977,0,5.809,0.24,8.017,1.44c2.305,1.2,3.984,3.36,3.984,6.721
		c0,4.561-3.601,7.057-6,8.017c-0.24,0.288,0,0.769,0.239,1.152c3.841,6.192,6.385,10.032,9.649,12.769
		c0.816,0.721,2.016,1.248,3.313,1.345c0.239,0.096,0.288,0.479,0.048,0.672c-0.433,0.144-1.2,0.24-2.112,0.24
		c-4.08,0-6.528-1.2-9.937-6.049c-1.249-1.776-3.217-5.089-4.705-7.249c-0.72-1.056-1.488-1.536-3.408-1.536
		c-2.16,0-2.256,0.049-2.256,1.057v6.049c0,5.04,0.096,5.616,2.88,6l1.008,0.145c0.288,0.239,0.192,1.056-0.096,1.199
		c-2.16-0.096-3.792-0.144-5.712-0.144c-2.017,0-3.745,0.048-6.001,0.144c-0.288-0.144-0.384-0.863-0.096-1.199l1.2-0.145
		c2.784-0.336,2.88-0.96,2.88-6V288.712z M246.269,295.577c0,0.864,0,1.392,0.144,1.584c0.145,0.144,0.864,0.24,3.313,0.24
		c1.729,0,3.553-0.192,4.944-1.248c1.296-1.009,2.4-2.688,2.4-5.953c0-3.792-2.353-7.393-7.681-7.393
		c-2.977,0-3.12,0.192-3.12,1.536V295.577z"/>
	<path fill="#FFFFFF" d="M97.782,336.018c0.264,0.168,0.36,0.456,0.36,0.769c0,0.239-0.072,0.456-0.192,0.6l-5.593,0.528
		c-0.264-0.216-0.359-0.528-0.359-0.769c0-0.239,0.071-0.456,0.191-0.6L97.782,336.018z"/>
	<path fill="#FFFFFF" d="M111.485,332.586c0.217,0.527,0.385,1.296,0.385,1.943c-0.097,0.168-0.456,0.217-0.576,0.072
		c-0.408-1.056-1.128-1.752-2.112-1.752c-0.937,0-1.536,0.6-1.536,1.464c0,0.984,1.008,1.513,1.848,1.992
		c1.272,0.72,2.448,1.536,2.448,3.24c0,1.824-1.68,2.736-3.456,2.736c-1.128,0-1.968-0.24-2.568-0.72
		c-0.191-0.456-0.336-1.633-0.288-2.425c0.12-0.144,0.433-0.168,0.553-0.023c0.407,1.32,1.176,2.472,2.544,2.472
		c0.864,0,1.608-0.504,1.608-1.536c0-1.104-0.96-1.704-1.849-2.208c-1.392-0.792-2.376-1.632-2.376-2.952
		c0-1.752,1.44-2.736,3.265-2.736C110.382,332.153,111.27,332.394,111.485,332.586z"/>
	<path fill="#FFFFFF" d="M116.981,333.498c-0.408,0-0.432,0.071-0.432,0.575v4.488c0,1.393,0.168,2.665,1.752,2.665
		c0.24,0,0.456-0.049,0.647-0.12c0.217-0.072,0.528-0.336,0.601-0.336c0.192,0,0.288,0.264,0.24,0.407
		c-0.433,0.505-1.297,1.104-2.521,1.104c-2.064,0-2.496-1.152-2.496-2.592v-5.497c0-0.647-0.024-0.695-0.504-0.695h-0.672
		c-0.145-0.097-0.168-0.36-0.072-0.505c0.696-0.216,1.296-0.527,1.536-0.744c0.312-0.288,0.768-0.936,1.008-1.416
		c0.12-0.048,0.408-0.048,0.504,0.12v1.08c0,0.433,0.024,0.456,0.433,0.456h2.664c0.288,0.216,0.24,0.864,0.023,1.009H116.981z"/>
	<path fill="#FFFFFF" d="M123.846,338.418c0,1.656,0.408,2.76,2.232,2.76c0.647,0,1.416-0.264,1.944-0.72
		c0.312-0.288,0.479-0.647,0.479-1.392v-3.937c0-1.561-0.168-1.608-0.888-1.896l-0.313-0.12c-0.168-0.096-0.168-0.432,0.024-0.527
		c0.96-0.024,2.28-0.192,2.808-0.433c0.12,0.024,0.192,0.072,0.217,0.168c-0.049,0.456-0.072,1.2-0.072,2.088v4.033
		c0,1.896,0.072,2.616,0.744,2.616c0.288,0,0.6-0.049,0.936-0.12c0.145,0.12,0.168,0.6-0.023,0.695
		c-0.937,0.192-2.328,0.433-3.145,0.889c-0.12,0-0.24-0.072-0.288-0.168v-0.984c0-0.216-0.072-0.336-0.216-0.336
		c-0.72,0.456-1.896,1.248-3.313,1.248c-2.112,0-2.904-1.056-2.904-3v-4.009c0-1.512,0-1.728-0.72-2.04l-0.288-0.12
		c-0.145-0.12-0.12-0.456,0.048-0.527c1.104-0.024,2.04-0.24,2.568-0.433c0.144,0.024,0.216,0.072,0.24,0.168
		c-0.049,0.408-0.072,0.912-0.072,2.088V338.418z"/>
	<path fill="#FFFFFF" d="M142.493,338.442c0,1.896,0.024,2.784,0.696,2.784c0.264,0,0.672-0.12,1.032-0.24
		c0.168,0.048,0.191,0.647-0.024,0.768c-1.008,0.145-2.496,0.505-3.168,0.769c-0.145,0-0.264-0.072-0.264-0.192v-0.408
		c0-0.359,0-0.647-0.049-0.744h-0.096c-1.056,0.721-1.872,1.104-3.024,1.104c-2.664,0-4.44-2.088-4.44-4.608
		c0-3.36,2.545-5.521,5.809-5.521c0.816,0,1.345,0.12,1.608,0.216c0.12,0,0.144-0.144,0.144-0.336v-3.624
		c0-1.416-0.023-1.561-0.744-1.992l-0.239-0.145c-0.12-0.071-0.12-0.407,0-0.479c0.6-0.192,1.728-0.552,2.592-1.008
		c0.096,0,0.192,0.048,0.24,0.144c-0.024,0.72-0.072,1.92-0.072,2.977V338.442z M140.717,334.842c0-0.48-0.096-0.696-0.264-0.937
		c-0.36-0.504-1.08-1.008-2.017-1.008c-2.184,0-3.312,1.896-3.312,3.984c0,2.185,1.224,4.248,3.576,4.248
		c0.647,0,1.464-0.288,1.848-0.672c0.145-0.144,0.168-0.504,0.168-0.888V334.842z"/>
	<path fill="#FFFFFF" d="M146.885,335.058c0-0.936,0-1.056-0.648-1.488l-0.216-0.144c-0.096-0.097-0.096-0.36,0.023-0.433
		c0.553-0.191,1.921-0.815,2.473-1.176c0.12,0,0.216,0.048,0.24,0.144c-0.048,0.841-0.097,1.992-0.097,2.977v4.32
		c0,1.729,0.049,1.969,0.912,2.089l0.505,0.071c0.168,0.12,0.119,0.528-0.049,0.601c-0.72-0.048-1.416-0.072-2.256-0.072
		c-0.864,0-1.584,0.024-2.256,0.072c-0.168-0.072-0.216-0.48-0.048-0.601l0.504-0.071c0.888-0.12,0.912-0.36,0.912-2.089V335.058z
		 M148.877,328.217c0,0.864-0.601,1.248-1.272,1.248c-0.744,0-1.224-0.552-1.224-1.2c0-0.792,0.575-1.296,1.296-1.296
		C148.396,326.969,148.877,327.545,148.877,328.217z"/>
	<path fill="#FFFFFF" d="M161.525,337.122c0,3-2.064,5.16-5.064,5.16c-2.761,0-4.921-1.944-4.921-4.944
		c0-3.024,2.28-5.185,5.112-5.185C159.341,332.153,161.525,334.17,161.525,337.122z M156.364,332.873
		c-1.584,0-2.76,1.513-2.76,4.152c0,2.185,0.984,4.537,3.097,4.537c2.111,0,2.76-2.208,2.76-4.057
		C159.461,335.466,158.645,332.873,156.364,332.873z"/>
	<path fill="#FFFFFF" d="M174.917,336.018c0.264,0.168,0.36,0.456,0.36,0.769c0,0.239-0.072,0.456-0.192,0.6l-5.593,0.528
		c-0.264-0.216-0.359-0.528-0.359-0.769c0-0.239,0.071-0.456,0.191-0.6L174.917,336.018z"/>
</g>
<path d="M111.039,122.224l3.316-0.935l4.645,5.113v13.842l1.708,4.039c0,0-6.351-3.143-7.868-4.065
	c-1.518-0.922-1.564-3.197-0.806-4.903C112.793,133.607,111.039,122.224,111.039,122.224z"/>
<path d="M148.608,24.785c-0.085,1.521-0.191,3.137-0.305,4.851c-0.223,3.372-0.476,7.196-0.608,11.126
	c-0.012,0.338-0.02,0.676-0.025,1.014c5.719-0.771,11.13-1.16,16.133-1.16c17.566,0,29.052,4.889,32.339,13.766
	c0.951,2.568,1.161,5.332,0.662,8.237c24.497,18.812,40.294,48.392,40.294,81.665c0,11.384-1.853,22.333-5.266,32.569
	l-27.575-14.708c0,0-0.308-0.475-0.118-2.181c0.189-1.707-0.114-3.693-2.56-7.174c-2.601-3.699-3.875-5.379-5.688-8.507
	c-1.336-2.303-3.982-3.85-12.988-6.03c-9.007-2.181-15.928,0-15.928,0s-4.361-0.663-8.042-7.774
	c-3.681-7.109-3.43-12.703-3.239-13.842c0.189-1.137,1.896-0.947,4.455-0.663c2.561,0.284,1.327,2.655-0.284,4.267
	c-1.612,1.611-1.327,3.223,0.948,3.697c2.275,0.474,3.792-3.034,3.981-8.723c0.189-5.688-3.981-3.603-5.861-1.896
	c-1.88,1.707-1.249-2.085-0.585-4.834c0.663-2.75,4.171-2.275,4.171-2.275s-1.611-1.139-3.586,0
	c-1.976,1.137-2.956,5.403-2.956,5.403l-0.853,2.418l-0.569-0.712l-0.947,1.423l-1.735-1.423l-1.772,1.423
	c2.283,6.332,0,12.229,1.137,19.53c1.139,7.3,3.982,12.894,7.696,17.634s-0.017,10.618-3.714,17.255
	c-3.697,6.636-8.816,15.453-8.816,15.453s2.559-0.189,3.697,1.99c1.137,2.181,5.547,12.895,7.063,17.35
	c1.517,4.456-6.779,6.163-6.779,6.163l13.21,32.807c-9.318,2.773-19.187,4.271-29.406,4.271c-8.861,0-17.461-1.121-25.665-3.227
	l16.475-33.906c0,0-1.036,0.04-3.78-0.735c-2.613-0.739-4.541-1.638-3.826-5.751c0.736-4.232,2.939-14.074,3.697-16.78
	c0.663-2.361,0.907-4.306,2.719-4.146c5.792,1.973,11.168,3.776,12.803,4.24c4.01,1.138,6.285-0.38,11.594-9.48
	c5.309-9.102,7.963-14.411,8.723-17.065c0.758-2.654-0.38-6.067-2.275-8.343c-1.896-2.275-6.068-12.515-6.068-20.1
	c0-7.584,1.138-14.031,1.138-14.031l-0.691-3.437l2.863-2.504l1.504,1.77l0.753-2.487l0.893,1.703
	c0.375-4.412,2.45-7.814,5.396-8.229c3.799-0.538,7.595,4.081,8.476,10.317c0.881,6.234-1.484,11.725-5.282,12.263
	c-1.238,0.175-2.475-0.206-3.611-1.003l0.571,2.605l2.149,4.678l3.286,2.275l1.896-2.148l2.401,2.654l0.896-2.15l1.779,2.15V133
	h1.749l-0.886-2.572l1.771,0.23l-1.391-3.739l2.907,0.658l-2.275-3.147l2.275-0.477L175.128,122h0.379l-0.885-3.014l1.644,1.549
	l0.885-1.4l3.034,2.021l-1.517-4.551l-2.908-2.274l2.402-0.886l-1.138-2.781l-2.023-2.021l1.896-0.885l-1.643-2.992l1.896-1.686
	l-3.287-2.907l-2.401-0.632l3.287-0.822L173.105,96h3.16L172,93.853v-2.149l-3.529-1.338c17.79-12.204,27.598-25.266,24.115-34.667
	c-3.888-10.496-23.316-13.666-48.592-9.54c-0.112-1.679-0.156-3.517-0.09-5.522c0.38-11.251,1.691-21.02,0.783-25.553
	c-0.006-0.028-0.018-0.056-0.025-0.084c-0.074-0.516-0.186-1.023-0.366-1.513c-3.719-10.04-28.872-9.979-56.182,0.136
	c-27.31,10.116-46.433,26.455-42.713,36.496c0.524,1.414,1.486,2.621,2.806,3.635c0.396,0.343,0.817,0.643,1.257,0.852
	c0.015,0.007,0.036,0.02,0.051,0.027c0.11,0.063,0.228,0.125,0.342,0.187c3.065,1.775,16.508,11.549,22.096,18.578
	c-20.503,12.985-32.198,27.383-28.442,37.521c5.141,13.88,37.456,14.947,74.527,3.271c1.628,1.522,3.46,3.483,5.035,5.799
	c1.627-1.305,3.895-2.117,6.407-2.117c4.948,0,8.96,3.142,8.96,7.016c0,3.875-4.012,7.016-8.96,7.016
	c-0.809,0-1.589-0.092-2.334-0.248c0.876,6.969-0.558,7.833-0.558,7.833s15.959,8.723,7.6,24.649
	c-8.359,15.928-8.359,15.928-8.359,15.928l-19.066-3.384c-2.354-0.923-2.241-1.957-1.785-3.403c0.105-0.334,0.393-0.743,0.758-1.262
	c1.206-1.715,3.225-4.586,3.971-11.577c0.917-8.576-8.633-17.751-12.227-21.205c-0.453-0.435-0.797-0.765-0.988-0.972
	c-0.952-1.024,0.39-4.665,1.592-7.033c1.043,0.625,3.604,1.898,6.145,1.154c3.299-0.962,4.355-7.151,4.398-7.414l-0.986-0.163
	c-0.269,1.619-1.455,5.965-3.691,6.617c-2.755,0.804-5.732-1.295-5.763-1.316l-0.462-0.331l-0.27,0.5
	c-0.367,0.679-3.53,6.691-1.696,8.668c0.2,0.215,0.556,0.559,1.028,1.012c3.445,3.31,12.503,12.018,11.951,20.008
	c-1.437,0.292-6.389,1.605-9.774,6.375c-3.083,4.343-3.382,7.538-3.388,8.549L66.94,191.069l-2.415,4.068
	c-0.777,0.554-5.945,4.354-6.812,8.07c-0.416,1.781-0.37,5.831-0.197,9.712c-16.313-18.211-26.239-42.263-26.239-68.637
	c0-14.058,2.822-27.455,7.926-39.662c0.704-5.148,3.695-10.753,8.752-16.512c4.364-6.688,9.481-12.838,15.237-18.326
	c-4.897-4.41-10.811-8.809-13.873-10.844c-21.922,21.8-35.494,51.986-35.494,85.344c0,66.475,53.887,120.363,120.361,120.363
	s120.363-53.889,120.363-120.363C254.551,82.689,208.283,31.91,148.608,24.785z M149,114.294l-0.595-2.954l0.595-0.676V114.294z
	 M64.039,50.758c-8.783,0-13.035-1.792-13.379-1.944l-0.097-1.915c0.169,0.072,17.341,7.242,55.362-7.727
	c25.814-10.164,32.277-17.733,33.832-21.341c0.777-1.805,0.404-2.779,0.4-2.789l1.418,0.604c0.057,0.129,0.531,1.32-0.341,3.441
	c-1.892,4.602-9.401,12.156-34.442,22.016C87.186,48.822,73.166,50.758,64.039,50.758z M122.161,96.688
	c-18.793,6.962-36.103,7.004-38.662,0.094c-0.572-1.545-3.936-7.441-4.643-9.352c-0.087-0.232-0.153-0.471-0.204-0.713
	c4.37,5.618,20.901,5.113,38.748-1.498c18.195-6.74,31.219-17.402,30.34-24.518c0.21,0.322,0.393,0.659,0.525,1.019
	c0.662,1.788,2.672,8.19,3.288,9.853C154.113,78.482,140.953,89.727,122.161,96.688z M89.044,232.396
	c-2.64,0.371-5.105,0.466-7.368,0.402c-8.584-5.104-16.362-11.419-23.099-18.713c-0.214-4.157-0.322-8.795,0.11-10.65
	c0.669-2.869,4.44-5.982,5.91-7.104l1.995,7.979l28.885-14.985c-0.142,4.652,0.04,10.821,1.459,15.992
	c2.475,9.014,7.656,14.754,7.656,14.754S101.18,230.688,89.044,232.396z M106.109,211.917c-1.328-1.327-2.654-2.654-6.258-9.67
	c-3.602-7.016-3.871-19.964-3.871-19.964s-0.319,2.472-0.468,6.061l-0.067-0.129l-28.191,14.624l-1.833-7.332l2.243-3.697
	l28.664-16.202l0.282-0.16l-0.03-0.323c-0.004-0.032-0.271-3.324,3.197-8.21c2.932-4.13,7.232-5.51,8.85-5.899
	c-0.773,6.229-2.602,8.846-3.711,10.424c-0.414,0.589-0.741,1.055-0.893,1.536c-0.545,1.728-0.785,3.519,2.705,4.761
	c2.005,0.715,6.29,1.992,8.956,2.773c-0.87,4.218-5.11,24.762-5.847,27.869C108.959,212.087,107.437,213.244,106.109,211.917z"/>
</svg>
