<?xml version="1.0" standalone="no"?>
<!DOCTYPE svg PUBLIC "-//W3C//DTD SVG 20010904//EN"
 "http://www.w3.org/TR/2001/REC-SVG-20010904/DTD/svg10.dtd">
<svg version="1.0" xmlns="http://www.w3.org/2000/svg"
 width="1036.000000pt" height="1036.000000pt" viewBox="0 0 1036.000000 1036.000000"
 preserveAspectRatio="xMidYMid meet">
<metadata>
Created by potrace 1.11, written by Peter Selinger 2001-2013
</metadata>
<g transform="translate(0.000000,1036.000000) scale(0.100000,-0.100000)"
fill="#000000" stroke="none">
<path d="M4638 10355 c-1 -2 -37 -5 -78 -8 -41 -3 -108 -11 -147 -17 -40 -6
-77 -9 -82 -6 -5 4 -12 2 -16 -3 -3 -5 -13 -10 -23 -10 -9 0 -28 -2 -42 -5
-14 -3 -41 -8 -60 -11 -56 -10 -77 -14 -150 -30 -8 -2 -15 -4 -15 -5 0 -1 -9
-3 -20 -5 -42 -6 -89 -16 -97 -21 -4 -3 -16 -7 -25 -9 -31 -6 -96 -23 -153
-40 -30 -9 -62 -18 -70 -20 -14 -3 -189 -60 -218 -70 -7 -2 -14 -5 -17 -5 -3
-1 -21 -8 -42 -16 -20 -9 -44 -17 -52 -19 -49 -11 -357 -143 -503 -216 -54
-26 -98 -45 -98 -41 0 4 -4 3 -8 -3 -7 -10 -17 -16 -112 -67 -177 -97 -402
-243 -520 -338 -200 -162 -354 -330 -420 -460 -12 -25 -28 -56 -35 -70 -44
-88 -41 -256 5 -313 52 -66 84 -93 187 -162 129 -86 196 -136 201 -148 2 -4 8
-5 13 -1 5 3 9 1 9 -5 0 -5 15 -19 33 -30 19 -11 47 -32 63 -46 46 -40 53 -45
64 -45 5 0 10 -3 10 -7 0 -5 28 -30 62 -58 90 -72 139 -117 258 -235 159 -158
150 -141 90 -184 -27 -20 -52 -36 -55 -36 -3 0 -123 -81 -150 -102 -5 -5 -46
-35 -90 -67 -44 -32 -89 -67 -101 -77 -11 -11 -42 -37 -70 -59 -102 -83 -254
-230 -352 -340 -65 -74 -198 -271 -207 -308 -4 -15 -11 -27 -15 -27 -7 0 -45
-104 -56 -152 -33 -151 -18 -267 49 -380 26 -43 101 -128 114 -128 4 0 16 -9
27 -19 36 -32 164 -101 190 -101 8 0 16 -4 18 -9 2 -6 14 -11 28 -13 14 -2 34
-9 45 -15 11 -6 23 -11 28 -11 4 -1 33 -6 65 -13 31 -7 62 -13 67 -15 6 -1 28
-5 50 -8 22 -4 47 -8 55 -11 8 -2 47 -7 85 -11 39 -3 84 -8 100 -10 17 -2 118
-4 225 -5 175 -1 236 1 405 16 28 3 76 7 109 10 32 2 66 7 75 9 9 3 41 7 71
11 59 6 95 11 150 22 19 3 43 7 53 8 9 2 18 3 20 5 1 1 13 3 27 5 14 1 36 5
50 9 13 3 42 8 65 12 46 7 70 12 70 14 0 1 12 3 26 5 14 2 45 9 70 15 24 7 55
14 69 16 14 3 33 7 42 10 9 3 27 7 40 9 13 3 83 21 157 41 73 20 138 37 145
39 6 1 18 5 26 8 8 3 27 8 42 11 15 3 37 10 50 15 13 5 25 9 28 9 3 0 17 5 32
11 24 9 31 5 82 -47 30 -31 65 -70 78 -87 12 -16 26 -34 31 -40 4 -5 14 -19
22 -30 11 -17 17 -18 32 -8 30 20 103 52 126 56 12 1 27 5 32 8 14 8 144 4
185 -5 100 -23 191 -89 230 -166 26 -51 31 -145 10 -187 -38 -75 -137 -163
-184 -163 -9 0 -16 -4 -16 -8 0 -4 -10 -9 -22 -10 -22 -2 -58 -9 -68 -12 -7
-3 -90 -1 -120 2 -23 3 -24 1 -21 -42 9 -99 3 -207 -14 -251 -6 -16 10 -33 66
-69 39 -25 199 -190 199 -206 0 -8 3 -14 8 -14 4 0 22 -27 40 -60 19 -33 31
-60 28 -60 -3 0 3 -19 14 -42 26 -62 39 -208 25 -288 -2 -14 -7 -40 -10 -58
-10 -52 -70 -193 -129 -302 -30 -55 -51 -100 -48 -100 4 0 2 -4 -4 -8 -6 -4
-28 -41 -50 -84 -179 -349 -176 -343 -210 -341 -32 2 -89 11 -89 13 0 1 -16 3
-35 5 -19 2 -35 4 -35 5 0 1 -11 3 -25 6 -14 2 -41 7 -60 10 -19 4 -44 8 -55
10 -11 1 -33 5 -50 8 -16 4 -46 9 -65 12 -19 3 -45 7 -57 10 -43 8 -68 12
-168 30 -55 9 -111 24 -125 32 -37 23 -59 53 -54 76 3 12 7 31 10 44 3 13 13
33 24 44 30 32 92 156 116 230 12 38 20 68 18 68 -2 0 0 10 5 23 26 69 32 252
10 328 -7 24 -13 46 -13 49 -1 3 -8 24 -18 45 -9 22 -19 47 -22 55 -4 8 -14
27 -24 42 -9 14 -30 48 -46 74 -64 106 -131 185 -296 352 -100 101 -104 108
-103 146 2 36 9 81 13 81 1 0 3 8 5 17 5 25 53 128 60 128 3 0 25 -10 48 -22
29 -14 64 -22 111 -24 72 -3 109 9 146 46 24 24 79 120 85 149 3 12 8 31 11
44 11 41 9 61 -6 64 -11 3 -20 -15 -33 -60 -23 -80 -69 -161 -104 -184 -27
-18 -151 -28 -163 -14 -3 3 -30 18 -62 33 l-56 27 -26 -55 c-54 -114 -73 -188
-67 -270 0 -12 50 -71 118 -140 141 -144 193 -200 193 -211 0 -5 9 -15 20 -23
11 -8 20 -19 20 -25 0 -5 9 -21 20 -35 36 -45 80 -115 80 -127 0 -7 5 -13 10
-13 6 0 10 -9 10 -20 0 -11 5 -20 10 -20 6 0 10 -11 10 -24 0 -13 4 -26 9 -28
5 -1 12 -16 15 -33 3 -16 9 -46 13 -65 5 -19 8 -53 8 -74 0 -35 -3 -40 -30
-49 -61 -19 -169 -70 -188 -88 -12 -10 -25 -19 -30 -19 -14 0 -120 -110 -154
-160 -41 -61 -83 -146 -76 -154 4 -3 2 -6 -4 -6 -9 0 -18 -26 -29 -80 -7 -33
-22 -92 -26 -94 -1 -1 -19 -10 -38 -20 -37 -18 -72 -38 -80 -46 -3 -3 -12 -6
-20 -8 -8 -2 -16 -8 -18 -13 -2 -5 -9 -9 -16 -9 -8 0 -25 -9 -40 -21 -14 -11
-26 -17 -26 -12 0 4 -4 3 -8 -3 -4 -6 -22 -18 -39 -27 -18 -9 -48 -25 -65 -34
-18 -9 -35 -19 -38 -22 -8 -9 -82 -51 -112 -64 -16 -6 -28 -15 -28 -19 0 -4
-6 -8 -13 -8 -7 0 -29 -11 -48 -25 -20 -13 -39 -21 -43 -18 -3 4 -6 1 -6 -5 0
-7 -4 -12 -9 -12 -5 0 -51 -25 -102 -55 -52 -30 -99 -55 -106 -55 -6 0 -13 -4
-15 -9 -1 -5 -25 -20 -53 -35 -27 -14 -66 -35 -85 -47 -19 -11 -44 -25 -55
-32 -11 -6 -23 -10 -27 -9 -5 1 -8 -2 -8 -8 0 -5 -5 -10 -11 -10 -16 0 -31
-19 -79 -101 -24 -42 -58 -86 -75 -98 -32 -22 -135 -120 -172 -165 -12 -14
-34 -52 -50 -84 -27 -56 -28 -61 -30 -242 -1 -102 -6 -183 -10 -181 -13 5 -73
78 -206 246 -4 6 -25 35 -47 65 -22 30 -43 60 -47 65 -44 54 -223 347 -223
364 0 5 -3 11 -7 13 -8 3 -126 238 -161 318 -10 25 -25 59 -32 75 -8 17 -14
32 -15 35 -1 3 -5 14 -10 25 -40 98 -75 201 -74 219 0 5 -4 12 -11 16 -6 4
-12 20 -14 36 -2 16 -5 30 -6 32 -1 1 -3 5 -5 10 -1 4 -4 14 -7 22 -7 16 -14
42 -59 220 -34 137 -66 307 -74 400 -2 19 -4 35 -5 35 -1 0 -3 14 -5 30 -1 17
-5 48 -9 70 -16 112 -31 654 -18 679 3 5 7 37 8 70 2 34 6 79 8 101 10 91 17
151 21 175 4 24 7 48 20 130 3 19 7 42 10 50 2 8 6 31 9 50 3 19 17 80 31 135
15 55 28 110 31 122 2 12 8 33 14 47 5 13 6 27 2 31 -3 3 -1 9 5 13 7 4 14 19
16 33 3 15 18 64 33 110 16 46 29 86 29 89 1 3 8 21 17 41 9 20 19 47 23 60 4
13 11 29 15 34 4 6 11 26 16 45 4 19 9 40 10 45 3 11 15 65 18 80 1 6 4 15 7
20 4 6 12 28 19 50 33 108 168 326 267 435 13 14 56 72 95 130 40 58 74 107
77 110 3 3 28 34 56 70 27 36 52 67 55 70 3 3 13 15 21 26 23 34 145 170 247
274 l93 95 -29 25 c-16 14 -53 45 -82 70 -29 25 -57 50 -64 55 -6 6 -40 32
-76 60 -36 27 -67 52 -70 55 -3 3 -30 23 -60 45 -30 22 -56 43 -58 47 -2 5
-10 8 -17 8 -7 0 -15 3 -17 8 -1 4 -22 19 -44 34 l-41 27 -96 -102 c-52 -56
-110 -120 -128 -141 -19 -22 -45 -51 -58 -65 -13 -14 -35 -42 -50 -61 -14 -19
-29 -37 -32 -40 -3 -3 -43 -54 -88 -115 -45 -60 -86 -116 -91 -122 -21 -26
-178 -271 -225 -353 -152 -259 -324 -639 -399 -880 -10 -30 -20 -62 -23 -70
-4 -8 -7 -18 -8 -22 -2 -5 -3 -9 -5 -10 -1 -2 -3 -10 -5 -19 -1 -8 -14 -53
-28 -100 -24 -77 -52 -188 -63 -248 -3 -13 -11 -50 -19 -83 -7 -32 -14 -61
-14 -63 -1 -3 -2 -6 -2 -7 -1 -2 -3 -16 -5 -33 -8 -66 -12 -90 -14 -90 -4 0
-10 -39 -24 -160 -2 -16 -7 -55 -10 -85 -21 -171 -24 -270 -22 -610 2 -206 6
-385 9 -397 3 -12 9 -53 12 -90 4 -37 9 -79 11 -93 2 -14 7 -45 10 -70 2 -25
7 -55 9 -67 13 -59 17 -83 30 -158 39 -233 183 -705 281 -923 13 -29 24 -55
24 -57 0 -20 180 -377 249 -493 17 -29 31 -54 31 -56 0 -2 27 -44 60 -94 33
-51 60 -94 60 -98 0 -3 6 -12 13 -19 6 -7 28 -37 47 -65 19 -28 50 -70 67 -93
18 -23 33 -45 33 -49 0 -4 12 -21 27 -37 16 -16 53 -62 83 -101 30 -40 71 -90
90 -111 19 -21 53 -59 75 -85 51 -61 317 -326 380 -379 26 -22 59 -52 75 -66
15 -14 42 -36 60 -50 17 -13 41 -32 53 -43 51 -42 148 -116 252 -188 60 -43
115 -81 121 -85 14 -11 30 -21 165 -102 127 -77 357 -199 459 -245 36 -16 88
-39 115 -52 75 -33 307 -123 335 -129 3 -1 50 -16 105 -34 83 -27 149 -47 220
-65 6 -2 17 -6 25 -9 21 -8 161 -40 186 -42 11 -1 24 -4 30 -7 9 -5 71 -19
109 -23 11 -2 40 -6 65 -10 25 -4 51 -8 58 -8 6 0 12 -3 12 -6 0 -3 10 -6 23
-7 30 -1 137 -13 163 -18 27 -6 106 -14 224 -23 186 -14 719 -7 840 12 14 2
52 7 85 10 33 4 71 9 85 10 14 2 48 6 75 10 28 5 59 9 70 11 11 1 22 3 25 4 6
3 10 4 75 14 50 9 71 13 103 20 9 2 59 14 111 26 52 11 97 23 101 25 3 2 17 6
31 9 95 19 323 94 514 169 72 28 132 52 135 52 32 7 346 164 478 240 67 38
131 75 141 80 10 6 36 22 57 36 22 14 59 39 84 55 133 86 363 258 454 339 13
11 47 40 76 65 70 58 384 372 431 430 20 25 47 57 60 71 64 70 239 296 239
308 0 5 4 11 9 13 16 6 207 302 290 450 12 21 30 54 41 73 11 20 20 42 20 49
0 8 4 16 9 18 13 5 138 267 139 292 0 5 4 12 9 15 4 3 14 24 22 46 7 22 22 58
32 81 33 75 77 203 71 208 -3 3 1 6 8 6 7 0 11 3 7 6 -3 4 1 23 9 43 15 39 81
260 90 301 3 14 10 43 16 65 5 22 12 51 14 65 3 14 8 34 11 45 8 24 9 30 17
75 4 19 8 46 11 60 3 14 7 39 10 55 3 17 7 41 10 54 2 13 7 49 11 80 3 31 8
65 11 76 4 19 7 44 17 140 21 201 28 671 13 845 -12 135 -16 181 -23 225 -3
22 -7 60 -9 85 -2 25 -4 45 -5 45 -2 0 -9 36 -15 89 -4 27 -9 58 -11 70 -3 12
-7 31 -10 44 -2 12 -6 32 -8 45 -17 84 -37 171 -43 187 -3 8 -7 22 -8 30 -4
28 -53 204 -75 270 -12 36 -23 74 -26 85 -2 11 -27 79 -55 150 -28 72 -53 140
-56 153 -3 12 -9 22 -14 22 -5 0 -9 9 -9 21 0 11 -6 33 -14 47 -8 15 -58 115
-111 222 -53 107 -105 211 -117 230 -78 135 -177 294 -196 316 -5 5 -15 20
-21 33 -7 12 -19 30 -26 39 -7 9 -61 80 -119 157 -58 77 -118 154 -133 171
-15 17 -46 52 -68 79 -22 26 -60 69 -85 95 -25 26 -73 76 -106 111 -54 56
-136 135 -254 242 -19 18 -60 52 -90 77 -30 25 -57 47 -60 50 -3 3 -21 17 -42
32 -20 15 -42 34 -50 41 -7 7 -58 45 -113 84 -55 40 -105 77 -112 83 -7 5 -24
15 -38 22 -14 6 -25 15 -25 20 0 4 -5 8 -10 8 -6 0 -16 5 -23 10 -18 16 -185
119 -252 156 -71 38 -393 203 -400 203 -3 1 -35 15 -73 32 -37 17 -71 32 -77
33 -5 1 -57 20 -115 43 -58 23 -166 60 -240 83 -74 23 -142 45 -150 48 -8 3
-24 7 -35 9 -27 6 -37 9 -55 16 -8 3 -26 8 -40 10 -14 3 -34 7 -45 10 -167 40
-314 68 -485 92 -24 4 -48 9 -51 11 -4 2 -14 2 -21 -1 -15 -6 -20 -45 -22
-162 -1 -35 -3 -63 -6 -63 -3 0 -5 -33 -5 -73 1 -39 -1 -76 -4 -81 -2 -5 -5
-59 -8 -120 -2 -61 -5 -124 -6 -141 -2 -29 -1 -30 43 -29 25 1 72 4 105 8 106
12 138 15 255 22 201 11 442 7 599 -11 138 -15 366 -67 446 -101 80 -33 90
-37 95 -39 13 -4 66 -31 75 -38 6 -4 33 -22 61 -40 29 -18 72 -51 97 -74 52
-48 127 -144 127 -161 0 -7 5 -12 12 -12 6 0 9 -3 5 -6 -3 -4 1 -21 10 -38 15
-28 20 -45 40 -126 3 -14 6 -72 5 -130 l0 -105 61 -49 c34 -26 89 -71 122 -99
79 -68 368 -357 425 -426 25 -30 50 -59 56 -65 5 -6 41 -51 79 -101 38 -49 73
-91 77 -93 4 -2 8 -8 8 -13 0 -8 66 -107 80 -119 3 -3 26 -38 50 -78 25 -40
53 -85 62 -100 70 -111 226 -418 268 -527 4 -11 12 -31 18 -45 33 -79 72 -184
72 -196 0 -8 4 -22 9 -32 9 -15 23 -54 22 -59 0 -2 6 -18 15 -38 8 -19 14 -37
14 -40 0 -3 0 -6 1 -7 0 -2 2 -10 4 -18 1 -8 14 -58 29 -110 33 -124 71 -302
82 -385 3 -22 7 -47 9 -55 7 -27 19 -134 19 -182 1 -27 3 -48 6 -48 6 0 12
-91 14 -215 0 -49 5 -93 10 -97 6 -4 5 -12 -2 -20 -6 -8 -7 -19 -2 -28 5 -8 6
-18 4 -22 -3 -4 -7 -74 -10 -155 -3 -82 -7 -166 -9 -188 -14 -150 -23 -230
-25 -230 -1 0 -3 -11 -5 -25 -6 -60 -16 -120 -30 -185 -9 -38 -18 -86 -21
-105 -4 -19 -22 -91 -41 -160 -19 -69 -36 -129 -37 -135 -1 -5 -5 -16 -9 -22
-5 -7 -6 -17 -2 -22 3 -5 1 -12 -5 -16 -5 -3 -10 -15 -10 -25 0 -40 1 -41
-340 142 -121 65 -209 112 -305 163 -88 47 -149 80 -277 149 -35 18 -92 48
-126 66 -35 18 -66 38 -68 45 -8 19 -10 105 -3 105 8 0 -14 96 -24 106 -4 4
-7 15 -7 24 0 15 -85 149 -179 282 -23 32 -41 62 -41 68 0 5 -4 10 -10 10 -5
0 -10 7 -10 15 0 8 -3 15 -8 15 -7 0 -12 8 -42 66 -40 78 -172 160 -325 200
-5 2 -53 15 -105 29 -114 31 -118 32 -161 39 -19 3 -45 8 -59 12 -56 14 -345
12 -420 -3 -104 -21 -123 -19 -177 13 -80 47 -170 144 -223 243 -14 25 -28 48
-32 49 -5 2 -8 11 -8 21 0 9 -6 25 -13 36 -17 25 -64 159 -72 204 -3 19 -8 38
-11 42 -5 9 -15 100 -18 170 -3 62 7 85 41 96 43 14 172 0 186 -20 10 -15 2
-82 -12 -99 -6 -7 -27 -31 -46 -53 -56 -64 -51 -112 15 -141 30 -13 53 -11 85
10 23 15 73 96 59 96 -4 0 -2 6 4 13 5 6 13 32 17 57 3 25 8 61 11 80 5 34 8
120 4 130 -1 3 -3 17 -5 31 -6 44 -34 69 -78 69 -40 0 -106 -29 -140 -61 -12
-10 -26 -19 -33 -19 -13 0 -36 24 -29 31 2 3 7 30 10 61 3 31 9 68 15 82 5 14
7 26 4 26 -11 0 32 62 53 75 12 8 38 16 58 17 42 3 41 22 -1 23 -42 2 -93 -21
-120 -53 -26 -30 -57 -90 -57 -109 0 -7 -4 -13 -9 -13 -4 0 -8 -8 -8 -17 0
-21 -23 -90 -33 -99 -4 -4 -7 -17 -7 -28 -1 -20 -1 -20 -14 -3 -13 17 -15 16
-34 -10 l-20 -27 -31 27 c-35 29 -50 27 -85 -12 -18 -19 -18 -26 -7 -74 26
-107 27 -124 21 -492 -1 -82 1 -166 4 -185 3 -19 8 -51 11 -70 2 -19 7 -46 11
-60 3 -14 7 -38 10 -53 2 -15 8 -36 13 -46 6 -10 7 -21 4 -25 -3 -3 -1 -6 6
-6 7 0 10 -4 7 -9 -3 -5 1 -26 10 -47 8 -22 18 -48 23 -59 24 -61 87 -186 112
-223 16 -24 29 -45 29 -47 0 -4 53 -77 83 -115 7 -8 21 -33 32 -55 23 -50 26
-179 5 -235 -1 -3 -3 -9 -4 -15 -1 -5 -7 -23 -14 -38 -7 -16 -12 -30 -12 -32
0 -10 -64 -142 -75 -155 -8 -8 -15 -22 -17 -30 -2 -8 -6 -17 -9 -20 -3 -3 -19
-30 -36 -60 -41 -76 -46 -84 -98 -175 -25 -44 -50 -87 -55 -95 -6 -8 -13 -22
-17 -30 -4 -8 -29 -53 -56 -100 -27 -47 -63 -110 -80 -140 -16 -30 -39 -68
-50 -83 -21 -31 -20 -36 11 -42 41 -8 122 -65 122 -86 0 -4 13 -36 30 -71 27
-59 51 -116 55 -128 1 -3 9 -23 18 -44 10 -22 20 -50 23 -63 4 -13 10 -23 15
-23 5 0 9 -10 9 -23 0 -13 4 -27 9 -33 4 -5 16 -31 26 -59 10 -27 23 -55 28
-62 5 -7 6 -17 2 -23 -3 -5 -1 -10 4 -10 6 0 10 -3 9 -7 -1 -5 3 -18 10 -30 7
-12 12 -26 11 -30 -1 -4 5 -24 14 -43 32 -73 22 -135 -30 -181 -36 -32 -145
-87 -189 -95 -35 -6 -37 -14 -17 -64 6 -14 48 -117 93 -230 45 -113 87 -216
93 -230 6 -14 11 -27 12 -30 15 -44 141 -353 157 -384 5 -10 11 -26 13 -35 2
-9 9 -29 16 -46 7 -16 12 -33 11 -37 -1 -5 2 -8 8 -8 6 0 9 -3 8 -7 0 -5 2
-17 7 -28 63 -154 85 -219 78 -224 -16 -15 -304 -85 -433 -106 -25 -4 -54 -9
-65 -11 -11 -3 -36 -6 -55 -9 -19 -2 -57 -7 -85 -11 -27 -4 -63 -8 -80 -9 -16
-2 -30 -4 -30 -5 0 -3 -118 -9 -259 -14 -76 -3 -141 -7 -143 -10 -3 -3 -16 -1
-29 4 -14 6 -26 6 -29 -1 -4 -5 -10 -7 -15 -4 -4 2 -59 7 -121 10 -119 5 -223
13 -274 20 -16 2 -50 6 -75 8 -51 6 -114 15 -150 22 -14 3 -38 7 -55 10 -56
10 -170 33 -190 39 -5 2 -29 7 -53 11 -23 4 -44 11 -47 15 -2 4 18 50 44 103
27 54 46 97 42 97 -3 0 -1 4 4 8 15 10 35 49 35 67 0 8 5 15 10 15 6 0 10 5
10 11 0 7 21 55 47 108 26 53 47 99 45 103 -1 5 2 8 8 8 5 0 10 4 10 9 0 9 63
140 299 623 50 104 91 191 90 195 -1 5 -37 16 -81 25 -44 10 -93 24 -110 33
-17 8 -36 15 -42 16 -20 1 -56 57 -64 101 -5 24 -5 59 -1 78 4 19 10 49 12 65
3 17 15 75 26 130 12 55 27 123 32 150 6 28 15 68 21 90 5 22 11 49 13 60 2
11 4 21 5 23 3 2 3 2 15 57 4 22 9 45 11 50 2 6 5 19 8 30 42 178 71 219 136
192 27 -11 445 -148 463 -152 9 -2 22 -7 28 -11 19 -11 123 -12 149 0 42 18
83 49 115 86 16 19 38 42 48 52 9 10 17 23 17 28 0 6 5 10 11 10 5 0 7 4 4 10
-3 5 -2 10 2 10 8 0 91 127 122 188 8 15 17 29 20 32 3 3 16 25 29 50 13 25
31 59 41 75 19 32 69 123 105 190 11 22 25 43 29 46 5 3 8 9 8 13 -1 3 17 42
38 86 22 44 38 80 34 80 -3 0 -1 6 4 13 6 6 19 37 30 67 38 106 15 220 -71
350 -52 77 -71 113 -101 185 -9 22 -21 49 -26 60 -42 97 -97 305 -116 440 -8
57 -8 295 0 295 4 0 3 8 -2 19 -6 10 -8 21 -4 24 3 3 7 35 9 70 2 36 6 82 9
103 25 191 25 211 -1 297 -4 13 10 32 48 68 29 27 57 49 62 49 4 0 21 -14 36
-31 l27 -32 8 29 c5 16 9 35 11 42 5 26 13 24 29 -7 8 -17 17 -31 18 -31 2 0
4 16 5 35 2 19 9 52 17 74 7 21 11 42 8 45 -4 3 -1 6 5 6 7 0 11 3 10 8 -4 13
29 66 58 96 107 107 248 74 353 -83 36 -54 75 -146 86 -203 3 -16 8 -40 11
-55 14 -63 3 -249 -17 -293 -1 -3 -3 -9 -4 -15 0 -5 -11 -30 -24 -54 -28 -53
-75 -102 -117 -123 -39 -19 -127 -15 -160 7 -23 15 -29 12 -24 -10 1 -5 4 -25
7 -43 3 -18 22 -68 44 -113 21 -44 39 -83 39 -88 0 -4 11 -18 25 -31 14 -13
25 -19 25 -14 0 5 4 4 8 -2 4 -6 25 -22 46 -37 l39 -26 38 42 38 42 47 -53 48
-52 14 32 c9 18 14 36 14 41 -4 18 17 4 42 -28 16 -19 31 -35 35 -35 3 0 5 27
4 60 -1 62 -1 62 45 63 12 0 22 1 22 2 0 1 -7 22 -15 45 -20 57 -20 57 20 52
l35 -4 -30 72 -30 72 38 -5 c20 -3 45 -9 55 -12 9 -4 17 -4 17 -1 0 7 -41 67
-51 76 -3 3 -11 15 -17 27 -11 20 -9 22 28 28 22 4 40 9 40 12 0 3 -14 20 -32
38 -17 18 -32 41 -34 51 -1 11 -6 39 -12 63 l-10 43 29 -28 30 -29 18 23 c19
26 36 22 104 -23 39 -27 43 -26 26 7 -6 11 -13 32 -15 46 -3 15 -9 31 -15 37
-5 5 -9 19 -9 32 0 13 -4 23 -10 23 -5 0 -10 7 -10 15 0 8 -4 15 -9 15 -5 0
-16 6 -23 13 -7 7 -25 20 -40 30 -28 17 -37 37 -18 37 6 0 26 6 45 14 l34 15
-25 57 c-14 32 -41 73 -60 90 -19 18 -34 37 -34 41 0 5 16 15 35 22 l35 12
-34 62 -35 62 35 29 c31 26 45 56 27 56 -5 0 -32 23 -62 50 -46 41 -84 61
-123 64 -3 1 -9 4 -12 7 -4 3 21 12 54 19 33 7 60 14 60 16 0 2 -13 26 -30 52
-16 27 -30 51 -30 54 0 2 21 3 48 3 26 -1 51 1 56 3 5 3 -28 22 -72 43 -79 37
-80 38 -78 74 1 20 -1 41 -4 46 -4 5 -33 19 -65 32 -66 25 -76 39 -43 54 21
10 226 161 254 187 7 6 26 22 44 36 107 83 400 373 400 395 0 3 8 13 18 23
103 110 218 335 238 468 9 62 7 147 -4 199 -30 139 -160 282 -322 356 -97 44
-108 49 -122 49 -8 0 -18 3 -22 7 -3 4 -12 8 -19 9 -7 1 -50 12 -97 24 -47 13
-100 23 -117 24 -18 0 -33 3 -33 6 0 3 -17 6 -37 7 -21 0 -52 4 -70 7 -18 3
-81 9 -140 12 -59 3 -119 6 -133 7 -14 2 -33 -1 -42 -6 -10 -4 -18 -4 -18 0 0
4 -13 8 -30 8 -16 0 -30 -2 -30 -5 0 -3 -44 -5 -98 -6 -103 -1 -283 -12 -304
-19 -7 -2 -42 -6 -78 -10 -36 -3 -78 -7 -95 -10 -117 -18 -151 -22 -154 -19
-4 4 -3 184 2 406 1 43 6 78 10 78 4 0 3 9 -3 20 -6 11 -7 20 -3 20 5 0 9 21
9 48 1 26 4 88 8 137 10 131 11 493 2 540 -11 58 -52 133 -91 169 -35 33 -134
96 -157 100 -7 2 -25 8 -39 14 -27 11 -97 31 -134 38 -48 9 -82 16 -110 20
-35 6 -422 14 -427 9z m823 -378 c26 -20 17 -96 -19 -169 -33 -67 -129 -186
-149 -187 -7 -1 -13 -5 -13 -10 0 -9 -174 -151 -184 -151 -3 0 -41 -25 -86
-55 -44 -30 -80 -51 -80 -47 0 4 -4 1 -9 -6 -4 -7 -14 -14 -22 -16 -8 -1 -30
-12 -49 -24 -71 -46 -469 -237 -557 -268 -29 -10 -53 -22 -53 -27 0 -4 -4 -6
-9 -2 -5 3 -12 1 -16 -5 -4 -6 -11 -8 -16 -5 -5 4 -9 1 -9 -4 0 -6 -3 -10 -7
-9 -8 1 -32 -7 -68 -23 -65 -29 -255 -96 -260 -91 -3 3 -5 -1 -5 -8 0 -7 -3
-10 -7 -7 -3 4 -11 3 -17 -2 -7 -6 -23 -12 -37 -14 -13 -3 -41 -12 -62 -20
-20 -9 -37 -13 -37 -10 0 3 -7 -1 -17 -8 -9 -8 -18 -13 -20 -11 -2 2 -32 -5
-66 -16 -34 -11 -82 -26 -107 -33 -25 -7 -49 -14 -55 -15 -77 -22 -164 -46
-180 -49 -11 -2 -63 -13 -115 -25 -120 -27 -231 -47 -300 -55 -19 -2 -44 -6
-55 -8 -18 -4 -111 -14 -210 -23 -51 -4 -351 -4 -390 0 -108 12 -161 21 -244
42 -52 14 -96 25 -97 27 -3 3 -6 49 -5 66 1 8 7 11 18 6 10 -4 23 -8 28 -9 6
-2 21 -6 35 -9 14 -4 37 -9 53 -12 15 -3 37 -7 50 -10 84 -17 567 -30 567 -15
0 3 24 6 53 8 51 2 112 9 112 12 0 1 18 3 40 5 37 3 84 10 139 21 23 5 53 10
106 19 19 3 55 11 80 16 25 6 53 12 63 14 10 2 27 7 37 10 10 3 27 8 37 10 82
16 342 92 423 122 8 3 20 7 26 8 36 8 391 142 479 181 22 10 42 18 45 19 3 0
15 6 28 13 12 7 27 10 32 7 6 -3 10 -2 10 3 0 7 73 42 100 47 3 1 72 34 153
73 82 40 153 72 158 72 5 0 9 4 9 8 0 4 15 15 33 23 82 39 287 163 352 213 58
45 115 93 160 135 57 54 131 148 128 162 -2 5 1 9 6 9 11 0 23 45 30 113 1 11
24 8 42 -6z m344 -2040 c39 -116 70 -216 70 -222 0 -5 3 -14 6 -20 14 -23 -15
-165 -33 -165 -5 0 -7 -4 -4 -8 13 -22 -115 -180 -225 -277 -77 -69 -281 -215
-300 -215 -4 0 -14 -6 -21 -13 -18 -18 -34 -27 -250 -134 -102 -51 -192 -93
-200 -93 -8 0 -18 -4 -23 -8 -9 -8 -156 -65 -200 -78 -5 -2 -50 -17 -100 -34
-49 -17 -99 -32 -110 -35 -11 -2 -64 -16 -117 -29 -105 -27 -237 -54 -308 -62
-24 -3 -47 -7 -50 -9 -5 -3 -90 -9 -250 -19 -14 -1 -31 3 -37 8 -8 5 -13 4
-13 -3 0 -7 -3 -10 -7 -8 -5 3 -44 8 -87 12 -93 8 -102 10 -175 31 -141 41
-178 76 -271 261 -41 81 -78 150 -82 151 -5 2 -8 12 -8 22 0 9 -7 23 -15 30
-9 7 -14 15 -11 17 2 2 -4 21 -14 41 -10 20 -17 38 -15 40 1 1 19 -12 39 -30
84 -74 238 -112 461 -112 83 0 177 3 210 7 70 9 203 28 225 32 17 4 209 46
225 50 6 1 17 5 25 8 34 14 129 34 134 29 3 -3 6 0 6 6 0 7 10 12 23 12 13 0
28 5 35 12 7 7 12 9 12 6 0 -4 37 7 83 23 45 17 96 35 114 40 18 5 35 14 38
19 4 6 13 10 21 10 19 0 75 25 284 127 96 48 177 90 178 95 2 4 8 8 13 8 6 0
37 18 70 40 33 22 64 40 68 40 4 0 16 8 27 18 11 9 42 33 69 51 28 19 52 37
55 40 3 4 34 31 70 61 160 135 258 275 275 393 4 26 10 47 14 47 3 0 38 -96
76 -213z m-35 -1829 c0 -28 -3 -49 -6 -46 -9 9 -16 68 -10 84 10 27 16 14 16
-38z m-1624 -2000 c-7 -44 -13 -79 -16 -88 -1 -3 -3 -9 -4 -15 -12 -68 -64
-184 -120 -270 -31 -46 -49 -96 -50 -135 -1 -33 40 -80 90 -105 28 -14 60 -25
70 -25 11 0 24 -4 29 -9 6 -4 33 -14 60 -21 28 -7 56 -17 63 -23 6 -5 12 -7
12 -3 0 3 15 0 33 -7 17 -8 49 -17 70 -21 21 -4 41 -14 44 -21 3 -8 -2 -47
-11 -87 -8 -40 -18 -84 -20 -98 -4 -20 -48 -230 -72 -339 -3 -14 -7 -37 -10
-51 -8 -49 -10 -55 -15 -65 -4 -5 -5 -18 -4 -27 2 -10 -1 -18 -6 -18 -6 0 -8
-4 -5 -8 6 -10 -77 -401 -101 -471 -20 -61 -61 -111 -91 -111 -11 0 -40 23
-66 53 -26 28 -54 59 -62 68 -8 9 -14 19 -14 22 0 4 -20 38 -45 77 -25 38 -42
70 -39 70 4 0 2 6 -4 13 -28 33 -110 207 -117 247 -1 3 -8 30 -17 60 -9 30
-19 69 -22 85 -3 17 -10 55 -16 85 -18 94 -37 271 -39 359 -1 19 -3 32 -6 29
-6 -6 -13 -90 -14 -167 -1 -24 -4 -42 -7 -38 -5 5 -199 -88 -214 -103 -3 -3
-72 -39 -155 -80 -82 -41 -152 -77 -155 -80 -3 -3 -48 -27 -100 -53 -278 -142
-396 -202 -400 -207 -9 -9 -102 -51 -105 -48 -2 2 -20 67 -39 146 -31 121 -34
145 -24 164 7 13 16 25 19 28 3 3 14 19 23 37 16 33 66 92 66 79 0 -4 12 1 28
12 15 11 51 32 80 48 30 16 66 36 80 44 23 13 147 83 267 150 17 10 54 31 83
49 29 17 57 31 62 31 5 0 15 6 22 13 7 6 38 25 68 41 30 16 67 38 83 48 15 11
27 16 27 11 0 -4 4 -3 8 2 4 6 27 21 52 34 25 13 52 29 60 36 8 6 34 20 57 31
24 10 43 22 43 27 0 4 6 7 14 7 8 0 21 6 28 13 7 7 25 18 41 24 20 10 27 20
27 41 0 102 90 289 186 386 34 34 84 76 84 69 0 -3 10 3 23 14 28 25 147 80
180 82 5 1 6 -18 3 -41z m-521 -1234 c0 -75 4 -138 8 -141 4 -3 3 -11 -4 -19
-6 -8 -7 -14 -3 -14 5 0 10 -17 11 -37 3 -48 10 -108 18 -153 4 -19 8 -44 10
-55 2 -11 4 -22 5 -25 1 -3 3 -9 4 -15 2 -14 36 -127 43 -145 3 -8 7 -17 8
-20 22 -63 90 -205 128 -265 21 -33 40 -68 43 -77 4 -10 10 -18 14 -18 4 0 20
-20 36 -45 15 -25 32 -45 37 -45 4 0 5 -10 2 -22 -9 -30 -65 -141 -74 -148 -4
-3 -20 -23 -37 -45 -66 -90 -224 -215 -293 -232 -14 -3 -28 -9 -31 -13 -6 -8
-125 -40 -166 -45 -203 -24 -291 -25 -334 -3 -43 22 -154 92 -215 135 -25 18
-48 32 -51 32 -4 0 -10 4 -13 9 -3 5 -46 40 -96 77 -49 38 -106 82 -126 99
-19 17 -59 51 -89 76 -29 25 -113 104 -185 176 l-132 131 2 209 c1 115 4 216
7 224 11 39 51 100 97 149 28 30 51 59 51 64 0 6 3 8 6 4 3 -3 20 7 38 23 17
17 34 30 37 30 6 0 21 -48 34 -105 39 -173 57 -222 73 -200 4 6 84 48 177 95
94 47 172 87 175 90 3 3 61 34 130 69 69 34 177 90 240 123 225 117 405 208
410 208 3 0 5 -61 5 -136z"/>
<path d="M4307 5722 l-58 -16 6 -46 c3 -25 8 -63 10 -85 3 -22 8 -58 12 -80 3
-22 7 -60 9 -85 2 -25 3 -45 4 -45 7 0 4 -166 -3 -185 -19 -53 -20 -111 -2
-150 16 -35 31 -45 175 -119 87 -45 163 -81 168 -81 7 0 6 10 -3 28 -57 108
-56 97 -56 397 l0 281 -37 40 c-20 22 -62 68 -92 102 -30 34 -59 61 -65 61 -5
-1 -36 -8 -68 -17z"/>
</g>
</svg>
