<?xml version="1.0" encoding="utf-8"?>
<!-- Generator: Adobe Illustrator 16.0.0, SVG Export Plug-In . SVG Version: 6.00 Build 0)  -->
<!DOCTYPE svg PUBLIC "-//W3C//DTD SVG 1.1//EN" "http://www.w3.org/Graphics/SVG/1.1/DTD/svg11.dtd">
<svg version="1.1" id="Layer_1" xmlns="http://www.w3.org/2000/svg" xmlns:xlink="http://www.w3.org/1999/xlink" x="0px" y="0px"
	 width="250px" height="200px" viewBox="0 0 250 200" enable-background="new 0 0 250 200" xml:space="preserve">
<g>
	<path fill="#FFFFFF" d="M18.194,159.51c1.014,2.073,1.984,4.102,3.042,6.042h0.088c1.19-2.072,2.293-4.365,3.396-6.614l4.145-8.423
		c1.984-4.013,3.264-6.438,3.351-8.467c1.5,0.133,2.426,0.133,3.308,0.133c1.102,0,2.557-0.043,3.924-0.133
		c0.265,0.177,0.265,0.927,0.044,1.103l-0.926,0.089c-2.779,0.265-3.131,1.103-3.087,4.188c0.088,4.675,0.132,12.833,0.485,19.182
		c0.132,2.205,0.088,3.395,2.16,3.572l1.41,0.132c0.266,0.266,0.222,0.927-0.087,1.103c-1.808-0.088-3.616-0.132-5.203-0.132
		c-1.543,0-3.528,0.043-5.336,0.132c-0.308-0.22-0.354-0.837-0.088-1.103l1.279-0.132c2.161-0.221,2.161-0.926,2.161-3.748
		l-0.131-18.388h-0.089c-0.309,0.484-1.984,4.013-2.866,5.732l-3.925,7.716c-1.985,3.88-3.969,8.026-4.763,10.054
		c-0.088,0.132-0.265,0.177-0.441,0.177c-0.087,0-0.308-0.045-0.397-0.177c-0.75-2.337-2.866-6.659-3.88-8.819l-3.969-8.511
		c-0.925-2.029-1.851-4.321-2.822-6.351H8.89c-0.177,2.735-0.308,5.292-0.441,7.849c-0.132,2.69-0.309,6.615-0.309,10.363
		c0,3.263,0.265,3.969,1.984,4.101l1.675,0.132c0.309,0.266,0.265,0.971-0.043,1.103c-1.5-0.088-3.219-0.132-4.895-0.132
		c-1.411,0-2.999,0.043-4.498,0.132c-0.265-0.22-0.354-0.882-0.088-1.103l0.97-0.132c1.852-0.265,2.47-0.529,2.733-3.616
		c0.265-2.91,0.485-5.336,0.75-9.701c0.221-3.66,0.397-7.408,0.485-9.834c0.088-2.778-0.264-3.439-2.955-3.792l-0.705-0.089
		c-0.221-0.265-0.177-0.926,0.177-1.103c1.322,0.089,2.381,0.133,3.483,0.133c1.014,0,2.205,0,3.661-0.133
		c-0.177,1.72,0.925,4.454,2.292,7.276L18.194,159.51z"/>
	<path fill="#FFFFFF" d="M59.2,161.053c-0.309-0.97-0.486-1.102-1.809-1.102h-6.657c-1.103,0-1.368,0.132-1.676,1.059l-1.544,4.63
		c-0.661,1.983-0.97,3.174-0.97,3.659c0,0.53,0.221,0.794,1.278,0.882l1.456,0.132c0.309,0.221,0.309,0.927-0.088,1.103
		c-1.147-0.088-2.515-0.088-4.585-0.132c-1.456,0-3.043,0.088-4.234,0.132c-0.264-0.176-0.353-0.882-0.088-1.103l1.455-0.132
		c1.058-0.088,2.029-0.573,2.646-2.161c0.794-2.028,2.028-4.895,3.881-9.833l4.498-11.907c0.617-1.586,0.882-2.424,0.749-3.13
		c1.059-0.308,1.809-1.103,2.294-1.676c0.265,0,0.573,0.089,0.662,0.398c0.573,1.939,1.278,3.968,1.939,5.909l6.042,17.727
		c1.279,3.792,1.852,4.453,3.748,4.674l1.191,0.132c0.308,0.221,0.22,0.927,0,1.103c-1.809-0.088-3.352-0.132-5.336-0.132
		c-2.118,0-3.793,0.088-5.071,0.132c-0.353-0.176-0.397-0.882-0.088-1.103l1.278-0.132c0.925-0.088,1.544-0.352,1.544-0.793
		c0-0.484-0.22-1.279-0.575-2.337L59.2,161.053z M50.469,157.129c-0.354,1.013-0.309,1.058,0.926,1.058h5.423
		c1.279,0,1.367-0.177,0.971-1.367l-2.382-7.188c-0.353-1.058-0.75-2.249-1.015-2.779h-0.088c-0.132,0.221-0.573,1.28-1.058,2.603
		L50.469,157.129z"/>
	<path fill="#FFFFFF" d="M74.366,147.913c0-3.087-0.221-4.013-2.072-4.277l-0.971-0.132c-0.352-0.221-0.396-0.927,0.044-1.103
		c3.749-0.221,7.319-0.354,11.068-0.354c3.705,0,6.836,0.265,9.702,1.323c5.952,2.161,8.952,7.188,8.952,13.009
		c0,5.6-2.69,10.407-7.718,13.141c-2.866,1.543-6.482,2.116-9.878,2.116c-2.821,0-5.644-0.352-7.187-0.352
		c-1.852,0-3.439,0.043-5.512,0.132c-0.265-0.132-0.353-0.837-0.088-1.103l1.014-0.132c2.558-0.352,2.646-0.882,2.646-5.512V147.913
		z M77.982,163.655c0,2.337,0.132,3.748,0.882,4.806c0.97,1.368,2.646,1.808,5.424,1.808c8.555,0,12.392-5.6,12.392-13.801
		c0-4.852-2.337-13.054-13.891-13.054c-2.602,0-4.013,0.353-4.366,0.617s-0.441,1.367-0.441,3.352V163.655z"/>
	<path fill="#FFFFFF" d="M114.579,157.041c-2.118,0-2.206,0.088-2.206,1.411v6.217c0,4.629,0.221,5.247,2.689,5.512l1.279,0.132
		c0.265,0.176,0.177,0.971-0.088,1.103c-2.382-0.088-3.881-0.132-5.6-0.132c-1.896,0-3.396,0.088-5.115,0.132
		c-0.265-0.132-0.353-0.837-0.089-1.103l0.75-0.132c2.469-0.44,2.558-0.882,2.558-5.512v-15.875c0-4.63-0.308-5.38-2.602-5.556
		l-1.146-0.089c-0.265-0.175-0.177-0.97,0.088-1.103c2.161,0.045,3.66,0.133,5.557,0.133c1.719,0,3.218-0.043,5.115-0.133
		c0.265,0.133,0.353,0.927,0.088,1.103l-0.838,0.089c-2.558,0.265-2.646,0.926-2.646,5.556v5.071c0,1.367,0.087,1.412,2.206,1.412
		h12.611c2.117,0,2.205-0.044,2.205-1.412v-5.071c0-4.63-0.088-5.291-2.689-5.556l-0.838-0.089c-0.265-0.175-0.176-0.97,0.088-1.103
		c2.029,0.089,3.527,0.133,5.336,0.133c1.72,0,3.219-0.043,5.203-0.133c0.265,0.133,0.354,0.927,0.089,1.103l-0.926,0.089
		c-2.558,0.265-2.646,0.926-2.646,5.556v15.875c0,4.629,0.088,5.204,2.646,5.512l1.059,0.132c0.264,0.176,0.177,0.971-0.088,1.103
		c-2.117-0.088-3.616-0.132-5.336-0.132c-1.809,0-3.396,0.043-5.336,0.132c-0.264-0.132-0.353-0.837-0.088-1.103l0.838-0.132
		c2.689-0.44,2.689-0.882,2.689-5.512v-6.217c0-1.323-0.088-1.411-2.205-1.411H114.579z"/>
	<path fill="#FFFFFF" d="M156.601,161.053c-0.31-0.97-0.486-1.102-1.809-1.102h-6.658c-1.103,0-1.367,0.132-1.676,1.059l-1.544,4.63
		c-0.662,1.983-0.97,3.174-0.97,3.659c0,0.53,0.221,0.794,1.279,0.882l1.455,0.132c0.31,0.221,0.31,0.927-0.087,1.103
		c-1.146-0.088-2.514-0.088-4.585-0.132c-1.456,0-3.043,0.088-4.234,0.132c-0.264-0.176-0.353-0.882-0.088-1.103l1.455-0.132
		c1.058-0.088,2.029-0.573,2.646-2.161c0.794-2.028,2.028-4.895,3.88-9.833l4.498-11.907c0.618-1.586,0.882-2.424,0.75-3.13
		c1.058-0.308,1.808-1.103,2.293-1.676c0.265,0,0.574,0.089,0.661,0.398c0.574,1.939,1.279,3.968,1.941,5.909l6.041,17.727
		c1.279,3.792,1.853,4.453,3.748,4.674l1.192,0.132c0.308,0.221,0.219,0.927,0,1.103c-1.809-0.088-3.352-0.132-5.336-0.132
		c-2.118,0-3.793,0.088-5.071,0.132c-0.352-0.176-0.397-0.882-0.088-1.103l1.279-0.132c0.925-0.088,1.543-0.352,1.543-0.793
		c0-0.484-0.221-1.279-0.574-2.337L156.601,161.053z M147.869,157.129c-0.353,1.013-0.308,1.058,0.926,1.058h5.423
		c1.279,0,1.367-0.177,0.971-1.367l-2.382-7.188c-0.353-1.058-0.75-2.249-1.014-2.779h-0.089c-0.131,0.221-0.573,1.28-1.058,2.603
		L147.869,157.129z"/>
	<path fill="#FFFFFF" d="M179.263,164.669c0,4.629,0.088,5.291,2.646,5.512l1.411,0.132c0.265,0.176,0.175,0.971-0.088,1.103
		c-2.513-0.088-4.013-0.132-5.776-0.132c-1.764,0-3.308,0.043-6.13,0.132c-0.265-0.132-0.353-0.882,0-1.103l1.588-0.132
		c2.513-0.221,2.734-0.882,2.734-5.512v-19.711c0-1.367,0-1.411-1.323-1.411h-2.426c-1.896,0-4.321,0.087-5.423,1.102
		c-1.059,0.969-1.5,1.939-1.984,3.042c-0.353,0.265-0.97,0.045-1.146-0.308c0.707-1.984,1.367-4.807,1.676-6.571
		c0.133-0.087,0.707-0.131,0.838,0c0.265,1.412,1.72,1.368,3.748,1.368h17.859c2.381,0,2.778-0.088,3.44-1.235
		c0.221-0.088,0.706-0.044,0.794,0.132c-0.486,1.808-0.794,5.379-0.662,6.703c-0.176,0.353-0.926,0.353-1.146,0.087
		c-0.132-1.102-0.441-2.734-1.103-3.218c-1.014-0.75-2.689-1.102-5.115-1.102h-3.131c-1.323,0-1.279,0.043-1.279,1.499V164.669z"/>
	<path fill="#FFFFFF" d="M197.781,148.794c0-4.585-0.088-5.247-2.69-5.556l-0.705-0.089c-0.265-0.175-0.177-0.97,0.088-1.103
		c1.896,0.089,3.395,0.133,5.204,0.133h8.29c2.822,0,5.424,0,5.953-0.133c0.265,0.75,0.529,3.925,0.706,5.865
		c-0.177,0.265-0.882,0.353-1.103,0.088c-0.662-2.072-1.059-3.615-3.351-4.189c-0.926-0.22-2.337-0.264-4.277-0.264h-3.175
		c-1.323,0-1.323,0.087-1.323,1.763v8.819c0,1.235,0.131,1.235,1.455,1.235h2.557c1.853,0,3.219-0.088,3.748-0.265
		c0.529-0.177,0.838-0.441,1.058-1.543l0.354-1.808c0.22-0.265,0.97-0.265,1.146,0.043c0,1.059-0.176,2.778-0.176,4.454
		c0,1.587,0.176,3.263,0.176,4.234c-0.176,0.308-0.926,0.308-1.146,0.043l-0.396-1.719c-0.177-0.794-0.486-1.456-1.367-1.676
		c-0.617-0.177-1.676-0.222-3.396-0.222h-2.557c-1.323,0-1.455,0.045-1.455,1.192v6.217c0,2.338,0.131,3.837,0.837,4.587
		c0.53,0.528,1.456,1.013,5.336,1.013c3.396,0,4.673-0.175,5.645-0.662c0.794-0.441,1.984-1.984,3.131-4.277
		c0.308-0.221,0.926-0.088,1.103,0.308c-0.309,1.543-1.412,4.939-1.984,6.13c-3.969-0.088-7.894-0.132-11.818-0.132h-3.969
		c-1.896,0-3.396,0.043-5.998,0.132c-0.264-0.132-0.353-0.837-0.088-1.103l1.456-0.132c2.514-0.221,2.734-0.882,2.734-5.512V148.794
		z"/>
	<path fill="#FFFFFF" d="M223.53,148.838c0-4.188-0.132-4.939-1.94-5.158l-1.411-0.177c-0.309-0.221-0.309-0.927,0.044-1.103
		c2.47-0.221,5.513-0.354,9.833-0.354c2.734,0,5.335,0.221,7.364,1.323c2.117,1.102,3.66,3.086,3.66,6.173
		c0,4.19-3.307,6.483-5.511,7.363c-0.221,0.266,0,0.707,0.22,1.06c3.527,5.688,5.865,9.216,8.863,11.729
		c0.75,0.662,1.852,1.146,3.043,1.235c0.22,0.088,0.265,0.441,0.044,0.617c-0.397,0.132-1.102,0.221-1.94,0.221
		c-3.748,0-5.997-1.103-9.127-5.557c-1.148-1.631-2.956-4.675-4.323-6.659c-0.661-0.97-1.367-1.411-3.131-1.411
		c-1.984,0-2.072,0.045-2.072,0.971v5.556c0,4.629,0.088,5.16,2.646,5.512l0.925,0.132c0.265,0.221,0.177,0.971-0.088,1.103
		c-1.983-0.088-3.483-0.132-5.246-0.132c-1.853,0-3.44,0.043-5.513,0.132c-0.265-0.132-0.353-0.793-0.088-1.103l1.103-0.132
		c2.558-0.308,2.646-0.882,2.646-5.512V148.838z M227.146,155.145c0,0.793,0,1.278,0.131,1.455c0.134,0.132,0.795,0.221,3.044,0.221
		c1.588,0,3.264-0.177,4.542-1.147c1.19-0.927,2.205-2.47,2.205-5.468c0-3.483-2.161-6.791-7.055-6.791
		c-2.735,0-2.867,0.177-2.867,1.411V155.145z"/>
	<path fill="#FFFFFF" d="M90.748,192.293c0.243,0.154,0.331,0.419,0.331,0.706c0,0.22-0.066,0.42-0.177,0.551l-5.138,0.485
		c-0.242-0.199-0.33-0.485-0.33-0.706c0-0.22,0.065-0.418,0.176-0.55L90.748,192.293z"/>
	<path fill="#FFFFFF" d="M103.334,189.141c0.2,0.484,0.354,1.19,0.354,1.785c-0.089,0.155-0.419,0.2-0.529,0.066
		c-0.375-0.969-1.036-1.609-1.94-1.609c-0.86,0-1.411,0.551-1.411,1.344c0,0.905,0.926,1.39,1.698,1.831
		c1.168,0.661,2.249,1.411,2.249,2.977c0,1.676-1.543,2.514-3.175,2.514c-1.036,0-1.808-0.22-2.359-0.661
		c-0.176-0.419-0.308-1.5-0.265-2.227c0.11-0.132,0.398-0.155,0.508-0.022c0.374,1.213,1.08,2.271,2.337,2.271
		c0.793,0,1.478-0.463,1.478-1.411c0-1.014-0.882-1.566-1.699-2.029c-1.278-0.728-2.183-1.499-2.183-2.711
		c0-1.609,1.324-2.514,2.999-2.514C102.321,188.744,103.136,188.964,103.334,189.141z"/>
	<path fill="#FFFFFF" d="M108.384,189.979c-0.376,0-0.397,0.065-0.397,0.528v4.123c0,1.279,0.153,2.448,1.609,2.448
		c0.221,0,0.419-0.045,0.594-0.111c0.199-0.066,0.486-0.308,0.552-0.308c0.176,0,0.265,0.242,0.22,0.374
		c-0.397,0.464-1.191,1.015-2.315,1.015c-1.896,0-2.293-1.059-2.293-2.381v-5.049c0-0.595-0.021-0.639-0.462-0.639h-0.618
		c-0.132-0.089-0.154-0.331-0.066-0.463c0.64-0.199,1.19-0.485,1.411-0.684c0.287-0.265,0.705-0.859,0.926-1.301
		c0.11-0.044,0.375-0.044,0.462,0.11v0.993c0,0.397,0.023,0.419,0.398,0.419h2.447c0.265,0.198,0.221,0.794,0.022,0.926H108.384z"/>
	<path fill="#FFFFFF" d="M114.688,194.498c0,1.521,0.375,2.535,2.051,2.535c0.595,0,1.3-0.243,1.786-0.661
		c0.287-0.265,0.441-0.595,0.441-1.278v-3.616c0-1.434-0.154-1.478-0.815-1.743l-0.287-0.11c-0.154-0.088-0.154-0.396,0.022-0.484
		c0.882-0.022,2.095-0.177,2.579-0.397c0.11,0.022,0.177,0.066,0.199,0.154c-0.044,0.418-0.066,1.102-0.066,1.917v3.705
		c0,1.741,0.066,2.403,0.684,2.403c0.264,0,0.551-0.045,0.859-0.11c0.133,0.11,0.155,0.551-0.021,0.639
		c-0.86,0.176-2.138,0.397-2.889,0.816c-0.11,0-0.221-0.066-0.265-0.154v-0.904c0-0.198-0.066-0.309-0.198-0.309
		c-0.661,0.419-1.743,1.146-3.043,1.146c-1.94,0-2.667-0.97-2.667-2.755v-3.683c0-1.389,0-1.587-0.662-1.874l-0.264-0.11
		c-0.134-0.11-0.11-0.419,0.043-0.484c1.015-0.022,1.874-0.22,2.36-0.397c0.131,0.022,0.198,0.066,0.22,0.154
		c-0.045,0.375-0.067,0.837-0.067,1.917V194.498z"/>
	<path fill="#FFFFFF" d="M131.818,194.521c0,1.741,0.023,2.558,0.64,2.558c0.243,0,0.617-0.111,0.948-0.221
		c0.154,0.044,0.176,0.595-0.023,0.705c-0.925,0.133-2.292,0.464-2.91,0.707c-0.133,0-0.242-0.066-0.242-0.177v-0.375
		c0-0.33,0-0.595-0.044-0.684h-0.088c-0.969,0.662-1.719,1.015-2.778,1.015c-2.447,0-4.079-1.918-4.079-4.233
		c0-3.088,2.338-5.071,5.336-5.071c0.749,0,1.234,0.109,1.477,0.198c0.11,0,0.132-0.132,0.132-0.309v-3.329
		c0-1.301-0.022-1.434-0.684-1.83l-0.22-0.133c-0.11-0.066-0.11-0.375,0-0.44c0.551-0.177,1.587-0.507,2.381-0.926
		c0.087,0,0.177,0.044,0.22,0.132c-0.022,0.661-0.066,1.763-0.066,2.734V194.521z M130.187,191.213c0-0.441-0.088-0.64-0.242-0.86
		c-0.331-0.463-0.992-0.926-1.853-0.926c-2.005,0-3.042,1.742-3.042,3.66c0,2.007,1.124,3.902,3.285,3.902
		c0.594,0,1.345-0.264,1.696-0.617c0.133-0.132,0.155-0.463,0.155-0.816V191.213z"/>
	<path fill="#FFFFFF" d="M135.853,191.411c0-0.858,0-0.97-0.595-1.367l-0.198-0.132c-0.088-0.088-0.088-0.331,0.021-0.397
		c0.507-0.176,1.765-0.749,2.271-1.081c0.11,0,0.199,0.044,0.221,0.132c-0.044,0.772-0.089,1.83-0.089,2.734v3.967
		c0,1.588,0.045,1.81,0.839,1.92l0.463,0.065c0.154,0.11,0.109,0.485-0.044,0.551c-0.661-0.044-1.301-0.066-2.072-0.066
		c-0.794,0-1.456,0.022-2.072,0.066c-0.155-0.066-0.198-0.441-0.044-0.551l0.463-0.065c0.815-0.11,0.837-0.332,0.837-1.92V191.411z
		 M137.683,185.127c0,0.794-0.551,1.146-1.169,1.146c-0.683,0-1.124-0.507-1.124-1.103c0-0.727,0.529-1.19,1.19-1.19
		S137.683,184.51,137.683,185.127z"/>
	<path fill="#FFFFFF" d="M149.302,193.308c0,2.756-1.896,4.74-4.653,4.74c-2.536,0-4.52-1.786-4.52-4.542
		c0-2.779,2.095-4.763,4.696-4.763C147.295,188.744,149.302,190.596,149.302,193.308z M144.561,189.405
		c-1.456,0-2.536,1.389-2.536,3.814c0,2.007,0.904,4.168,2.845,4.168c1.939,0,2.535-2.029,2.535-3.727
		C147.405,191.786,146.655,189.405,144.561,189.405z"/>
	<path fill="#FFFFFF" d="M161.603,192.293c0.242,0.154,0.331,0.419,0.331,0.706c0,0.22-0.066,0.42-0.177,0.551l-5.138,0.485
		c-0.242-0.199-0.331-0.485-0.331-0.706c0-0.22,0.066-0.418,0.176-0.55L161.603,192.293z"/>
</g>
<g>
	<path d="M152.142,27.17c-1.89-5.102-11.332-6.642-23.616-4.637c-0.055-0.816-0.076-1.709-0.044-2.684
		c0.184-5.468,0.822-10.216,0.381-12.419c-0.003-0.014-0.009-0.027-0.013-0.041c-0.036-0.251-0.09-0.497-0.178-0.735
		c-1.808-4.88-14.032-4.851-27.306,0.065C88.094,11.637,78.8,19.578,80.607,24.458c0.255,0.688,0.723,1.274,1.364,1.767
		c0.192,0.167,0.397,0.312,0.611,0.413c0.007,0.004,0.018,0.01,0.025,0.014c0.054,0.031,0.111,0.061,0.166,0.091
		c1.49,0.863,8.023,5.613,10.739,9.029c-9.965,6.312-15.649,13.309-13.824,18.236c2.725,7.357,21.153,7.313,41.161-0.099
		C140.856,46.497,154.867,34.527,152.142,27.17z M89.666,24.769c-4.269,0-6.335-0.871-6.502-0.945l-0.047-0.93
		c0.082,0.035,8.428,3.519,26.907-3.755c12.546-4.94,15.688-8.619,16.443-10.373c0.378-0.877,0.197-1.351,0.195-1.355l0.689,0.293
		c0.028,0.063,0.258,0.641-0.166,1.672c-0.919,2.236-4.569,5.909-16.74,10.7C100.916,23.829,94.102,24.769,89.666,24.769z
		 M117.914,47.092c-9.133,3.384-17.546,3.404-18.791,0.046c-0.278-0.751-1.912-3.617-2.256-4.545
		c-0.042-0.113-0.074-0.229-0.099-0.346c2.125,2.73,10.159,2.485,18.832-0.728c8.844-3.276,15.173-8.458,14.746-11.916
		c0.103,0.156,0.191,0.32,0.255,0.495c0.322,0.869,1.299,3.981,1.599,4.789C133.444,38.244,127.048,43.709,117.914,47.092z"/>
	<path fill="#FFFFFF" d="M123.759,130.667c-33.327,0-60.442-27.114-60.442-60.442c0-15.477,5.839-30.191,16.442-41.432l0.903-0.958
		l-0.861-0.996c-0.445-0.515-0.787-1.089-1.016-1.707c-0.833-2.25-0.594-5.986,5.284-11.008c4.09-3.495,9.993-6.771,16.623-9.227
		c6.664-2.468,13.304-3.828,18.7-3.828c7.674,0,10.275,2.669,11.104,4.91c0.113,0.305,0.195,0.622,0.254,0.969l0.018,0.092
		c0.103,0.513,0.162,1.144,0.182,1.927l0.032,1.236l1.223,0.171c14.391,2.01,27.583,9.171,37.146,20.164
		c9.578,11.008,14.852,25.103,14.852,39.687C184.202,103.553,157.087,130.667,123.759,130.667z"/>
	<path d="M130.768,12.146c-0.041,0.739-0.093,1.524-0.148,2.357c-0.108,1.639-0.231,3.497-0.296,5.408
		c-0.005,0.164-0.009,0.328-0.012,0.492c2.779-0.374,5.409-0.563,7.841-0.563c8.537,0,14.119,2.376,15.717,6.69
		c0.462,1.249,0.564,2.592,0.322,4.004c11.906,9.143,19.583,23.519,19.583,39.691c0,27.623-22.393,50.016-50.016,50.016
		c-27.623,0-50.016-22.393-50.016-50.016c0-6.833,1.372-13.344,3.852-19.277c0.342-2.502,1.796-5.226,4.254-8.025
		c2.121-3.25,4.607-6.239,7.405-8.907c-2.38-2.144-5.254-4.281-6.743-5.27c-10.654,10.595-17.25,25.266-17.25,41.479
		c0,32.308,26.19,58.499,58.498,58.499c32.308,0,58.499-26.191,58.499-58.499C182.258,40.289,159.771,15.609,130.768,12.146z"/>
	<path d="M112.509,59.503l1.923-0.454L117,61.534v6.728l0.519,1.963c0,0-3.241-1.527-3.979-1.977
		c-0.738-0.448-0.838-1.553-0.469-2.382C113.439,65.036,112.509,59.503,112.509,59.503z"/>
	<path d="M130.768,12.146c-0.041,0.739-0.093,1.524-0.148,2.357c-0.108,1.639-0.231,3.497-0.296,5.408
		c-0.005,0.164-0.009,0.328-0.012,0.492c2.779-0.374,5.409-0.563,7.841-0.563c8.537,0,14.119,2.376,15.717,6.69
		c0.462,1.249,0.564,2.592,0.322,4.004c11.906,9.143,19.583,23.519,19.583,39.691c0,5.532-0.9,10.854-2.56,15.829l-13.401-7.149
		c0,0-0.15-0.23-0.058-1.059c0.092-0.83-0.056-1.795-1.244-3.487c-1.264-1.798-1.883-2.615-2.765-4.134
		c-0.649-1.119-1.936-1.871-6.313-2.932c-4.377-1.059-7.741,0-7.741,0s-2.12-0.322-3.909-3.778
		c-1.789-3.455-1.667-6.174-1.574-6.728c0.092-0.552,0.921-0.461,2.166-0.322c1.244,0.138,0.645,1.291-0.138,2.074
		c-0.784,0.783-0.645,1.566,0.461,1.796c1.105,0.23,1.842-1.474,1.935-4.239c0.092-2.764-1.935-1.751-2.849-0.921
		c-0.913,0.83-0.607-1.013-0.284-2.35c0.322-1.336,2.027-1.105,2.027-1.105s-0.784-0.553-1.743,0
		c-0.96,0.552-1.437,2.625-1.437,2.625l-0.414,1.176l-0.277-0.346l-0.46,0.691l-0.843-0.691l-0.861,0.691
		c1.109,3.078,0,5.944,0.553,9.492s1.935,6.267,3.74,8.57c1.805,2.304-0.008,5.161-1.805,8.386c-1.797,3.225-4.286,7.51-4.286,7.51
		s1.244-0.092,1.798,0.967c0.553,1.06,2.696,6.267,3.433,8.433c0.737,2.166-3.295,2.995-3.295,2.995l6.42,15.944
		c-4.529,1.349-9.326,2.076-14.292,2.076c-4.306,0-8.486-0.545-12.474-1.568l8.007-16.479c0,0-0.503,0.019-1.837-0.357
		c-1.271-0.359-2.207-0.796-1.86-2.795c0.358-2.057,1.429-6.84,1.797-8.155c0.322-1.147,0.44-2.093,1.321-2.015
		c2.815,0.958,5.428,1.835,6.222,2.061c1.949,0.552,3.055-0.185,5.635-4.608c2.58-4.423,3.87-7.003,4.239-8.293
		c0.368-1.29-0.185-2.949-1.106-4.055c-0.922-1.106-2.949-6.083-2.949-9.77c0-3.686,0.553-6.819,0.553-6.819l-0.336-1.67
		l1.392-1.217l0.731,0.859l0.366-1.208l0.434,0.828c0.182-2.144,1.191-3.798,2.623-4c1.846-0.262,3.691,1.983,4.12,5.015
		c0.428,3.03-0.721,5.698-2.567,5.96c-0.602,0.084-1.203-0.1-1.756-0.488l0.278,1.267l1.045,2.273l1.597,1.106l0.921-1.044
		l1.167,1.29l0.124-1.045L142,66.357V65h1.473l-0.43-1.38l0.861,0.047l-0.676-1.85l1.413,0.304l-1.106-1.538l1.106-0.432L143.657,59
		h0.184l-0.43-1.268l0.799,0.852l0.43-0.632l1.474,1.007l-0.736-2.2l-1.414-1.099l1.167-0.428l-0.552-1.35l-0.984-0.981l0.921-0.43
		l-0.798-1.454l0.921-0.819l-1.598-1.414l-1.167-0.306l1.597-0.779l-0.799-1.7h1.537L141,45.714v-1.044l-1.146-0.65
		c8.646-5.931,13.696-12.28,12.004-16.849c-1.889-5.102-11.19-6.642-23.474-4.637c-0.055-0.816-0.004-1.709,0.027-2.684
		c0.185-5.468,0.857-10.216,0.417-12.419c-0.003-0.014,0.009-0.027,0.005-0.041c-0.036-0.251-0.082-0.497-0.169-0.735
		c-1.808-4.88-14.028-4.851-27.3,0.065c-13.273,4.917-22.564,12.858-20.757,17.738c0.255,0.688,0.723,1.274,1.364,1.767
		c0.192,0.167,0.398,0.312,0.612,0.413c0.007,0.004,0.018,0.01,0.025,0.014c0.054,0.031,0.111,0.061,0.166,0.091
		c1.49,0.863,8.023,5.613,10.739,9.029c-9.965,6.312-15.649,13.309-13.824,18.236c2.499,6.746,18.205,7.264,36.222,1.59
		c0.792,0.74,1.682,1.693,2.447,2.818c0.791-0.634,1.893-1.029,3.114-1.029c2.405,0,4.355,1.527,4.355,3.41
		c0,1.883-1.95,3.409-4.355,3.409c-0.393,0-0.772-0.044-1.135-0.12c0.426,3.387-0.271,3.807-0.271,3.807s7.756,4.24,3.694,11.98
		c-4.063,7.741-4.063,7.741-4.063,7.741l-9.267-1.645c-1.145-0.449-1.089-0.951-0.868-1.654c0.052-0.163,0.191-0.361,0.369-0.613
		c0.586-0.833,1.567-2.229,1.93-5.627c0.446-4.167-4.195-8.626-5.942-10.306c-0.22-0.211-0.387-0.372-0.48-0.472
		c-0.463-0.498,0.189-2.268,0.774-3.418c0.506,0.304,1.751,0.922,2.986,0.561c1.604-0.467,2.117-3.476,2.138-3.603l-0.479-0.08
		c-0.131,0.787-0.707,2.899-1.794,3.216c-1.339,0.391-2.786-0.629-2.801-0.639l-0.225-0.161l-0.131,0.243
		c-0.178,0.33-1.716,3.252-0.825,4.213c0.097,0.104,0.271,0.271,0.5,0.491c1.673,1.608,6.076,5.841,5.808,9.724
		c-0.698,0.142-3.105,0.781-4.75,3.099c-1.499,2.11-1.643,3.664-1.646,4.155l-13.917,7.866l-1.173,1.978
		c-0.378,0.27-2.89,2.117-3.311,3.922c-0.202,0.866-0.18,2.834-0.096,4.72c-7.929-8.851-12.752-20.54-12.752-33.358
		c0-6.833,1.372-13.344,3.852-19.277c0.342-2.502,1.796-5.226,4.254-8.025c2.121-3.25,4.607-6.239,7.405-8.907
		c-2.38-2.144-5.254-4.281-6.743-5.27c-10.654,10.595-17.25,25.266-17.25,41.479c0,32.308,26.19,58.499,58.498,58.499
		c32.308,0,58.499-26.191,58.499-58.499C182.258,40.289,159.771,15.609,130.768,12.146z M131.116,55.649l-0.289-1.436l0.289-0.329
		V55.649z M89.666,24.769c-4.269,0-6.335-0.871-6.502-0.945l-0.047-0.93c0.082,0.035,8.428,3.519,26.907-3.755
		c12.546-4.94,15.688-8.619,16.443-10.373c0.378-0.877,0.197-1.351,0.195-1.355l0.689,0.293c0.028,0.063,0.258,0.641-0.166,1.672
		c-0.919,2.236-4.569,5.909-16.74,10.7C100.916,23.829,94.102,24.769,89.666,24.769z M117.914,47.092
		c-9.133,3.384-17.546,3.404-18.791,0.046c-0.278-0.751-1.912-3.617-2.256-4.545c-0.042-0.113-0.074-0.229-0.099-0.346
		c2.125,2.73,10.159,2.485,18.832-0.728c8.844-3.276,15.173-8.458,14.746-11.916c0.103,0.156,0.191,0.32,0.255,0.495
		c0.322,0.869,1.299,3.981,1.599,4.789C133.444,38.244,127.048,43.709,117.914,47.092z M101.819,113.048
		c-1.283,0.181-2.481,0.227-3.581,0.196c-4.172-2.48-7.952-5.55-11.227-9.095c-0.104-2.021-0.157-4.275,0.054-5.177
		c0.325-1.395,2.158-2.907,2.872-3.453l0.97,3.879l14.038-7.284c-0.068,2.261,0.02,5.26,0.709,7.773
		c1.203,4.381,3.721,7.17,3.721,7.17S107.717,112.218,101.819,113.048z M110.112,103.095c-0.645-0.645-1.29-1.29-3.041-4.699
		c-1.751-3.41-1.882-9.703-1.882-9.703s-0.155,1.202-0.228,2.946l-0.032-0.063l-13.702,7.108l-0.891-3.564l1.09-1.797l13.931-7.875
		l0.137-0.078l-0.015-0.157c-0.002-0.016-0.132-1.616,1.554-3.99c1.425-2.007,3.516-2.678,4.301-2.867
		c-0.375,3.027-1.264,4.299-1.804,5.066c-0.201,0.286-0.36,0.512-0.434,0.747c-0.265,0.839-0.382,1.71,1.314,2.313
		c0.974,0.348,3.058,0.969,4.353,1.348c-0.422,2.05-2.483,12.034-2.841,13.545C111.498,103.178,110.758,103.74,110.112,103.095z"/>
</g>
</svg>
